G04 #@! TF.GenerationSoftware,KiCad,Pcbnew,5.1.2*
G04 #@! TF.CreationDate,2019-05-27T23:22:56-07:00*
G04 #@! TF.ProjectId,gloveProtoFinal,676c6f76-6550-4726-9f74-6f46696e616c,rev?*
G04 #@! TF.SameCoordinates,Original*
G04 #@! TF.FileFunction,Copper,L1,Top*
G04 #@! TF.FilePolarity,Positive*
%FSLAX46Y46*%
G04 Gerber Fmt 4.6, Leading zero omitted, Abs format (unit mm)*
G04 Created by KiCad (PCBNEW 5.1.2) date 2019-05-27 23:22:56*
%MOMM*%
%LPD*%
G04 APERTURE LIST*
%ADD10C,2.000000*%
%ADD11R,1.000000X1.550000*%
%ADD12R,0.700000X0.700000*%
%ADD13C,2.499360*%
%ADD14R,2.499360X2.499360*%
%ADD15O,1.700000X1.700000*%
%ADD16R,1.700000X1.700000*%
%ADD17C,0.250000*%
G04 APERTURE END LIST*
D10*
X61849000Y-62865000D03*
X35687000Y-57404000D03*
X45847000Y-75565000D03*
X19431000Y-84582000D03*
X24638000Y-84455000D03*
X29210000Y-84455000D03*
X34290000Y-84455000D03*
X38735000Y-84455000D03*
X43815000Y-84455000D03*
X47752000Y-84455000D03*
X53213000Y-84582000D03*
X56642000Y-84582000D03*
X61849000Y-84582000D03*
X65405000Y-84582000D03*
X70612000Y-84582000D03*
X74295000Y-84709000D03*
X79502000Y-84709000D03*
X83439000Y-84328000D03*
X91059000Y-84328000D03*
X91313000Y-68707000D03*
X98806000Y-68707000D03*
D11*
X39635400Y-81827000D03*
X42837400Y-81827000D03*
X39698900Y-87074500D03*
X42837400Y-87074500D03*
X75255200Y-81921600D03*
X78457200Y-81921600D03*
X75318700Y-87169100D03*
X78457200Y-87169100D03*
X66364400Y-81903200D03*
X69566400Y-81903200D03*
X66427900Y-87150700D03*
X69566400Y-87150700D03*
X57531000Y-81903200D03*
X60733000Y-81903200D03*
X57594500Y-87150700D03*
X60733000Y-87150700D03*
X48779200Y-81791200D03*
X51981200Y-81791200D03*
X48842700Y-87038700D03*
X51981200Y-87038700D03*
X20345400Y-81795100D03*
X23547400Y-81795100D03*
X20408900Y-87042600D03*
X23547400Y-87042600D03*
X30114200Y-81827000D03*
X33316200Y-81827000D03*
X30177700Y-87074500D03*
X33316200Y-87074500D03*
D12*
X93059200Y-66971600D03*
X97509200Y-66971600D03*
X97509200Y-70471600D03*
X93059200Y-70471600D03*
X85003600Y-86072400D03*
X89453600Y-86072400D03*
X89453600Y-82572400D03*
X85003600Y-82572400D03*
D13*
X97184200Y-74721600D03*
D14*
X93374200Y-74721600D03*
X85318600Y-90322400D03*
D13*
X89128600Y-90322400D03*
D14*
X74970800Y-90423500D03*
D13*
X78780800Y-90423500D03*
D14*
X66080000Y-90405100D03*
D13*
X69890000Y-90405100D03*
X44094400Y-58394600D03*
D14*
X40284400Y-58394600D03*
D13*
X23266400Y-63982600D03*
D14*
X19456400Y-63982600D03*
X57246600Y-90405100D03*
D13*
X61056600Y-90405100D03*
D14*
X48494800Y-90293100D03*
D13*
X52304800Y-90293100D03*
D14*
X39351000Y-90328900D03*
D13*
X43161000Y-90328900D03*
D14*
X20061000Y-90297000D03*
D13*
X23871000Y-90297000D03*
D14*
X29829800Y-90328900D03*
D13*
X33639800Y-90328900D03*
X40081200Y-75336400D03*
D14*
X36271200Y-75336400D03*
D13*
X55829200Y-75082400D03*
D14*
X52019200Y-75082400D03*
D13*
X67513200Y-75082400D03*
D14*
X63703200Y-75082400D03*
D13*
X51968400Y-58394600D03*
D14*
X48158400Y-58394600D03*
D13*
X85039200Y-72034400D03*
D14*
X81229200Y-72034400D03*
D13*
X60858400Y-58394600D03*
D14*
X57048400Y-58394600D03*
D13*
X33426400Y-61442600D03*
D14*
X29616400Y-61442600D03*
D13*
X85039200Y-67843400D03*
D14*
X81229200Y-67843400D03*
D13*
X78130400Y-62458600D03*
D14*
X74320400Y-62458600D03*
D13*
X69240400Y-58648600D03*
D14*
X65430400Y-58648600D03*
D15*
X72783700Y-70256400D03*
X72783700Y-67716400D03*
X70243700Y-70256400D03*
X70243700Y-67716400D03*
X67703700Y-70256400D03*
X67703700Y-67716400D03*
X65163700Y-70256400D03*
X65163700Y-67716400D03*
X62623700Y-70256400D03*
X62623700Y-67716400D03*
X60083700Y-70256400D03*
X60083700Y-67716400D03*
X57543700Y-70256400D03*
X57543700Y-67716400D03*
X55003700Y-70256400D03*
X55003700Y-67716400D03*
X52463700Y-70256400D03*
X52463700Y-67716400D03*
X49923700Y-70256400D03*
X49923700Y-67716400D03*
X47383700Y-70256400D03*
X47383700Y-67716400D03*
X44843700Y-70256400D03*
X44843700Y-67716400D03*
X42303700Y-70256400D03*
X42303700Y-67716400D03*
X39763700Y-70256400D03*
X39763700Y-67716400D03*
X37223700Y-70256400D03*
X37223700Y-67716400D03*
X34683700Y-70256400D03*
X34683700Y-67716400D03*
X32143700Y-70256400D03*
X32143700Y-67716400D03*
X29603700Y-70256400D03*
X29603700Y-67716400D03*
X27063700Y-70256400D03*
X27063700Y-67716400D03*
X24523700Y-70256400D03*
D16*
X24523700Y-67716400D03*
D17*
X65163700Y-67716400D02*
X63988400Y-67716400D01*
X63988400Y-67716400D02*
X63988400Y-68083800D01*
X63988400Y-68083800D02*
X63180500Y-68891700D01*
X63180500Y-68891700D02*
X59783700Y-68891700D01*
X59783700Y-68891700D02*
X58813700Y-69861700D01*
X58813700Y-69861700D02*
X58813700Y-70665300D01*
X58813700Y-70665300D02*
X56915400Y-72563600D01*
X56915400Y-72563600D02*
X40618900Y-72563600D01*
X40618900Y-72563600D02*
X40618900Y-72563700D01*
X40618900Y-72563700D02*
X37846200Y-75336400D01*
X36271200Y-75336400D02*
X37846200Y-75336400D01*
X52019200Y-75082400D02*
X53594200Y-75082400D01*
X62623700Y-70256400D02*
X61448400Y-70256400D01*
X61448400Y-70256400D02*
X61448400Y-70623700D01*
X61448400Y-70623700D02*
X58564700Y-73507400D01*
X58564700Y-73507400D02*
X55169200Y-73507400D01*
X55169200Y-73507400D02*
X53594200Y-75082400D01*
X29616400Y-61442600D02*
X29616400Y-63017600D01*
X55003700Y-70256400D02*
X53828400Y-70256400D01*
X53828400Y-70256400D02*
X53828400Y-69889000D01*
X53828400Y-69889000D02*
X53020500Y-69081100D01*
X53020500Y-69081100D02*
X31807400Y-69081100D01*
X31807400Y-69081100D02*
X30873700Y-68147400D01*
X30873700Y-68147400D02*
X30873700Y-64274900D01*
X30873700Y-64274900D02*
X29616400Y-63017600D01*
X81229200Y-72034400D02*
X79654200Y-72034400D01*
X49923700Y-67716400D02*
X51099000Y-67716400D01*
X51099000Y-67716400D02*
X51099000Y-67349100D01*
X51099000Y-67349100D02*
X51941000Y-66507100D01*
X51941000Y-66507100D02*
X65629900Y-66507100D01*
X65629900Y-66507100D02*
X66528300Y-67405500D01*
X66528300Y-67405500D02*
X66528300Y-68294800D01*
X66528300Y-68294800D02*
X67219900Y-68986400D01*
X67219900Y-68986400D02*
X76606200Y-68986400D01*
X76606200Y-68986400D02*
X79654200Y-72034400D01*
X33319000Y-67716400D02*
X33319000Y-67349100D01*
X33319000Y-67349100D02*
X39994200Y-60673900D01*
X39994200Y-60673900D02*
X61830100Y-60673900D01*
X61830100Y-60673900D02*
X63855400Y-58648600D01*
X65430400Y-58648600D02*
X63855400Y-58648600D01*
X32143700Y-67716400D02*
X33319000Y-67716400D01*
X78130400Y-62458600D02*
X79654400Y-62458600D01*
X79654400Y-62458600D02*
X85039200Y-67843400D01*
X51968400Y-58394600D02*
X53543500Y-59969700D01*
X53543500Y-59969700D02*
X59283300Y-59969700D01*
X59283300Y-59969700D02*
X60858400Y-58394600D01*
X44094400Y-58394600D02*
X42490500Y-59998500D01*
X42490500Y-59998500D02*
X34870500Y-59998500D01*
X34870500Y-59998500D02*
X33426400Y-61442600D01*
X67513200Y-75082400D02*
X65938100Y-73507300D01*
X65938100Y-73507300D02*
X60956300Y-73507300D01*
X60956300Y-73507300D02*
X59381200Y-75082400D01*
X59381200Y-75082400D02*
X55829200Y-75082400D01*
X33639800Y-90328900D02*
X33316200Y-90005300D01*
X33316200Y-90005300D02*
X33316200Y-87074500D01*
X29829800Y-90328900D02*
X29829800Y-88753900D01*
X29829800Y-88753900D02*
X30177700Y-88406000D01*
X30177700Y-88406000D02*
X30177700Y-87074500D01*
X23871000Y-90297000D02*
X23547400Y-89973400D01*
X23547400Y-89973400D02*
X23547400Y-87042600D01*
X20061000Y-90297000D02*
X20061000Y-88722000D01*
X20061000Y-88722000D02*
X20408900Y-88374100D01*
X20408900Y-88374100D02*
X20408900Y-87042600D01*
X43161000Y-90328900D02*
X42837400Y-90005300D01*
X42837400Y-90005300D02*
X42837400Y-87074500D01*
X39351000Y-90328900D02*
X39351000Y-88753900D01*
X39351000Y-88753900D02*
X39698900Y-88406000D01*
X39698900Y-88406000D02*
X39698900Y-87074500D01*
X52304800Y-90293100D02*
X51981200Y-89969500D01*
X51981200Y-89969500D02*
X51981200Y-87038700D01*
X48494800Y-90293100D02*
X48494800Y-88718100D01*
X48494800Y-88718100D02*
X48842700Y-88370200D01*
X48842700Y-88370200D02*
X48842700Y-87038700D01*
X61056600Y-90405100D02*
X60733000Y-90081500D01*
X60733000Y-90081500D02*
X60733000Y-87150700D01*
X57246600Y-90405100D02*
X57246600Y-88830100D01*
X57246600Y-88830100D02*
X57594500Y-88482200D01*
X57594500Y-88482200D02*
X57594500Y-87150700D01*
X69890000Y-90405100D02*
X69566400Y-90081500D01*
X69566400Y-90081500D02*
X69566400Y-87150700D01*
X66080000Y-90405100D02*
X66080000Y-88830100D01*
X66080000Y-88830100D02*
X66427900Y-88482200D01*
X66427900Y-88482200D02*
X66427900Y-87150700D01*
X97509200Y-70471600D02*
X97509200Y-71146900D01*
X97184200Y-74721600D02*
X97184200Y-71471900D01*
X97184200Y-71471900D02*
X97509200Y-71146900D01*
X93374200Y-74721600D02*
X93374200Y-73146600D01*
X93374200Y-73146600D02*
X93059200Y-72831600D01*
X93059200Y-72831600D02*
X93059200Y-70471600D01*
X78780800Y-90423500D02*
X78457200Y-90099900D01*
X78457200Y-90099900D02*
X78457200Y-87169100D01*
X74970800Y-90423500D02*
X74970800Y-88848500D01*
X74970800Y-88848500D02*
X75318700Y-88500600D01*
X75318700Y-88500600D02*
X75318700Y-87169100D01*
X89453600Y-86072400D02*
X89453600Y-86747700D01*
X89128600Y-90322400D02*
X89128600Y-87072700D01*
X89128600Y-87072700D02*
X89453600Y-86747700D01*
X85318600Y-90322400D02*
X85318600Y-88747400D01*
X85318600Y-88747400D02*
X85003600Y-88432400D01*
X85003600Y-88432400D02*
X85003600Y-86072400D01*
M02*
