G04 #@! TF.GenerationSoftware,KiCad,Pcbnew,5.1.2*
G04 #@! TF.CreationDate,2019-05-27T23:22:56-07:00*
G04 #@! TF.ProjectId,gloveProtoFinal,676c6f76-6550-4726-9f74-6f46696e616c,rev?*
G04 #@! TF.SameCoordinates,Original*
G04 #@! TF.FileFunction,Legend,Top*
G04 #@! TF.FilePolarity,Positive*
%FSLAX46Y46*%
G04 Gerber Fmt 4.6, Leading zero omitted, Abs format (unit mm)*
G04 Created by KiCad (PCBNEW 5.1.2) date 2019-05-27 23:22:56*
%MOMM*%
%LPD*%
G04 APERTURE LIST*
%ADD10C,0.075000*%
%ADD11C,0.150000*%
%ADD12C,0.120000*%
%ADD13C,0.050000*%
G04 APERTURE END LIST*
D10*
X25479147Y-77822296D02*
X25479147Y-77836294D01*
X26264793Y-78232617D02*
X26287089Y-78232617D01*
X24172995Y-76973014D02*
X24189433Y-76933138D01*
X24167135Y-77037142D02*
X24172995Y-76973014D01*
X26606913Y-77221876D02*
X26540508Y-77180047D01*
X26680809Y-77240104D02*
X26606913Y-77221876D01*
X26031716Y-77339551D02*
X26144676Y-77339551D01*
X26031716Y-77005405D02*
X26031716Y-77339551D01*
X25186506Y-77944368D02*
X25152000Y-77997266D01*
X25495098Y-77324899D02*
X25575177Y-77271517D01*
X25413555Y-77346227D02*
X25495098Y-77324899D01*
X26264793Y-77658235D02*
X26198223Y-77678905D01*
X25160139Y-77202343D02*
X25218729Y-77289745D01*
X25137513Y-77096059D02*
X25160139Y-77202343D01*
X24890280Y-77658235D02*
X24939921Y-77670604D01*
X24873843Y-77658235D02*
X24890280Y-77658235D01*
X24853173Y-77658235D02*
X24873843Y-77658235D01*
X27592110Y-76056508D02*
X27594720Y-76058299D01*
X27558420Y-76055371D02*
X27592110Y-76056508D01*
X27555660Y-76056997D02*
X27558420Y-76055371D01*
X27375959Y-76152862D02*
X27555660Y-76056997D01*
X26209617Y-77944856D02*
X26209617Y-77928907D01*
X28945320Y-77248892D02*
X28862310Y-77174839D01*
X28933110Y-77262892D02*
X28945320Y-77248892D01*
X28858230Y-77318716D02*
X28933110Y-77262892D01*
X29220840Y-77240104D02*
X29196750Y-77240104D01*
X29236980Y-77240104D02*
X29220840Y-77240104D01*
X29285790Y-77225779D02*
X29236980Y-77240104D01*
X25471008Y-78185742D02*
X25476867Y-78176139D01*
X25809224Y-76983103D02*
X25840961Y-76916371D01*
X25809224Y-77005405D02*
X25809224Y-76983103D01*
X26260398Y-74344426D02*
X26331852Y-74257996D01*
X26206527Y-74443727D02*
X26260398Y-74344426D01*
X26172504Y-74553586D02*
X26206527Y-74443727D01*
X26160627Y-74641966D02*
X26172504Y-74553586D01*
X27043602Y-77664910D02*
X26961735Y-77664910D01*
X26209617Y-77960807D02*
X26209617Y-77944856D01*
X26463522Y-73172056D02*
X26465313Y-73164106D01*
X26433900Y-73230646D02*
X26463522Y-73172056D01*
X26430156Y-73235236D02*
X26433900Y-73230646D01*
X26426412Y-73239286D02*
X26430156Y-73235236D01*
X29086890Y-77008822D02*
X29087400Y-76987501D01*
X29436690Y-77101759D02*
X29436690Y-77101759D01*
X29086890Y-77101759D02*
X29436690Y-77101759D01*
X25382142Y-77658235D02*
X25358544Y-77658235D01*
X25346985Y-77764354D02*
X25363914Y-77764354D01*
X24104147Y-77262400D02*
X24115052Y-77274445D01*
X24068340Y-77194204D02*
X24104147Y-77262400D01*
X29222970Y-77346227D02*
X29250150Y-77346227D01*
X29200980Y-77346227D02*
X29222970Y-77346227D01*
X29135400Y-77333854D02*
X29200980Y-77346227D01*
X25043925Y-77768749D02*
X25060854Y-77831737D01*
X25000143Y-77707714D02*
X25043925Y-77768749D01*
X24939921Y-77670604D02*
X25000143Y-77707714D01*
X24403953Y-77059600D02*
X24403953Y-77059600D01*
X24403953Y-77037955D02*
X24403953Y-77059600D01*
X27741030Y-78080924D02*
X27719700Y-78110384D01*
X27747540Y-78041862D02*
X27741030Y-78080924D01*
X27400049Y-77664910D02*
X27280410Y-77664910D01*
X24851379Y-77346389D02*
X24792627Y-77327996D01*
X24871077Y-77346389D02*
X24851379Y-77346389D01*
X24893207Y-77346389D02*
X24871077Y-77346389D01*
X28237140Y-76979689D02*
X28271130Y-76912630D01*
X28237140Y-77002147D02*
X28237140Y-76979689D01*
X28237140Y-77339551D02*
X28237140Y-77002147D01*
X28169910Y-74318386D02*
X28205069Y-74365756D01*
X28167120Y-74311876D02*
X28169910Y-74318386D01*
X28009590Y-73944526D02*
X28167120Y-74311876D01*
X28007130Y-73938976D02*
X28009590Y-73944526D01*
X26416158Y-77827669D02*
X26429505Y-77883496D01*
X26306622Y-77658235D02*
X26287089Y-77658235D01*
X25600080Y-77101759D02*
X25600080Y-77101759D01*
X25250304Y-77101759D02*
X25600080Y-77101759D01*
X25309062Y-75044147D02*
X25274067Y-74994976D01*
X25311669Y-75051136D02*
X25309062Y-75044147D01*
X25467267Y-75439807D02*
X25311669Y-75051136D01*
X25469547Y-75445345D02*
X25467267Y-75439807D01*
X27747540Y-77822296D02*
X27747540Y-77836294D01*
X27720210Y-77780306D02*
X27747540Y-77822296D01*
X26432109Y-77437858D02*
X26432109Y-77724643D01*
X25013487Y-76834342D02*
X25021629Y-76844920D01*
X24959943Y-76792513D02*
X25013487Y-76834342D01*
X24893207Y-76771843D02*
X24959943Y-76792513D01*
X28416630Y-75927928D02*
X28414860Y-75925324D01*
X28413900Y-75958528D02*
X28416630Y-75927928D01*
X28411590Y-75960808D02*
X28413900Y-75958528D01*
X28037730Y-76334668D02*
X28411590Y-75960808D01*
X27515130Y-78055534D02*
X27515130Y-78043164D01*
X27515130Y-78067903D02*
X27515130Y-78055534D01*
X24231751Y-77221549D02*
X24198874Y-77198114D01*
X24271953Y-77233429D02*
X24231751Y-77221549D01*
X26287089Y-78232617D02*
X26307273Y-78232617D01*
X28726380Y-78080599D02*
X28676880Y-78112012D01*
X28734690Y-78072135D02*
X28726380Y-78080599D01*
X26212059Y-77881216D02*
X26225568Y-77825392D01*
X27408840Y-78077995D02*
X27422190Y-78128776D01*
X27408840Y-78061068D02*
X27408840Y-78077995D01*
X27650850Y-75973012D02*
X27580560Y-75952504D01*
X27658500Y-75978058D02*
X27650850Y-75973012D01*
X28007970Y-76217968D02*
X27658500Y-75978058D01*
X28282380Y-75943555D02*
X28007970Y-76217968D01*
X26098614Y-78031120D02*
X26104962Y-78089062D01*
X28272090Y-74402537D02*
X28280250Y-74404336D01*
X28213860Y-74373257D02*
X28272090Y-74402537D01*
X28209300Y-74369506D02*
X28213860Y-74373257D01*
X28205069Y-74365756D02*
X28209300Y-74369506D01*
X28310220Y-75054076D02*
X28313460Y-75053566D01*
X28284630Y-75076846D02*
X28310220Y-75054076D01*
X28283670Y-75079937D02*
X28284630Y-75076846D01*
X28127250Y-75470734D02*
X28283670Y-75079937D01*
X26605452Y-77664910D02*
X26784651Y-78225944D01*
X24726054Y-77279980D02*
X24725568Y-77724643D01*
X24736473Y-77289907D02*
X24726054Y-77279980D01*
X24792627Y-77327996D02*
X24736473Y-77289907D01*
X26096822Y-77923372D02*
X26096822Y-77944856D01*
X25074039Y-73408906D02*
X25075989Y-73411666D01*
X25076967Y-73378276D02*
X25074039Y-73408906D01*
X25079247Y-73376146D02*
X25076967Y-73378276D01*
X26381331Y-75281446D02*
X26383281Y-75282910D01*
X26364075Y-75267772D02*
X26381331Y-75281446D01*
X26362446Y-75266308D02*
X26364075Y-75267772D01*
X26327292Y-75243196D02*
X26362446Y-75266308D01*
X27747540Y-78225944D02*
X27860340Y-78225944D01*
X27121080Y-78225944D02*
X27121080Y-78225944D01*
X28420890Y-76912468D02*
X28502760Y-76814974D01*
X28414230Y-76907422D02*
X28420890Y-76912468D01*
X28365210Y-76884796D02*
X28414230Y-76907422D01*
X24734841Y-76827505D02*
X24790185Y-76789909D01*
X24726054Y-76837270D02*
X24734841Y-76827505D01*
X24726054Y-76778518D02*
X24726054Y-76837270D01*
X26160627Y-74671426D02*
X26160627Y-74641966D01*
X26160627Y-74708686D02*
X26160627Y-74671426D01*
X26179992Y-74821006D02*
X26160627Y-74708686D01*
X26234679Y-74956246D02*
X26179992Y-74821006D01*
X24376284Y-77192413D02*
X24372051Y-77198114D01*
X24381492Y-77184928D02*
X24376284Y-77192413D01*
X29205390Y-76771843D02*
X29184900Y-76771843D01*
X29227350Y-76771843D02*
X29205390Y-76771843D01*
X29293770Y-76788442D02*
X29227350Y-76771843D01*
X25286763Y-76786330D02*
X25212384Y-76834504D01*
X25348287Y-76771843D02*
X25286763Y-76786330D01*
X26727030Y-76772005D02*
X26695455Y-76772005D01*
X26821758Y-76792675D02*
X26727030Y-76772005D01*
X26664042Y-77346389D02*
X26696760Y-77346389D01*
X26566227Y-77321158D02*
X26664042Y-77346389D01*
X25940733Y-76884796D02*
X25999979Y-76916371D01*
X25921041Y-76884796D02*
X25940733Y-76884796D01*
X29048820Y-76834504D02*
X28994760Y-76923532D01*
X29123340Y-76786330D02*
X29048820Y-76834504D01*
X29184900Y-76771843D02*
X29123340Y-76786330D01*
X26004375Y-77658235D02*
X25977192Y-77658235D01*
X26209617Y-77928907D02*
X26212059Y-77881216D01*
X26719548Y-77346389D02*
X26788068Y-77334668D01*
X26696760Y-77346389D02*
X26719548Y-77346389D01*
X28612140Y-77138053D02*
X28602180Y-77079133D01*
X28640760Y-77192089D02*
X28612140Y-77138053D01*
X28686690Y-77223337D02*
X28640760Y-77192089D01*
X26796369Y-77126659D02*
X26816226Y-77157745D01*
X26757144Y-77113639D02*
X26796369Y-77126659D01*
X29086890Y-77127637D02*
X29086890Y-77101759D01*
X29124810Y-77205272D02*
X29086890Y-77127637D01*
X29196750Y-77240104D02*
X29124810Y-77205272D01*
X26287089Y-77658235D02*
X26264793Y-77658235D01*
X28385880Y-77809768D02*
X28365060Y-77912629D01*
X28439940Y-77720734D02*
X28385880Y-77809768D01*
X25479147Y-78028841D02*
X25479147Y-78028841D01*
X27441539Y-77194204D02*
X27455879Y-77092480D01*
X27405749Y-77262400D02*
X27441539Y-77194204D01*
X25457175Y-76788442D02*
X25390767Y-76771843D01*
X25530906Y-76835809D02*
X25457175Y-76788442D01*
X26023743Y-76784374D02*
X25974102Y-76771843D01*
X26083800Y-76821484D02*
X26023743Y-76784374D01*
X27585929Y-78232617D02*
X27606900Y-78232617D01*
X27523080Y-78219433D02*
X27585929Y-78232617D01*
X26305809Y-78119662D02*
X26259096Y-78104524D01*
X25479147Y-77987988D02*
X25479147Y-78028841D01*
X28602180Y-77039746D02*
X28611960Y-76980337D01*
X28602180Y-77059600D02*
X28602180Y-77039746D01*
X28602180Y-77079133D02*
X28602180Y-77059600D01*
X25298973Y-77333854D02*
X25364562Y-77346227D01*
X25218729Y-77289745D02*
X25298973Y-77333854D01*
X28163400Y-77674837D02*
X28108380Y-77713576D01*
X28224930Y-77658235D02*
X28163400Y-77674837D01*
X26367819Y-78214388D02*
X26423160Y-78176953D01*
X28720170Y-76771843D02*
X28649400Y-76787791D01*
X28743810Y-76771843D02*
X28720170Y-76771843D01*
X28772250Y-76771843D02*
X28743810Y-76771843D01*
X26432109Y-77960319D02*
X26429505Y-78006706D01*
X27887519Y-77112826D02*
X27887519Y-77134957D01*
X27887519Y-76778518D02*
X27887519Y-77112826D01*
X28000470Y-76778518D02*
X27887519Y-76778518D01*
X27747540Y-78028841D02*
X27747540Y-78041862D01*
X27747540Y-78225944D02*
X27747540Y-78225944D01*
X26515929Y-75243847D02*
X26506491Y-75215026D01*
X26514792Y-75246775D02*
X26515929Y-75243847D01*
X26144352Y-76141960D02*
X26514792Y-75246775D01*
X26143047Y-76144888D02*
X26144352Y-76141960D01*
X25451151Y-78110384D02*
X25412256Y-78123405D01*
X25427550Y-78218782D02*
X25471008Y-78185742D01*
X27054180Y-77274445D02*
X27061830Y-77282908D01*
X27043275Y-77262400D02*
X27054180Y-77274445D01*
X27408840Y-78045117D02*
X27408840Y-78061068D01*
X27420389Y-77997266D02*
X27408840Y-78045117D01*
X26545068Y-78225944D02*
X26545068Y-77437858D01*
X25875468Y-76788442D02*
X25820292Y-76827178D01*
X25936992Y-76771843D02*
X25875468Y-76788442D01*
X26336733Y-77771029D02*
X26382954Y-77786818D01*
X28225380Y-77771029D02*
X28274400Y-77793649D01*
X28206840Y-77771029D02*
X28225380Y-77771029D01*
X28827630Y-77894890D02*
X28827630Y-77870311D01*
X28827630Y-77987988D02*
X28827630Y-77894890D01*
X28596360Y-77658235D02*
X28575840Y-77658235D01*
X28618320Y-77658235D02*
X28596360Y-77658235D01*
X26993310Y-77024770D02*
X26993310Y-77058625D01*
X27007467Y-76923697D02*
X26993310Y-77024770D01*
X27043275Y-76855663D02*
X27007467Y-76923697D01*
X27224580Y-76771843D02*
X27197909Y-76771843D01*
X27251130Y-76771843D02*
X27224580Y-76771843D01*
X27629039Y-78232617D02*
X27695940Y-78218782D01*
X27606900Y-78232617D02*
X27629039Y-78232617D01*
X27128550Y-76933138D02*
X27133920Y-76925812D01*
X27111960Y-76973014D02*
X27128550Y-76933138D01*
X27106110Y-77037142D02*
X27111960Y-76973014D01*
X26321433Y-78119662D02*
X26305809Y-78119662D01*
X26961735Y-77664910D02*
X26834454Y-78057649D01*
X26198223Y-78211784D02*
X26264793Y-78232617D01*
X25323060Y-77895052D02*
X25303206Y-77895052D01*
X27454890Y-77944368D02*
X27420389Y-77997266D01*
X27512040Y-77908234D02*
X27454890Y-77944368D01*
X27170880Y-78057649D02*
X27043602Y-77664910D01*
X26747538Y-77112826D02*
X26757144Y-77113639D01*
X26647929Y-77104039D02*
X26747538Y-77112826D01*
X25400535Y-77240104D02*
X25384260Y-77240104D01*
X25449363Y-77225779D02*
X25400535Y-77240104D01*
X25696433Y-77339551D02*
X25696433Y-77339551D01*
X25696433Y-76778518D02*
X25696433Y-77339551D01*
X27843240Y-77755729D02*
X27795389Y-77698600D01*
X27860340Y-77821159D02*
X27843240Y-77755729D01*
X28732890Y-77233429D02*
X28686690Y-77223337D01*
X28748340Y-77233429D02*
X28732890Y-77233429D01*
X28764300Y-77233429D02*
X28748340Y-77233429D01*
X29411760Y-77271517D02*
X29425590Y-77255566D01*
X29331690Y-77324899D02*
X29411760Y-77271517D01*
X29250150Y-77346227D02*
X29331690Y-77324899D01*
X26456850Y-75184426D02*
X26432598Y-75166036D01*
X26458962Y-75185746D02*
X26456850Y-75184426D01*
X26503887Y-75213406D02*
X26458962Y-75185746D01*
X26506491Y-75215026D02*
X26503887Y-75213406D01*
X25488588Y-72999076D02*
X25485822Y-72997126D01*
X25932435Y-73303576D02*
X25488588Y-72999076D01*
X25935039Y-73305376D02*
X25932435Y-73303576D01*
X29288040Y-76911493D02*
X29322720Y-76987501D01*
X29226060Y-76878124D02*
X29288040Y-76911493D01*
X29205390Y-76878124D02*
X29226060Y-76878124D01*
X24466613Y-77262400D02*
X24502422Y-77194204D01*
X24455873Y-77274445D02*
X24466613Y-77262400D01*
X26225568Y-77825392D02*
X26259096Y-77785999D01*
X27538890Y-78006380D02*
X27594059Y-77987988D01*
X27515130Y-78043164D02*
X27538890Y-78006380D01*
X25451805Y-77780306D02*
X25479147Y-77822296D01*
X27615390Y-77764354D02*
X27632310Y-77764354D01*
X27564600Y-77773795D02*
X27615390Y-77764354D01*
X26212059Y-78008984D02*
X26209617Y-77960807D01*
X28526520Y-78220247D02*
X28592100Y-78232617D01*
X28446270Y-78175976D02*
X28526520Y-78220247D01*
X27612450Y-77987988D02*
X27747540Y-77987988D01*
X27594059Y-77987988D02*
X27612450Y-77987988D01*
X25220196Y-74254907D02*
X25219056Y-74257847D01*
X25377747Y-73887556D02*
X25220196Y-74254907D01*
X25379214Y-73884646D02*
X25377747Y-73887556D01*
X25600080Y-77008822D02*
X25600080Y-76984246D01*
X25600080Y-77101759D02*
X25600080Y-77008822D01*
X24959943Y-77325553D02*
X24893207Y-77346389D01*
X25013487Y-77283724D02*
X24959943Y-77325553D01*
X25021629Y-77273309D02*
X25013487Y-77283724D01*
X26473938Y-74041516D02*
X26252421Y-74190947D01*
X26677551Y-73986706D02*
X26473938Y-74041516D01*
X26745423Y-73986706D02*
X26677551Y-73986706D01*
X26813130Y-73986706D02*
X26745423Y-73986706D01*
X28011390Y-75495313D02*
X28011390Y-75499870D01*
X28020990Y-75445507D02*
X28011390Y-75495313D01*
X28023569Y-75439807D02*
X28020990Y-75445507D01*
X28178850Y-75051796D02*
X28023569Y-75439807D01*
X24871077Y-76771843D02*
X24893207Y-76771843D01*
X24850731Y-76771843D02*
X24871077Y-76771843D01*
X24790185Y-76789909D02*
X24850731Y-76771843D01*
X27237930Y-76884796D02*
X27278310Y-76896517D01*
X27224580Y-76884796D02*
X27237930Y-76884796D01*
X27211080Y-76884796D02*
X27224580Y-76884796D01*
X27106110Y-77058625D02*
X27106110Y-77037142D01*
X27106110Y-77080108D02*
X27106110Y-77058625D01*
X27111960Y-77145049D02*
X27106110Y-77080108D01*
X25938459Y-77771029D02*
X25957014Y-77771029D01*
X24403953Y-77059600D02*
X24403953Y-77080924D01*
X24054180Y-77058625D02*
X24054180Y-77058625D01*
X29436690Y-77008822D02*
X29436690Y-76984246D01*
X29436690Y-77101759D02*
X29436690Y-77008822D01*
X28862310Y-77174839D02*
X28862310Y-77174839D01*
X25360659Y-78232617D02*
X25427550Y-78218782D01*
X27665190Y-76778518D02*
X27552240Y-76778518D01*
X27665190Y-77112826D02*
X27665190Y-76778518D01*
X27665190Y-77134957D02*
X27665190Y-77112826D01*
X25957662Y-76771843D02*
X25936992Y-76771843D01*
X25974102Y-76771843D02*
X25957662Y-76771843D01*
X26432109Y-78225944D02*
X26432109Y-78225944D01*
X27109349Y-75281446D02*
X27126600Y-75267772D01*
X27107580Y-75282910D02*
X27109349Y-75281446D01*
X27412080Y-76018750D02*
X27107580Y-75282910D01*
X27502740Y-75970246D02*
X27412080Y-76018750D01*
X28037580Y-75586783D02*
X28282380Y-75943555D01*
X28032209Y-75578809D02*
X28037580Y-75586783D01*
X28011540Y-75506866D02*
X28032209Y-75578809D01*
X28011390Y-75499870D02*
X28011540Y-75506866D01*
X27680640Y-78123405D02*
X27636210Y-78126334D01*
X27719700Y-78110384D02*
X27680640Y-78123405D01*
X25254702Y-78219433D02*
X25317525Y-78232617D01*
X29184390Y-76878124D02*
X29205390Y-76878124D01*
X29121900Y-76911493D02*
X29184390Y-76878124D01*
X29087400Y-76987501D02*
X29121900Y-76911493D01*
X25839825Y-75973012D02*
X25832175Y-75978220D01*
X25909977Y-75952504D02*
X25839825Y-75973012D01*
X25916808Y-75952504D02*
X25909977Y-75952504D01*
X25922181Y-75952504D02*
X25916808Y-75952504D01*
X27128550Y-77184928D02*
X27111960Y-77145049D01*
X27133920Y-77192413D02*
X27128550Y-77184928D01*
X27138000Y-77198114D02*
X27133920Y-77192413D01*
X25479147Y-77836294D02*
X25479147Y-77895052D01*
X26104962Y-78089062D02*
X26117331Y-78128613D01*
X28097310Y-78225944D02*
X28097310Y-77888377D01*
X27984360Y-78225944D02*
X28097310Y-78225944D01*
X26929017Y-77157910D02*
X26919900Y-77110546D01*
X26929017Y-77173696D02*
X26929017Y-77157910D01*
X26031716Y-76983103D02*
X26031716Y-77005405D01*
X25999979Y-76916371D02*
X26031716Y-76983103D01*
X26861796Y-77300974D02*
X26910951Y-77246776D01*
X26788068Y-77334668D02*
X26861796Y-77300974D01*
X25831034Y-77724643D02*
X25828923Y-77724643D01*
X24231751Y-76896517D02*
X24271953Y-76884796D01*
X24198874Y-76919953D02*
X24231751Y-76896517D01*
X27373020Y-76154329D02*
X27375959Y-76152862D01*
X27347640Y-76145050D02*
X27373020Y-76154329D01*
X27346500Y-76142122D02*
X27347640Y-76145050D01*
X26976054Y-75246775D02*
X27346500Y-76142122D01*
X26695617Y-76878124D02*
X26715963Y-76878124D01*
X26676738Y-76878124D02*
X26695617Y-76878124D01*
X28808730Y-77796745D02*
X28758270Y-77722201D01*
X28827630Y-77870311D02*
X28808730Y-77796745D01*
X25060854Y-78225944D02*
X24948060Y-78225944D01*
X25060854Y-77852896D02*
X25060854Y-78225944D01*
X25060854Y-77831737D02*
X25060854Y-77852896D01*
X27696930Y-77201693D02*
X27665190Y-77134957D01*
X27756810Y-77233429D02*
X27696930Y-77201693D01*
X27776850Y-77233429D02*
X27756810Y-77233429D01*
X25498842Y-77194366D02*
X25449363Y-77225779D01*
X25507143Y-77185903D02*
X25498842Y-77194366D01*
X26884260Y-78225944D02*
X27001608Y-77833039D01*
X26784651Y-78225944D02*
X26884260Y-78225944D01*
X29367360Y-76835809D02*
X29293770Y-76788442D01*
X29417820Y-76910512D02*
X29367360Y-76835809D01*
X29436690Y-76984246D02*
X29417820Y-76910512D01*
X26615052Y-76979689D02*
X26599263Y-76954132D01*
X26659323Y-76997755D02*
X26615052Y-76979689D01*
X27342930Y-77037955D02*
X27342930Y-77059600D01*
X27336900Y-76973176D02*
X27342930Y-77037955D01*
X27320610Y-76933138D02*
X27336900Y-76973176D01*
X26631492Y-77102572D02*
X26647929Y-77104039D01*
X26583312Y-77089225D02*
X26631492Y-77102572D01*
X26012676Y-77798695D02*
X26094546Y-77701366D01*
X24339173Y-76896517D02*
X24372051Y-76919953D01*
X24298808Y-76884796D02*
X24339173Y-76896517D01*
X25074039Y-75927928D02*
X25076967Y-75958528D01*
X25075827Y-75925324D02*
X25074039Y-75927928D01*
X25360497Y-75510451D02*
X25075827Y-75925324D01*
X25362285Y-75507847D02*
X25360497Y-75510451D01*
X28649400Y-77330107D02*
X28720170Y-77346227D01*
X28568010Y-77279653D02*
X28649400Y-77330107D01*
X28510890Y-77190625D02*
X28568010Y-77279653D01*
X27518519Y-73306516D02*
X27162419Y-73160686D01*
X27521310Y-73307836D02*
X27518519Y-73306516D01*
X27555660Y-73305376D02*
X27521310Y-73307836D01*
X24122702Y-76835155D02*
X24115052Y-76843783D01*
X24179017Y-76794955D02*
X24122702Y-76835155D01*
X25248519Y-77676625D02*
X25179993Y-77725129D01*
X25828923Y-77888377D02*
X25828923Y-77865916D01*
X26481102Y-72576526D02*
X26474262Y-72576526D01*
X27009747Y-72576526D02*
X26481102Y-72576526D01*
X27016422Y-72576526D02*
X27009747Y-72576526D01*
X26705547Y-77240104D02*
X26680809Y-77240104D01*
X26725242Y-77240104D02*
X26705547Y-77240104D01*
X28858230Y-76799350D02*
X28772250Y-76771843D01*
X28933110Y-76855174D02*
X28858230Y-76799350D01*
X28945320Y-76869334D02*
X28933110Y-76855174D01*
X25828923Y-77865916D02*
X25862937Y-77798860D01*
X25862937Y-77798860D02*
X25919577Y-77771029D01*
X25338522Y-78232617D02*
X25360659Y-78232617D01*
X25192527Y-78183301D02*
X25254702Y-78219433D01*
X25479147Y-78225944D02*
X25479147Y-78225944D01*
X26528463Y-77168164D02*
X26449851Y-77245639D01*
X26540508Y-77180047D02*
X26528463Y-77168164D01*
X28772250Y-77346227D02*
X28858230Y-77318716D01*
X28743810Y-77346227D02*
X28772250Y-77346227D01*
X28720170Y-77346227D02*
X28743810Y-77346227D01*
X25250304Y-77008822D02*
X25250304Y-77008822D01*
X25487283Y-77008822D02*
X25250304Y-77008822D01*
X24725568Y-77869498D02*
X24725568Y-77891797D01*
X24757305Y-77802604D02*
X24725568Y-77869498D01*
X24817362Y-77771029D02*
X24757305Y-77802604D01*
X25453104Y-73002316D02*
X25079247Y-73376146D01*
X25455222Y-73000036D02*
X25453104Y-73002316D01*
X25485822Y-72997126D02*
X25455222Y-73000036D01*
X25412256Y-78123405D02*
X25367817Y-78126334D01*
X25246725Y-78043164D02*
X25270488Y-78006380D01*
X26546367Y-76815463D02*
X26502258Y-76869496D01*
X26612775Y-76782907D02*
X26546367Y-76815463D01*
X28816560Y-78141797D02*
X28734690Y-78072135D01*
X28802730Y-78157747D02*
X28816560Y-78141797D01*
X26673483Y-76998892D02*
X26659323Y-76997755D01*
X26766423Y-77005405D02*
X26673483Y-76998892D01*
X25811505Y-76838245D02*
X25809224Y-76838245D01*
X25820292Y-76827178D02*
X25811505Y-76838245D01*
X28365060Y-77946972D02*
X28365060Y-77982292D01*
X28365060Y-77912629D02*
X28365060Y-77946972D01*
X27330870Y-76794955D02*
X27251130Y-76771843D01*
X27387180Y-76835155D02*
X27330870Y-76794955D01*
X24376284Y-76925812D02*
X24381492Y-76933138D01*
X24372051Y-76919953D02*
X24376284Y-76925812D01*
X25486308Y-76987501D02*
X25487283Y-77008822D01*
X25451643Y-76911493D02*
X25486308Y-76987501D01*
X28000470Y-77339713D02*
X28000470Y-76778518D01*
X27887519Y-77339713D02*
X28000470Y-77339713D01*
X27887519Y-77279818D02*
X27887519Y-77339713D01*
X26259096Y-77785999D02*
X26305809Y-77771029D01*
X25479147Y-77895052D02*
X25323060Y-77895052D01*
X26532210Y-77057488D02*
X26583312Y-77089225D01*
X26498355Y-77008984D02*
X26532210Y-77057488D01*
X25981586Y-75966667D02*
X25922181Y-75952504D01*
X25988100Y-75970246D02*
X25981586Y-75966667D01*
X26078753Y-76018750D02*
X25988100Y-75970246D01*
X26383281Y-75282910D02*
X26078753Y-76018750D01*
X27007467Y-77194204D02*
X27043275Y-77262400D01*
X26993310Y-77092480D02*
X27007467Y-77194204D01*
X27016746Y-74041516D02*
X26813130Y-73986706D01*
X27238260Y-74190947D02*
X27016746Y-74041516D01*
X27387690Y-74412466D02*
X27238260Y-74190947D01*
X27442680Y-74616077D02*
X27387690Y-74412466D01*
X25027164Y-77266147D02*
X25021629Y-77273309D01*
X25040835Y-77242384D02*
X25027164Y-77266147D01*
X25053042Y-77202997D02*
X25040835Y-77242384D01*
X27280410Y-77664910D02*
X27173160Y-78057649D01*
X26307273Y-78232617D02*
X26367819Y-78214388D01*
X26144676Y-76966666D02*
X26144676Y-76945507D01*
X26144676Y-77339551D02*
X26144676Y-76966666D01*
X25331034Y-77658235D02*
X25248519Y-77676625D01*
X26620422Y-76897330D02*
X26676738Y-76878124D01*
X26599263Y-76933462D02*
X26620422Y-76897330D01*
X25353009Y-78126334D02*
X25332501Y-78126334D01*
X25246725Y-78067903D02*
X25246725Y-78055534D01*
X25262676Y-77799514D02*
X25296204Y-77773795D01*
X25153788Y-78128776D02*
X25192527Y-78183301D01*
X25358544Y-77658235D02*
X25331034Y-77658235D01*
X25386537Y-77346227D02*
X25413555Y-77346227D01*
X25364562Y-77346227D02*
X25386537Y-77346227D01*
X28575510Y-77764354D02*
X28596360Y-77764354D01*
X28513020Y-77797720D02*
X28575510Y-77764354D01*
X24948546Y-77075392D02*
X24948546Y-77059600D01*
X24945942Y-77123080D02*
X24948546Y-77075392D01*
X24932433Y-77178904D02*
X24945942Y-77123080D01*
X26136701Y-77731312D02*
X26131167Y-77738314D01*
X26365380Y-77676463D02*
X26306622Y-77658235D01*
X25246725Y-78055534D02*
X25246725Y-78043164D01*
X28035450Y-73000036D02*
X28004849Y-72997126D01*
X28037730Y-73002316D02*
X28035450Y-73000036D01*
X28411590Y-73376146D02*
X28037730Y-73002316D01*
X28722630Y-78211133D02*
X28802730Y-78157747D01*
X28641090Y-78232617D02*
X28722630Y-78211133D01*
X24339173Y-77221549D02*
X24298808Y-77233429D01*
X24372051Y-77198114D02*
X24339173Y-77221549D01*
X27330060Y-74671426D02*
X27330060Y-74708686D01*
X27330060Y-74641966D02*
X27330060Y-74671426D01*
X27318180Y-74553586D02*
X27330060Y-74641966D01*
X27284010Y-74443727D02*
X27318180Y-74553586D01*
X27509100Y-75966667D02*
X27502740Y-75970246D01*
X27568170Y-75952504D02*
X27509100Y-75966667D01*
X27573870Y-75952504D02*
X27568170Y-75952504D01*
X27580560Y-75952504D02*
X27573870Y-75952504D01*
X28514310Y-77672557D02*
X28439940Y-77720734D01*
X28575840Y-77658235D02*
X28514310Y-77672557D01*
X25285626Y-74365756D02*
X25320942Y-74318236D01*
X25281555Y-74369506D02*
X25285626Y-74365756D01*
X25277001Y-74373257D02*
X25281555Y-74369506D01*
X25218405Y-74402537D02*
X25277001Y-74373257D01*
X28387680Y-78088574D02*
X28446270Y-78175976D01*
X28365060Y-77982292D02*
X28387680Y-78088574D01*
X25479147Y-78176139D02*
X25479147Y-78225944D01*
X28973940Y-77060743D02*
X28973940Y-77096059D01*
X28973940Y-77026399D02*
X28973940Y-77060743D01*
X28994760Y-76923532D02*
X28973940Y-77026399D01*
X25347963Y-76878124D02*
X25368798Y-76878124D01*
X25285464Y-76911493D02*
X25347963Y-76878124D01*
X26006004Y-77793649D02*
X26012676Y-77798695D01*
X26993310Y-77058625D02*
X26993310Y-77092480D01*
X26449851Y-77245639D02*
X26449851Y-77245639D01*
X25956525Y-77658235D02*
X25895001Y-77674837D01*
X27747540Y-78028841D02*
X27747540Y-78028841D01*
X27747540Y-77987988D02*
X27747540Y-78028841D01*
X29335260Y-77194366D02*
X29285790Y-77225779D01*
X29343570Y-77185903D02*
X29335260Y-77194366D01*
X29425590Y-77255566D02*
X29343570Y-77185903D01*
X25715964Y-77664910D02*
X25715964Y-78225944D01*
X28817850Y-74377156D02*
X28814760Y-74376646D01*
X28837380Y-74397166D02*
X28817850Y-74377156D01*
X28837380Y-74404156D02*
X28837380Y-74397166D01*
X28837380Y-74932816D02*
X28837380Y-74404156D01*
X24837384Y-77771029D02*
X24817362Y-77771029D01*
X24857076Y-77771029D02*
X24837384Y-77771029D01*
X24916323Y-77802604D02*
X24857076Y-77771029D01*
X24653463Y-74939656D02*
X24672996Y-74959666D01*
X24653463Y-74932816D02*
X24653463Y-74939656D01*
X24653463Y-74404156D02*
X24653463Y-74932816D01*
X27984360Y-78225944D02*
X27984360Y-78225944D01*
X27984360Y-77664910D02*
X27984360Y-78225944D01*
X28187970Y-77771029D02*
X28206840Y-77771029D01*
X28131330Y-77798860D02*
X28187970Y-77771029D01*
X25040835Y-76875682D02*
X25053042Y-76915234D01*
X25027002Y-76851922D02*
X25040835Y-76875682D01*
X25021629Y-76844920D02*
X25027002Y-76851922D01*
X26974755Y-75243847D02*
X26976054Y-75246775D01*
X26984193Y-75215026D02*
X26974755Y-75243847D01*
X26986959Y-75213406D02*
X26984193Y-75215026D01*
X27031881Y-75185746D02*
X26986959Y-75213406D01*
X25059387Y-77145376D02*
X25053042Y-77202997D01*
X25061343Y-77081089D02*
X25059387Y-77145376D01*
X25061343Y-77059768D02*
X25061343Y-77081089D01*
X26902002Y-76836622D02*
X26821758Y-76792675D01*
X26915835Y-76848337D02*
X26902002Y-76836622D01*
X24122702Y-77282908D02*
X24179017Y-77323114D01*
X24115052Y-77274445D02*
X24122702Y-77282908D01*
X28354320Y-77694691D02*
X28272750Y-77658235D01*
X28362930Y-77701366D02*
X28354320Y-77694691D01*
X25969548Y-73307836D02*
X25935039Y-73305376D01*
X25972476Y-73306516D02*
X25969548Y-73307836D01*
X26328591Y-73160686D02*
X25972476Y-73306516D01*
X28477860Y-78013867D02*
X28477860Y-77987988D01*
X28515750Y-78091504D02*
X28477860Y-78013867D01*
X26486310Y-76960642D02*
X26498355Y-77008984D01*
X26486310Y-76944529D02*
X26486310Y-76960642D01*
X25828923Y-78225944D02*
X25828923Y-77888377D01*
X28628070Y-78126334D02*
X28611810Y-78126334D01*
X28676880Y-78112012D02*
X28628070Y-78126334D01*
X25140441Y-78077995D02*
X25153788Y-78128776D01*
X24285462Y-76884796D02*
X24298808Y-76884796D01*
X24271953Y-76884796D02*
X24285462Y-76884796D01*
X25389468Y-76878124D02*
X25451643Y-76911493D01*
X25368798Y-76878124D02*
X25389468Y-76878124D01*
X26777001Y-76892446D02*
X26835105Y-76922395D01*
X26715963Y-76878124D02*
X26777001Y-76892446D01*
X26891256Y-77058787D02*
X26840802Y-77022328D01*
X26919900Y-77110546D02*
X26891256Y-77058787D01*
X25472637Y-78080924D02*
X25451151Y-78110384D01*
X25368798Y-76771843D02*
X25348287Y-76771843D01*
X25390767Y-76771843D02*
X25368798Y-76771843D01*
X26423160Y-78176953D02*
X26432109Y-78167350D01*
X27673469Y-77333692D02*
X27723599Y-77346227D01*
X27613110Y-77296579D02*
X27673469Y-77333692D01*
X27569160Y-77235547D02*
X27613110Y-77296579D01*
X28297680Y-74280466D02*
X28271460Y-74257847D01*
X28300920Y-74281127D02*
X28297680Y-74280466D01*
X28814760Y-74376646D02*
X28300920Y-74281127D01*
X25809224Y-77339551D02*
X25809224Y-77005405D01*
X25696433Y-77339551D02*
X25809224Y-77339551D01*
X26117493Y-76154329D02*
X26143047Y-76144888D01*
X26114727Y-76152862D02*
X26117493Y-76154329D01*
X25935039Y-76056997D02*
X26114727Y-76152862D01*
X25932273Y-76055371D02*
X25935039Y-76056997D01*
X29086890Y-77008822D02*
X29086890Y-77008822D01*
X29323710Y-77008822D02*
X29086890Y-77008822D01*
X29322720Y-76987501D02*
X29323710Y-77008822D01*
X27437640Y-77740105D02*
X27526170Y-77807650D01*
X27448380Y-77725129D02*
X27437640Y-77740105D01*
X25140441Y-78061068D02*
X25140441Y-78077995D01*
X26929017Y-77191924D02*
X26929017Y-77173696D01*
X26910951Y-77246776D02*
X26929017Y-77191924D01*
X27220860Y-78225944D02*
X27400049Y-77664910D01*
X26486310Y-76925650D02*
X26486310Y-76944529D01*
X26502258Y-76869496D02*
X26486310Y-76925650D01*
X26432109Y-78167350D02*
X26432109Y-78225944D01*
X26225568Y-78064974D02*
X26212059Y-78008984D01*
X28035450Y-76336783D02*
X28037730Y-76334668D01*
X28004849Y-76339714D02*
X28035450Y-76336783D01*
X28002270Y-76337920D02*
X28004849Y-76339714D01*
X27594720Y-76058299D02*
X28002270Y-76337920D01*
X27118140Y-77323114D02*
X27197909Y-77346227D01*
X27061830Y-77282908D02*
X27118140Y-77323114D01*
X24728496Y-77120800D02*
X24741843Y-77176789D01*
X24726054Y-77074900D02*
X24728496Y-77120800D01*
X24726054Y-77059600D02*
X24726054Y-77074900D01*
X28284630Y-74956907D02*
X28225230Y-74987326D01*
X28292940Y-74955436D02*
X28284630Y-74956907D01*
X28724940Y-74875036D02*
X28292940Y-74955436D01*
X28814760Y-74376646D02*
X28814760Y-74376646D01*
X25364727Y-75473338D02*
X25362285Y-75507847D01*
X25363425Y-75470572D02*
X25364727Y-75473338D01*
X25207014Y-75079786D02*
X25363425Y-75470572D01*
X25206033Y-75076696D02*
X25207014Y-75079786D01*
X28827630Y-77987988D02*
X28827630Y-77987988D01*
X28477860Y-77987988D02*
X28827630Y-77987988D01*
X25303206Y-77895052D02*
X25243635Y-77908234D01*
X28097310Y-77865916D02*
X28131330Y-77798860D01*
X28097310Y-77888377D02*
X28097310Y-77865916D01*
X26377422Y-73274776D02*
X26426412Y-73239286D01*
X26370588Y-73277536D02*
X26377422Y-73274776D01*
X26015766Y-73422736D02*
X26370588Y-73277536D01*
X26010072Y-73424986D02*
X26015766Y-73422736D01*
X25360173Y-77240104D02*
X25288230Y-77205272D01*
X25384260Y-77240104D02*
X25360173Y-77240104D01*
X24612777Y-76778518D02*
X24726054Y-76778518D01*
X24612777Y-78225944D02*
X24612777Y-76778518D01*
X24836733Y-77233429D02*
X24836733Y-77233429D01*
X28303230Y-76788442D02*
X28248179Y-76827178D01*
X28364730Y-76771843D02*
X28303230Y-76788442D01*
X28385400Y-76771843D02*
X28364730Y-76771843D01*
X26453754Y-72599326D02*
X26354796Y-73130746D01*
X26454246Y-72596056D02*
X26453754Y-72599326D01*
X26474262Y-72576526D02*
X26454246Y-72596056D01*
X29055150Y-77289745D02*
X29135400Y-77333854D01*
X28996560Y-77202343D02*
X29055150Y-77289745D01*
X28973940Y-77096059D02*
X28996560Y-77202343D01*
X28022760Y-73796746D02*
X28017569Y-73804396D01*
X28282380Y-73418476D02*
X28022760Y-73796746D01*
X28007970Y-73144066D02*
X28282380Y-73418476D01*
X27621900Y-73409026D02*
X28007970Y-73144066D01*
X24821271Y-77233429D02*
X24836733Y-77233429D01*
X24775047Y-77217643D02*
X24821271Y-77233429D01*
X24741843Y-77176789D02*
X24775047Y-77217643D01*
X24945942Y-76995313D02*
X24932433Y-76939321D01*
X24948546Y-77043487D02*
X24945942Y-76995313D01*
X24948546Y-77059600D02*
X24948546Y-77043487D01*
X27025371Y-73163776D02*
X27027000Y-73171906D01*
X26939433Y-72701536D02*
X27025371Y-73163776D01*
X26551413Y-72701536D02*
X26939433Y-72701536D01*
X26465313Y-73164106D02*
X26551413Y-72701536D01*
X28113090Y-73887556D02*
X28111619Y-73884646D01*
X28270470Y-74254907D02*
X28113090Y-73887556D01*
X28271460Y-74257847D02*
X28270470Y-74254907D01*
X26816226Y-77168164D02*
X26816226Y-77181508D01*
X26816226Y-77157745D02*
X26816226Y-77168164D01*
X27558420Y-73303576D02*
X27555660Y-73305376D01*
X28002270Y-72999076D02*
X27558420Y-73303576D01*
X28004849Y-72997126D02*
X28002270Y-72999076D01*
X28099590Y-77724643D02*
X28097310Y-77724643D01*
X28108380Y-77713576D02*
X28099590Y-77724643D01*
X25158348Y-76923532D02*
X25137513Y-77026399D01*
X25212384Y-76834504D02*
X25158348Y-76923532D01*
X27516900Y-77676625D02*
X27448380Y-77725129D01*
X27599430Y-77658235D02*
X27516900Y-77676625D01*
X24852192Y-76884796D02*
X24836733Y-76884796D01*
X24898905Y-76899772D02*
X24852192Y-76884796D01*
X24932433Y-76939321D02*
X24898905Y-76899772D01*
X24054180Y-77092480D02*
X24068340Y-77194204D01*
X24054180Y-77058625D02*
X24054180Y-77092480D01*
X28346670Y-76884796D02*
X28365210Y-76884796D01*
X28327770Y-76884796D02*
X28346670Y-76884796D01*
X28271130Y-76912630D02*
X28327770Y-76884796D01*
X27552240Y-77172559D02*
X27569160Y-77235547D01*
X27552240Y-77151562D02*
X27552240Y-77172559D01*
X27342930Y-77059600D02*
X27342930Y-77059600D01*
X28477860Y-77895052D02*
X28477860Y-77895052D01*
X28714680Y-77895052D02*
X28477860Y-77895052D01*
X24258770Y-77346227D02*
X24285462Y-77346227D01*
X24179017Y-77323114D02*
X24258770Y-77346227D01*
X24775047Y-76900585D02*
X24741843Y-76941439D01*
X24821271Y-76884796D02*
X24775047Y-76900585D01*
X24836733Y-76884796D02*
X24821271Y-76884796D01*
X24948060Y-77869498D02*
X24916323Y-77802604D01*
X24948060Y-77891797D02*
X24948060Y-77869498D01*
X24948060Y-78225944D02*
X24948060Y-77891797D01*
X24448059Y-76835155D02*
X24391746Y-76794955D01*
X24455873Y-76843783D02*
X24448059Y-76835155D01*
X27224580Y-77346227D02*
X27251130Y-77346227D01*
X27197909Y-77346227D02*
X27224580Y-77346227D01*
X25901022Y-76884796D02*
X25921041Y-76884796D01*
X25840961Y-76916371D02*
X25901022Y-76884796D01*
X26259096Y-78104524D02*
X26225568Y-78064974D01*
X24448059Y-77282908D02*
X24455873Y-77274445D01*
X24391746Y-77323114D02*
X24448059Y-77282908D01*
X27036600Y-72596056D02*
X27016422Y-72576526D01*
X27037254Y-72599326D02*
X27036600Y-72596056D01*
X27136050Y-73130746D02*
X27037254Y-72599326D01*
X25205709Y-74956907D02*
X25197573Y-74955256D01*
X25265280Y-74987176D02*
X25205709Y-74956907D01*
X25270002Y-74991256D02*
X25265280Y-74987176D01*
X25274067Y-74994976D02*
X25270002Y-74991256D01*
X28862310Y-76943392D02*
X28945320Y-76869334D01*
X28855290Y-76934767D02*
X28862310Y-76943392D01*
X28812300Y-76901074D02*
X28855290Y-76934767D01*
X25385883Y-77764354D02*
X25451805Y-77780306D01*
X28812300Y-77216830D02*
X28764300Y-77233429D01*
X28855290Y-77183299D02*
X28812300Y-77216830D01*
X28862310Y-77174839D02*
X28855290Y-77183299D01*
X27760560Y-77346227D02*
X27821429Y-77329621D01*
X27740370Y-77346227D02*
X27760560Y-77346227D01*
X27723599Y-77346227D02*
X27740370Y-77346227D01*
X25957014Y-77771029D02*
X26006004Y-77793649D01*
X25482894Y-73940626D02*
X25493796Y-73887736D01*
X25480287Y-73946476D02*
X25482894Y-73940626D01*
X25323714Y-74311726D02*
X25480287Y-73946476D01*
X25320942Y-74318236D02*
X25323714Y-74311726D01*
X26085918Y-77694691D02*
X26004375Y-77658235D01*
X28281060Y-77798695D02*
X28362930Y-77701366D01*
X28274400Y-77793649D02*
X28281060Y-77798695D01*
X27739410Y-78185742D02*
X27745259Y-78176139D01*
X27695940Y-78218782D02*
X27739410Y-78185742D01*
X27118140Y-76794955D02*
X27061830Y-76835155D01*
X27197909Y-76771843D02*
X27118140Y-76794955D01*
X28413900Y-73378276D02*
X28411590Y-73376146D01*
X28416630Y-73408906D02*
X28413900Y-73378276D01*
X28414860Y-73411666D02*
X28416630Y-73408906D01*
X24898905Y-77218291D02*
X24932433Y-77178904D01*
X24852192Y-77233429D02*
X24898905Y-77218291D01*
X24836733Y-77233429D02*
X24852192Y-77233429D01*
X28489380Y-77092318D02*
X28510890Y-77190625D01*
X28489380Y-77059600D02*
X28489380Y-77092318D01*
X28489380Y-77026564D02*
X28489380Y-77059600D01*
X25581359Y-76910512D02*
X25530906Y-76835809D01*
X25600080Y-76984246D02*
X25581359Y-76910512D01*
X27395010Y-76843783D02*
X27387180Y-76835155D01*
X27405749Y-76855663D02*
X27395010Y-76843783D01*
X25476867Y-78176139D02*
X25479147Y-78176139D01*
X25868796Y-73408906D02*
X25876773Y-73414126D01*
X25482894Y-73144066D02*
X25868796Y-73408906D01*
X25208475Y-73418476D02*
X25482894Y-73144066D01*
X25468404Y-73797076D02*
X25208475Y-73418476D01*
X24653463Y-74397316D02*
X24653463Y-74404156D01*
X24672996Y-74377156D02*
X24653463Y-74397316D01*
X24676251Y-74376646D02*
X24672996Y-74377156D01*
X27721650Y-77667514D02*
X27650520Y-77658235D01*
X27795389Y-77698600D02*
X27721650Y-77667514D01*
X25250304Y-77127637D02*
X25250304Y-77101759D01*
X25288230Y-77205272D02*
X25250304Y-77127637D01*
X28124160Y-77339551D02*
X28237140Y-77339551D01*
X27552240Y-77151562D02*
X27552240Y-77151562D01*
X27552240Y-76778518D02*
X27552240Y-77151562D01*
X27237930Y-77233429D02*
X27224580Y-77233429D01*
X27278310Y-77221549D02*
X27237930Y-77233429D01*
X27311189Y-77198114D02*
X27278310Y-77221549D01*
X26599263Y-76945672D02*
X26599263Y-76933462D01*
X26599263Y-76954132D02*
X26599263Y-76945672D01*
X25377096Y-73850446D02*
X25379214Y-73884646D01*
X25375305Y-73847866D02*
X25377096Y-73850446D01*
X25075989Y-73411666D02*
X25375305Y-73847866D01*
X28181460Y-75044806D02*
X28178850Y-75051796D01*
X28216440Y-74995156D02*
X28181460Y-75044806D01*
X28220670Y-74991406D02*
X28216440Y-74995156D01*
X28225230Y-74987326D02*
X28220670Y-74991406D01*
X24466613Y-76855663D02*
X24455873Y-76843783D01*
X24502422Y-76923697D02*
X24466613Y-76855663D01*
X25061343Y-77038117D02*
X25061343Y-77059768D01*
X25059387Y-76973338D02*
X25061343Y-77038117D01*
X25053042Y-76915234D02*
X25059387Y-76973338D01*
X26319804Y-75072286D02*
X26234679Y-74956246D01*
X26400372Y-75144736D02*
X26319804Y-75072286D01*
X26430483Y-75164086D02*
X26400372Y-75144736D01*
X26432598Y-75166036D02*
X26430483Y-75164086D01*
X27121080Y-78225944D02*
X27220860Y-78225944D01*
X27455879Y-77058625D02*
X27455879Y-77024770D01*
X27455879Y-77092480D02*
X27455879Y-77058625D01*
X28245600Y-77658235D02*
X28224930Y-77658235D01*
X28272750Y-77658235D02*
X28245600Y-77658235D01*
X24194805Y-76925812D02*
X24198874Y-76919953D01*
X24189433Y-76933138D02*
X24194805Y-76925812D01*
X26627421Y-74098486D02*
X26715801Y-74086786D01*
X26517723Y-74132686D02*
X26627421Y-74098486D01*
X26418438Y-74186567D02*
X26517723Y-74132686D01*
X26331852Y-74257996D02*
X26418438Y-74186567D01*
X26863101Y-74098486D02*
X26972964Y-74132686D01*
X26774721Y-74086786D02*
X26863101Y-74098486D01*
X26745423Y-74086786D02*
X26774721Y-74086786D01*
X26715801Y-74086786D02*
X26745423Y-74086786D01*
X26331525Y-73159696D02*
X26328591Y-73160686D01*
X26354148Y-73133806D02*
X26331525Y-73159696D01*
X26354796Y-73130746D02*
X26354148Y-73133806D01*
X28510890Y-76927768D02*
X28489380Y-77026564D01*
X28568010Y-76838413D02*
X28510890Y-76927768D01*
X28649400Y-76787791D02*
X28568010Y-76838413D01*
X27330870Y-77323114D02*
X27387180Y-77282908D01*
X27251130Y-77346227D02*
X27330870Y-77323114D01*
X27170880Y-76896517D02*
X27211080Y-76884796D01*
X27138000Y-76919953D02*
X27170880Y-76896517D01*
X27133920Y-76925812D02*
X27138000Y-76919953D01*
X27033834Y-75184426D02*
X27031881Y-75185746D01*
X27057930Y-75166036D02*
X27033834Y-75184426D01*
X27060210Y-75164086D02*
X27057930Y-75166036D01*
X27090150Y-75144886D02*
X27060210Y-75164086D01*
X27796530Y-77233429D02*
X27776850Y-77233429D01*
X27855780Y-77201693D02*
X27796530Y-77233429D01*
X27887519Y-77134957D02*
X27855780Y-77201693D01*
X25325664Y-77987988D02*
X25344054Y-77987988D01*
X25257792Y-77807650D02*
X25262676Y-77799514D01*
X26048160Y-74683936D02*
X26048160Y-74727886D01*
X26048160Y-74616077D02*
X26048160Y-74683936D01*
X26103009Y-74412466D02*
X26048160Y-74616077D01*
X26252421Y-74190947D02*
X26103009Y-74412466D01*
X27747540Y-77895052D02*
X27591450Y-77895052D01*
X27747540Y-77836294D02*
X27747540Y-77895052D01*
X24791322Y-77674837D02*
X24853173Y-77658235D01*
X24734841Y-77713576D02*
X24791322Y-77674837D01*
X24725568Y-77724643D02*
X24734841Y-77713576D01*
X28124160Y-77339551D02*
X28124160Y-77339551D01*
X28124160Y-76778518D02*
X28124160Y-77339551D01*
X28237140Y-76778518D02*
X28124160Y-76778518D01*
X26096822Y-77944856D02*
X26096822Y-77966341D01*
X28713840Y-77873731D02*
X28714680Y-77895052D01*
X28679190Y-77797720D02*
X28713840Y-77873731D01*
X28837380Y-74939476D02*
X28837380Y-74932816D01*
X28817670Y-74959666D02*
X28837380Y-74939476D01*
X28814610Y-74960326D02*
X28817670Y-74959666D01*
X28313460Y-75053566D02*
X28814610Y-74960326D01*
X27136530Y-73133806D02*
X27136050Y-73130746D01*
X27159330Y-73159696D02*
X27136530Y-73133806D01*
X27162419Y-73160686D02*
X27159330Y-73159696D01*
X26233542Y-75157096D02*
X26327292Y-75243196D01*
X26134422Y-75019726D02*
X26233542Y-75157096D01*
X26070618Y-74860066D02*
X26134422Y-75019726D01*
X26048160Y-74727886D02*
X26070618Y-74860066D01*
X24172995Y-77145049D02*
X24167135Y-77080108D01*
X24189433Y-77184928D02*
X24172995Y-77145049D01*
X25169250Y-77740105D02*
X25257792Y-77807650D01*
X24258770Y-76771843D02*
X24179017Y-76794955D01*
X24285462Y-76771843D02*
X24258770Y-76771843D01*
X27342930Y-77080924D02*
X27336900Y-77145049D01*
X27342930Y-77059600D02*
X27342930Y-77080924D01*
X26993310Y-77058625D02*
X26993310Y-77058625D01*
X28764300Y-76884796D02*
X28812300Y-76901074D01*
X28748340Y-76884796D02*
X28764300Y-76884796D01*
X28732890Y-76884796D02*
X28748340Y-76884796D01*
X27064440Y-73239436D02*
X27113760Y-73274956D01*
X27060690Y-73235356D02*
X27064440Y-73239436D01*
X27056790Y-73230646D02*
X27060690Y-73235356D01*
X27027000Y-73171906D02*
X27056790Y-73230646D01*
X27460920Y-78183301D02*
X27523080Y-78219433D01*
X27422190Y-78128776D02*
X27460920Y-78183301D01*
X25270488Y-78006380D02*
X25325664Y-77987988D01*
X28478340Y-77873731D02*
X28513020Y-77797720D01*
X28477860Y-77895052D02*
X28478340Y-77873731D01*
X26784813Y-77221876D02*
X26725242Y-77240104D01*
X26816226Y-77181508D02*
X26784813Y-77221876D01*
X26432109Y-77944856D02*
X26432109Y-77960319D01*
X27315420Y-76925812D02*
X27320610Y-76933138D01*
X27311189Y-76919953D02*
X27315420Y-76925812D01*
X27278310Y-76896517D02*
X27311189Y-76919953D01*
X24167135Y-77058625D02*
X24167135Y-77037142D01*
X24167135Y-77080108D02*
X24167135Y-77058625D01*
X25715964Y-78225944D02*
X25828923Y-78225944D01*
X26321433Y-77771029D02*
X26336733Y-77771029D01*
X25296204Y-77773795D02*
X25346985Y-77764354D01*
X27539520Y-78105013D02*
X27515130Y-78067903D01*
X27600900Y-78126334D02*
X27539520Y-78105013D01*
X27626940Y-77658235D02*
X27599430Y-77658235D01*
X27650520Y-77658235D02*
X27626940Y-77658235D01*
X24054180Y-77024770D02*
X24054180Y-77058625D01*
X24068340Y-76923697D02*
X24054180Y-77024770D01*
X28724940Y-74875036D02*
X28724940Y-74875036D01*
X28724940Y-74487016D02*
X28724940Y-74875036D01*
X28280250Y-74404336D02*
X28724940Y-74487016D01*
X28125810Y-75473500D02*
X28127250Y-75470734D01*
X28128390Y-75507847D02*
X28125810Y-75473500D01*
X28130190Y-75510613D02*
X28128390Y-75507847D01*
X28414860Y-75925324D02*
X28130190Y-75510613D01*
X26382954Y-78103711D02*
X26336733Y-78119662D01*
X24104147Y-76855663D02*
X24068340Y-76923697D01*
X24115052Y-76843783D02*
X24104147Y-76855663D01*
X27257130Y-75157096D02*
X27356250Y-75019726D01*
X27163380Y-75243196D02*
X27257130Y-75157096D01*
X27128400Y-75266308D02*
X27163380Y-75243196D01*
X27126600Y-75267772D02*
X27128400Y-75266308D01*
X27170730Y-75072286D02*
X27090150Y-75144886D01*
X27255840Y-74956246D02*
X27170730Y-75072286D01*
X27310679Y-74821006D02*
X27255840Y-74956246D01*
X27330060Y-74708686D02*
X27310679Y-74821006D01*
X25210431Y-74404156D02*
X25218405Y-74402537D01*
X24765930Y-74487016D02*
X25210431Y-74404156D01*
X24765930Y-74875036D02*
X24765930Y-74487016D01*
X25197573Y-74955256D02*
X24765930Y-74875036D01*
X25189923Y-74281127D02*
X24676251Y-74376646D01*
X25193013Y-74280466D02*
X25189923Y-74281127D01*
X25219056Y-74257847D02*
X25193013Y-74280466D01*
X25589010Y-77255566D02*
X25507143Y-77185903D01*
X25575177Y-77271517D02*
X25589010Y-77255566D01*
X27481110Y-73425316D02*
X27530430Y-73434946D01*
X27475560Y-73423036D02*
X27481110Y-73425316D01*
X27120750Y-73277686D02*
X27475560Y-73423036D01*
X27113760Y-73274956D02*
X27120750Y-73277686D01*
X27996719Y-73887736D02*
X28007130Y-73938976D01*
X27996719Y-73882876D02*
X27996719Y-73887736D01*
X27996900Y-73875856D02*
X27996719Y-73882876D01*
X28017569Y-73804396D02*
X27996900Y-73875856D01*
X25479147Y-78028841D02*
X25479147Y-78041862D01*
X26416158Y-78062858D02*
X26382954Y-78103711D01*
X26096822Y-77966341D02*
X26098614Y-78031120D01*
X26144676Y-78169954D02*
X26198223Y-78211784D01*
X25179993Y-77725129D02*
X25169250Y-77740105D01*
X28617000Y-77764354D02*
X28679190Y-77797720D01*
X28596360Y-77764354D02*
X28617000Y-77764354D01*
X24311992Y-76771843D02*
X24285462Y-76771843D01*
X24391746Y-76794955D02*
X24311992Y-76771843D01*
X27885390Y-77279818D02*
X27887519Y-77279818D01*
X27876450Y-77290885D02*
X27885390Y-77279818D01*
X27821429Y-77329621D02*
X27876450Y-77290885D01*
X28097310Y-77664910D02*
X27984360Y-77664910D01*
X28097310Y-77724643D02*
X28097310Y-77664910D01*
X27531060Y-77799514D02*
X27564600Y-77773795D01*
X27526170Y-77807650D02*
X27531060Y-77799514D01*
X25180317Y-75053896D02*
X25206033Y-75076696D01*
X25177227Y-75053416D02*
X25180317Y-75053896D01*
X24676251Y-74960326D02*
X25177227Y-75053416D01*
X24672996Y-74959666D02*
X24676251Y-74960326D01*
X24516747Y-77092480D02*
X24516747Y-77058625D01*
X24502422Y-77194204D02*
X24516747Y-77092480D01*
X26785137Y-77006542D02*
X26766423Y-77005405D01*
X26840802Y-77022328D02*
X26785137Y-77006542D01*
X26131167Y-77738314D02*
X26117331Y-77762075D01*
X27860340Y-77842969D02*
X27860340Y-77821159D01*
X27860340Y-78225944D02*
X27860340Y-77842969D01*
X28587720Y-78126334D02*
X28515750Y-78091504D01*
X28611810Y-78126334D02*
X28587720Y-78126334D01*
X25919577Y-77771029D02*
X25938459Y-77771029D01*
X25271139Y-78105013D02*
X25246725Y-78067903D01*
X25332501Y-78126334D02*
X25271139Y-78105013D01*
X24311992Y-77346227D02*
X24391746Y-77323114D01*
X24285462Y-77346227D02*
X24311992Y-77346227D01*
X27170880Y-77221549D02*
X27138000Y-77198114D01*
X27211080Y-77233429D02*
X27170880Y-77221549D01*
X27224580Y-77233429D02*
X27211080Y-77233429D01*
X25243635Y-77908234D02*
X25186506Y-77944368D01*
X25828923Y-77724643D02*
X25828923Y-77664910D01*
X27654270Y-77764354D02*
X27720210Y-77780306D01*
X27632310Y-77764354D02*
X27654270Y-77764354D01*
X26131005Y-78152376D02*
X26136701Y-78159538D01*
X25152000Y-77997266D02*
X25140441Y-78045117D01*
X25960104Y-73434766D02*
X26010072Y-73424986D01*
X25955547Y-73434946D02*
X25960104Y-73434766D01*
X25948548Y-73434766D02*
X25955547Y-73434946D01*
X25876773Y-73414126D02*
X25948548Y-73434766D01*
X26117331Y-77762075D02*
X26104962Y-77801464D01*
X26834454Y-78057649D02*
X26832339Y-78057649D01*
X26429505Y-77883496D02*
X26432109Y-77929393D01*
X28614090Y-78232617D02*
X28641090Y-78232617D01*
X28592100Y-78232617D02*
X28614090Y-78232617D01*
X27173160Y-78057649D02*
X27170880Y-78057649D01*
X24194805Y-77192413D02*
X24189433Y-77184928D01*
X24198874Y-77198114D02*
X24194805Y-77192413D01*
X26094546Y-77701366D02*
X26085918Y-77694691D01*
X27003888Y-77833039D02*
X27121080Y-78225944D01*
X27001608Y-77833039D02*
X27003888Y-77833039D01*
X26127585Y-76882516D02*
X26083800Y-76821484D01*
X26144676Y-76945507D02*
X26127585Y-76882516D01*
X26832339Y-78057649D02*
X26724918Y-77664910D01*
X26432109Y-77724643D02*
X26421531Y-77714551D01*
X25479309Y-75495313D02*
X25469547Y-75445345D01*
X25479471Y-75499870D02*
X25479309Y-75495313D01*
X25479309Y-75506866D02*
X25479471Y-75499870D01*
X25458477Y-75578647D02*
X25479309Y-75506866D01*
X25479147Y-78041862D02*
X25472637Y-78080924D01*
X27315420Y-77192413D02*
X27311189Y-77198114D01*
X27320610Y-77184928D02*
X27315420Y-77192413D01*
X27336900Y-77145049D02*
X27320610Y-77184928D01*
X25809224Y-76778518D02*
X25696433Y-76778518D01*
X25809224Y-76838245D02*
X25809224Y-76778518D01*
X25344054Y-77987988D02*
X25479147Y-77987988D01*
X28684710Y-77674837D02*
X28618320Y-77658235D01*
X28758270Y-77722201D02*
X28684710Y-77674837D01*
X27441539Y-76923697D02*
X27405749Y-76855663D01*
X27455879Y-77024770D02*
X27441539Y-76923697D01*
X24397929Y-77145049D02*
X24381492Y-77184928D01*
X24403953Y-77080924D02*
X24397929Y-77145049D01*
X24726054Y-77043976D02*
X24726054Y-77059600D01*
X24728496Y-76997593D02*
X24726054Y-77043976D01*
X24741843Y-76941439D02*
X24728496Y-76997593D01*
X25895001Y-77674837D02*
X25839825Y-77713576D01*
X25839825Y-77713576D02*
X25831034Y-77724643D01*
X26382954Y-77786818D02*
X26416158Y-77827669D01*
X27230130Y-74344426D02*
X27284010Y-74443727D01*
X27158820Y-74257996D02*
X27230130Y-74344426D01*
X27072239Y-74186567D02*
X27158820Y-74257996D01*
X26972964Y-74132686D02*
X27072239Y-74186567D01*
X25828923Y-77664910D02*
X25715964Y-77664910D01*
X26104962Y-77801464D02*
X26098614Y-77859082D01*
X26098614Y-77859082D02*
X26096822Y-77923372D01*
X26117331Y-78128613D02*
X26131005Y-78152376D01*
X26432109Y-77929393D02*
X26432109Y-77944856D01*
X26136701Y-78159538D02*
X26144676Y-78169954D01*
X26421531Y-77714551D02*
X26365380Y-77676463D01*
X27621390Y-78126334D02*
X27600900Y-78126334D01*
X27636210Y-78126334D02*
X27621390Y-78126334D01*
X26545068Y-77437858D02*
X26432109Y-77437858D01*
X28412610Y-76771843D02*
X28385400Y-76771843D01*
X28494150Y-76808299D02*
X28412610Y-76771843D01*
X28502760Y-76814974D02*
X28494150Y-76808299D01*
X25715964Y-78225944D02*
X25715964Y-78225944D01*
X25898580Y-76056508D02*
X25932273Y-76055371D01*
X25895976Y-76058299D02*
X25898580Y-76056508D01*
X25488588Y-76337920D02*
X25895976Y-76058299D01*
X25485822Y-76339714D02*
X25488588Y-76337920D01*
X25140441Y-78045117D02*
X25140441Y-78061068D01*
X26336733Y-78119662D02*
X26321433Y-78119662D01*
X25453266Y-75586621D02*
X25458477Y-75578647D01*
X25208475Y-75943555D02*
X25453266Y-75586621D01*
X25482894Y-76217968D02*
X25208475Y-75943555D01*
X25832175Y-75978220D02*
X25482894Y-76217968D01*
X26674785Y-76772005D02*
X26612775Y-76782907D01*
X26695455Y-76772005D02*
X26674785Y-76772005D01*
X26467755Y-77262400D02*
X26566227Y-77321158D01*
X26449851Y-77245639D02*
X26467755Y-77262400D01*
X25455222Y-76336783D02*
X25485822Y-76339714D01*
X25453104Y-76334668D02*
X25455222Y-76336783D01*
X25079247Y-75960808D02*
X25453104Y-76334668D01*
X25076967Y-75958528D02*
X25079247Y-75960808D01*
X26321433Y-77771029D02*
X26321433Y-77771029D01*
X26846172Y-76930210D02*
X26915835Y-76848337D01*
X26835105Y-76922395D02*
X26846172Y-76930210D01*
X27442680Y-74683936D02*
X27442680Y-74616077D01*
X27442680Y-74727886D02*
X27442680Y-74683936D01*
X27420060Y-74860066D02*
X27442680Y-74727886D01*
X27356250Y-75019726D02*
X27420060Y-74860066D01*
X25250796Y-76987501D02*
X25285464Y-76911493D01*
X25250304Y-77008822D02*
X25250796Y-76987501D01*
X24516747Y-77024770D02*
X24502422Y-76923697D01*
X24516747Y-77058625D02*
X24516747Y-77024770D01*
X27395010Y-77274445D02*
X27405749Y-77262400D01*
X27387180Y-77282908D02*
X27395010Y-77274445D01*
X26305809Y-77771029D02*
X26321433Y-77771029D01*
X27613740Y-73414246D02*
X27621900Y-73409026D01*
X27541980Y-73434766D02*
X27613740Y-73414246D01*
X27535140Y-73435066D02*
X27541980Y-73434766D01*
X27530430Y-73434946D02*
X27535140Y-73435066D01*
X28115550Y-73847866D02*
X28414860Y-73411666D01*
X28113749Y-73850446D02*
X28115550Y-73847866D01*
X28111619Y-73884646D02*
X28113749Y-73850446D01*
X26144676Y-77720734D02*
X26136701Y-77731312D01*
X24397929Y-76973176D02*
X24403953Y-77037955D01*
X24381492Y-76933138D02*
X24397929Y-76973176D01*
X24285462Y-77233429D02*
X24271953Y-77233429D01*
X24298808Y-77233429D02*
X24285462Y-77233429D01*
X27571589Y-77895052D02*
X27512040Y-77908234D01*
X27591450Y-77895052D02*
X27571589Y-77895052D01*
X26429505Y-78006706D02*
X26416158Y-78062858D01*
X26198223Y-77678905D02*
X26144676Y-77720734D01*
X26432109Y-78225944D02*
X26545068Y-78225944D01*
X25473450Y-73804876D02*
X25468404Y-73797076D01*
X25493796Y-73875976D02*
X25473450Y-73804876D01*
X25493958Y-73882876D02*
X25493796Y-73875976D01*
X25493796Y-73887736D02*
X25493958Y-73882876D01*
X25977192Y-77658235D02*
X25956525Y-77658235D01*
X28686690Y-76894726D02*
X28732890Y-76884796D01*
X28640760Y-76925974D02*
X28686690Y-76894726D01*
X28611960Y-76980337D02*
X28640760Y-76925974D01*
X27054180Y-76843783D02*
X27043275Y-76855663D01*
X27061830Y-76835155D02*
X27054180Y-76843783D01*
X27747540Y-78176139D02*
X27747540Y-78225944D01*
X27745259Y-78176139D02*
X27747540Y-78176139D01*
X26724918Y-77664910D02*
X26605452Y-77664910D01*
X25317525Y-78232617D02*
X25338522Y-78232617D01*
X25453266Y-77667514D02*
X25382142Y-77658235D01*
X25367817Y-78126334D02*
X25353009Y-78126334D01*
X28237140Y-76838245D02*
X28237140Y-76778518D01*
X28239390Y-76838245D02*
X28237140Y-76838245D01*
X28248179Y-76827178D02*
X28239390Y-76838245D01*
X25363914Y-77764354D02*
X25385883Y-77764354D01*
X24612777Y-78225944D02*
X24612777Y-78225944D01*
X24725568Y-78225944D02*
X24612777Y-78225944D01*
X24725568Y-77891797D02*
X24725568Y-78225944D01*
X25137513Y-77060743D02*
X25137513Y-77096059D01*
X25137513Y-77026399D02*
X25137513Y-77060743D01*
X25479147Y-78225944D02*
X25591941Y-78225944D01*
X25591941Y-78225944D02*
X25591941Y-77842969D01*
X25591941Y-77842969D02*
X25591941Y-77821159D01*
X25591941Y-77821159D02*
X25574849Y-77755729D01*
X25574849Y-77755729D02*
X25527000Y-77698600D01*
X25527000Y-77698600D02*
X25453266Y-77667514D01*
D11*
X41013671Y-60946780D02*
X41204147Y-60946780D01*
X41299385Y-60994400D01*
X41394623Y-61089638D01*
X41442242Y-61280114D01*
X41442242Y-61613447D01*
X41394623Y-61803923D01*
X41299385Y-61899161D01*
X41204147Y-61946780D01*
X41013671Y-61946780D01*
X40918433Y-61899161D01*
X40823195Y-61803923D01*
X40775576Y-61613447D01*
X40775576Y-61280114D01*
X40823195Y-61089638D01*
X40918433Y-60994400D01*
X41013671Y-60946780D01*
X41727957Y-60946780D02*
X42299385Y-60946780D01*
X42013671Y-61946780D02*
X42013671Y-60946780D01*
X42632719Y-61946780D02*
X42632719Y-60946780D01*
X42870814Y-60946780D01*
X43013671Y-60994400D01*
X43108909Y-61089638D01*
X43156528Y-61184876D01*
X43204147Y-61375352D01*
X43204147Y-61518209D01*
X43156528Y-61708685D01*
X43108909Y-61803923D01*
X43013671Y-61899161D01*
X42870814Y-61946780D01*
X42632719Y-61946780D01*
X44156528Y-60994400D02*
X44061290Y-60946780D01*
X43918433Y-60946780D01*
X43775576Y-60994400D01*
X43680338Y-61089638D01*
X43632719Y-61184876D01*
X43585100Y-61375352D01*
X43585100Y-61518209D01*
X43632719Y-61708685D01*
X43680338Y-61803923D01*
X43775576Y-61899161D01*
X43918433Y-61946780D01*
X44013671Y-61946780D01*
X44156528Y-61899161D01*
X44204147Y-61851542D01*
X44204147Y-61518209D01*
X44013671Y-61518209D01*
X45251766Y-60946780D02*
X45585100Y-61946780D01*
X45918433Y-60946780D01*
X46775576Y-61946780D02*
X46204147Y-61946780D01*
X46489861Y-61946780D02*
X46489861Y-60946780D01*
X46394623Y-61089638D01*
X46299385Y-61184876D01*
X46204147Y-61232495D01*
X40823195Y-63596780D02*
X40823195Y-62596780D01*
X41156528Y-63311066D01*
X41489861Y-62596780D01*
X41489861Y-63596780D01*
X42394623Y-63596780D02*
X42394623Y-63072971D01*
X42347004Y-62977733D01*
X42251766Y-62930114D01*
X42061290Y-62930114D01*
X41966052Y-62977733D01*
X42394623Y-63549161D02*
X42299385Y-63596780D01*
X42061290Y-63596780D01*
X41966052Y-63549161D01*
X41918433Y-63453923D01*
X41918433Y-63358685D01*
X41966052Y-63263447D01*
X42061290Y-63215828D01*
X42299385Y-63215828D01*
X42394623Y-63168209D01*
X43299385Y-63596780D02*
X43299385Y-62596780D01*
X43299385Y-63549161D02*
X43204147Y-63596780D01*
X43013671Y-63596780D01*
X42918433Y-63549161D01*
X42870814Y-63501542D01*
X42823195Y-63406304D01*
X42823195Y-63120590D01*
X42870814Y-63025352D01*
X42918433Y-62977733D01*
X43013671Y-62930114D01*
X43204147Y-62930114D01*
X43299385Y-62977733D01*
X44156528Y-63549161D02*
X44061290Y-63596780D01*
X43870814Y-63596780D01*
X43775576Y-63549161D01*
X43727957Y-63453923D01*
X43727957Y-63072971D01*
X43775576Y-62977733D01*
X43870814Y-62930114D01*
X44061290Y-62930114D01*
X44156528Y-62977733D01*
X44204147Y-63072971D01*
X44204147Y-63168209D01*
X43727957Y-63263447D01*
X45394623Y-63596780D02*
X45394623Y-62596780D01*
X45394623Y-62977733D02*
X45489861Y-62930114D01*
X45680338Y-62930114D01*
X45775576Y-62977733D01*
X45823195Y-63025352D01*
X45870814Y-63120590D01*
X45870814Y-63406304D01*
X45823195Y-63501542D01*
X45775576Y-63549161D01*
X45680338Y-63596780D01*
X45489861Y-63596780D01*
X45394623Y-63549161D01*
X46204147Y-62930114D02*
X46442242Y-63596780D01*
X46680338Y-62930114D02*
X46442242Y-63596780D01*
X46347004Y-63834876D01*
X46299385Y-63882495D01*
X46204147Y-63930114D01*
X47823195Y-63596780D02*
X47823195Y-62596780D01*
X47823195Y-63072971D02*
X48394623Y-63072971D01*
X48394623Y-63596780D02*
X48394623Y-62596780D01*
X49251766Y-63549161D02*
X49156528Y-63596780D01*
X48966052Y-63596780D01*
X48870814Y-63549161D01*
X48823195Y-63453923D01*
X48823195Y-63072971D01*
X48870814Y-62977733D01*
X48966052Y-62930114D01*
X49156528Y-62930114D01*
X49251766Y-62977733D01*
X49299385Y-63072971D01*
X49299385Y-63168209D01*
X48823195Y-63263447D01*
X49727957Y-62930114D02*
X49727957Y-63596780D01*
X49727957Y-63025352D02*
X49775576Y-62977733D01*
X49870814Y-62930114D01*
X50013671Y-62930114D01*
X50108909Y-62977733D01*
X50156528Y-63072971D01*
X50156528Y-63596780D01*
X50632719Y-63596780D02*
X50632719Y-62930114D01*
X50632719Y-63120590D02*
X50680338Y-63025352D01*
X50727957Y-62977733D01*
X50823195Y-62930114D01*
X50918433Y-62930114D01*
X51156528Y-62930114D02*
X51394623Y-63596780D01*
X51632719Y-62930114D02*
X51394623Y-63596780D01*
X51299385Y-63834876D01*
X51251766Y-63882495D01*
X51156528Y-63930114D01*
X53251766Y-63596780D02*
X52775576Y-63596780D01*
X52775576Y-62596780D01*
X53727957Y-63596780D02*
X53632719Y-63549161D01*
X53585100Y-63501542D01*
X53537480Y-63406304D01*
X53537480Y-63120590D01*
X53585100Y-63025352D01*
X53632719Y-62977733D01*
X53727957Y-62930114D01*
X53870814Y-62930114D01*
X53966052Y-62977733D01*
X54013671Y-63025352D01*
X54061290Y-63120590D01*
X54061290Y-63406304D01*
X54013671Y-63501542D01*
X53966052Y-63549161D01*
X53870814Y-63596780D01*
X53727957Y-63596780D01*
X40823195Y-64246780D02*
X40823195Y-65056304D01*
X40870814Y-65151542D01*
X40918433Y-65199161D01*
X41013671Y-65246780D01*
X41204147Y-65246780D01*
X41299385Y-65199161D01*
X41347004Y-65151542D01*
X41394623Y-65056304D01*
X41394623Y-64246780D01*
X41870814Y-64580114D02*
X41870814Y-65246780D01*
X41870814Y-64675352D02*
X41918433Y-64627733D01*
X42013671Y-64580114D01*
X42156528Y-64580114D01*
X42251766Y-64627733D01*
X42299385Y-64722971D01*
X42299385Y-65246780D01*
X43204147Y-65246780D02*
X43204147Y-64246780D01*
X43204147Y-65199161D02*
X43108909Y-65246780D01*
X42918433Y-65246780D01*
X42823195Y-65199161D01*
X42775576Y-65151542D01*
X42727957Y-65056304D01*
X42727957Y-64770590D01*
X42775576Y-64675352D01*
X42823195Y-64627733D01*
X42918433Y-64580114D01*
X43108909Y-64580114D01*
X43204147Y-64627733D01*
X44061290Y-65199161D02*
X43966052Y-65246780D01*
X43775576Y-65246780D01*
X43680338Y-65199161D01*
X43632719Y-65103923D01*
X43632719Y-64722971D01*
X43680338Y-64627733D01*
X43775576Y-64580114D01*
X43966052Y-64580114D01*
X44061290Y-64627733D01*
X44108909Y-64722971D01*
X44108909Y-64818209D01*
X43632719Y-64913447D01*
X44537480Y-65246780D02*
X44537480Y-64580114D01*
X44537480Y-64770590D02*
X44585100Y-64675352D01*
X44632719Y-64627733D01*
X44727957Y-64580114D01*
X44823195Y-64580114D01*
X45870814Y-65199161D02*
X46013671Y-65246780D01*
X46251766Y-65246780D01*
X46347004Y-65199161D01*
X46394623Y-65151542D01*
X46442242Y-65056304D01*
X46442242Y-64961066D01*
X46394623Y-64865828D01*
X46347004Y-64818209D01*
X46251766Y-64770590D01*
X46061290Y-64722971D01*
X45966052Y-64675352D01*
X45918433Y-64627733D01*
X45870814Y-64532495D01*
X45870814Y-64437257D01*
X45918433Y-64342019D01*
X45966052Y-64294400D01*
X46061290Y-64246780D01*
X46299385Y-64246780D01*
X46442242Y-64294400D01*
X47013671Y-65246780D02*
X46918433Y-65199161D01*
X46870814Y-65151542D01*
X46823195Y-65056304D01*
X46823195Y-64770590D01*
X46870814Y-64675352D01*
X46918433Y-64627733D01*
X47013671Y-64580114D01*
X47156528Y-64580114D01*
X47251766Y-64627733D01*
X47299385Y-64675352D01*
X47347004Y-64770590D01*
X47347004Y-65056304D01*
X47299385Y-65151542D01*
X47251766Y-65199161D01*
X47156528Y-65246780D01*
X47013671Y-65246780D01*
X47918433Y-65246780D02*
X47823195Y-65199161D01*
X47775576Y-65103923D01*
X47775576Y-64246780D01*
X48727957Y-65246780D02*
X48727957Y-64246780D01*
X48727957Y-65199161D02*
X48632719Y-65246780D01*
X48442242Y-65246780D01*
X48347004Y-65199161D01*
X48299385Y-65151542D01*
X48251766Y-65056304D01*
X48251766Y-64770590D01*
X48299385Y-64675352D01*
X48347004Y-64627733D01*
X48442242Y-64580114D01*
X48632719Y-64580114D01*
X48727957Y-64627733D01*
X49585100Y-65199161D02*
X49489861Y-65246780D01*
X49299385Y-65246780D01*
X49204147Y-65199161D01*
X49156528Y-65103923D01*
X49156528Y-64722971D01*
X49204147Y-64627733D01*
X49299385Y-64580114D01*
X49489861Y-64580114D01*
X49585100Y-64627733D01*
X49632719Y-64722971D01*
X49632719Y-64818209D01*
X49156528Y-64913447D01*
X50061290Y-65246780D02*
X50061290Y-64580114D01*
X50061290Y-64770590D02*
X50108909Y-64675352D01*
X50156528Y-64627733D01*
X50251766Y-64580114D01*
X50347004Y-64580114D01*
X50680338Y-64580114D02*
X50680338Y-65580114D01*
X50680338Y-64627733D02*
X50775576Y-64580114D01*
X50966052Y-64580114D01*
X51061290Y-64627733D01*
X51108909Y-64675352D01*
X51156528Y-64770590D01*
X51156528Y-65056304D01*
X51108909Y-65151542D01*
X51061290Y-65199161D01*
X50966052Y-65246780D01*
X50775576Y-65246780D01*
X50680338Y-65199161D01*
X52013671Y-65246780D02*
X52013671Y-64722971D01*
X51966052Y-64627733D01*
X51870814Y-64580114D01*
X51680338Y-64580114D01*
X51585100Y-64627733D01*
X52013671Y-65199161D02*
X51918433Y-65246780D01*
X51680338Y-65246780D01*
X51585100Y-65199161D01*
X51537480Y-65103923D01*
X51537480Y-65008685D01*
X51585100Y-64913447D01*
X51680338Y-64865828D01*
X51918433Y-64865828D01*
X52013671Y-64818209D01*
X52918433Y-65246780D02*
X52918433Y-64246780D01*
X52918433Y-65199161D02*
X52823195Y-65246780D01*
X52632719Y-65246780D01*
X52537480Y-65199161D01*
X52489861Y-65151542D01*
X52442242Y-65056304D01*
X52442242Y-64770590D01*
X52489861Y-64675352D01*
X52537480Y-64627733D01*
X52632719Y-64580114D01*
X52823195Y-64580114D01*
X52918433Y-64627733D01*
X54156528Y-65246780D02*
X54156528Y-64246780D01*
X54156528Y-64722971D02*
X54727957Y-64722971D01*
X54727957Y-65246780D02*
X54727957Y-64246780D01*
X55632719Y-65246780D02*
X55632719Y-64722971D01*
X55585100Y-64627733D01*
X55489861Y-64580114D01*
X55299385Y-64580114D01*
X55204147Y-64627733D01*
X55632719Y-65199161D02*
X55537480Y-65246780D01*
X55299385Y-65246780D01*
X55204147Y-65199161D01*
X55156528Y-65103923D01*
X55156528Y-65008685D01*
X55204147Y-64913447D01*
X55299385Y-64865828D01*
X55537480Y-64865828D01*
X55632719Y-64818209D01*
X56108909Y-65246780D02*
X56108909Y-64580114D01*
X56108909Y-64770590D02*
X56156528Y-64675352D01*
X56204147Y-64627733D01*
X56299385Y-64580114D01*
X56394623Y-64580114D01*
X57156528Y-65246780D02*
X57156528Y-64246780D01*
X57156528Y-65199161D02*
X57061290Y-65246780D01*
X56870814Y-65246780D01*
X56775576Y-65199161D01*
X56727957Y-65151542D01*
X56680338Y-65056304D01*
X56680338Y-64770590D01*
X56727957Y-64675352D01*
X56775576Y-64627733D01*
X56870814Y-64580114D01*
X57061290Y-64580114D01*
X57156528Y-64627733D01*
X57537480Y-64580114D02*
X57727957Y-65246780D01*
X57918433Y-64770590D01*
X58108909Y-65246780D01*
X58299385Y-64580114D01*
X59108909Y-65246780D02*
X59108909Y-64722971D01*
X59061290Y-64627733D01*
X58966052Y-64580114D01*
X58775576Y-64580114D01*
X58680338Y-64627733D01*
X59108909Y-65199161D02*
X59013671Y-65246780D01*
X58775576Y-65246780D01*
X58680338Y-65199161D01*
X58632719Y-65103923D01*
X58632719Y-65008685D01*
X58680338Y-64913447D01*
X58775576Y-64865828D01*
X59013671Y-64865828D01*
X59108909Y-64818209D01*
X59585100Y-65246780D02*
X59585100Y-64580114D01*
X59585100Y-64770590D02*
X59632719Y-64675352D01*
X59680338Y-64627733D01*
X59775576Y-64580114D01*
X59870814Y-64580114D01*
X60585100Y-65199161D02*
X60489861Y-65246780D01*
X60299385Y-65246780D01*
X60204147Y-65199161D01*
X60156528Y-65103923D01*
X60156528Y-64722971D01*
X60204147Y-64627733D01*
X60299385Y-64580114D01*
X60489861Y-64580114D01*
X60585100Y-64627733D01*
X60632719Y-64722971D01*
X60632719Y-64818209D01*
X60156528Y-64913447D01*
X62299385Y-65246780D02*
X61823195Y-65246780D01*
X61823195Y-64246780D01*
X62632719Y-65246780D02*
X62632719Y-64580114D01*
X62632719Y-64246780D02*
X62585100Y-64294400D01*
X62632719Y-64342019D01*
X62680338Y-64294400D01*
X62632719Y-64246780D01*
X62632719Y-64342019D01*
X63537480Y-65199161D02*
X63442242Y-65246780D01*
X63251766Y-65246780D01*
X63156528Y-65199161D01*
X63108909Y-65151542D01*
X63061290Y-65056304D01*
X63061290Y-64770590D01*
X63108909Y-64675352D01*
X63156528Y-64627733D01*
X63251766Y-64580114D01*
X63442242Y-64580114D01*
X63537480Y-64627733D01*
X64347004Y-65199161D02*
X64251766Y-65246780D01*
X64061290Y-65246780D01*
X63966052Y-65199161D01*
X63918433Y-65103923D01*
X63918433Y-64722971D01*
X63966052Y-64627733D01*
X64061290Y-64580114D01*
X64251766Y-64580114D01*
X64347004Y-64627733D01*
X64394623Y-64722971D01*
X64394623Y-64818209D01*
X63918433Y-64913447D01*
X64823195Y-64580114D02*
X64823195Y-65246780D01*
X64823195Y-64675352D02*
X64870814Y-64627733D01*
X64966052Y-64580114D01*
X65108909Y-64580114D01*
X65204147Y-64627733D01*
X65251766Y-64722971D01*
X65251766Y-65246780D01*
X65680338Y-65199161D02*
X65775576Y-65246780D01*
X65966052Y-65246780D01*
X66061290Y-65199161D01*
X66108909Y-65103923D01*
X66108909Y-65056304D01*
X66061290Y-64961066D01*
X65966052Y-64913447D01*
X65823195Y-64913447D01*
X65727957Y-64865828D01*
X65680338Y-64770590D01*
X65680338Y-64722971D01*
X65727957Y-64627733D01*
X65823195Y-64580114D01*
X65966052Y-64580114D01*
X66061290Y-64627733D01*
X66918433Y-65199161D02*
X66823195Y-65246780D01*
X66632719Y-65246780D01*
X66537480Y-65199161D01*
X66489861Y-65103923D01*
X66489861Y-64722971D01*
X66537480Y-64627733D01*
X66632719Y-64580114D01*
X66823195Y-64580114D01*
X66918433Y-64627733D01*
X66966052Y-64722971D01*
X66966052Y-64818209D01*
X66489861Y-64913447D01*
X68013671Y-64246780D02*
X68347004Y-65246780D01*
X68680338Y-64246780D01*
X68966052Y-64342019D02*
X69013671Y-64294400D01*
X69108909Y-64246780D01*
X69347004Y-64246780D01*
X69442242Y-64294400D01*
X69489861Y-64342019D01*
X69537480Y-64437257D01*
X69537480Y-64532495D01*
X69489861Y-64675352D01*
X68918433Y-65246780D01*
X69537480Y-65246780D01*
X69966052Y-65151542D02*
X70013671Y-65199161D01*
X69966052Y-65246780D01*
X69918433Y-65199161D01*
X69966052Y-65151542D01*
X69966052Y-65246780D01*
X70632719Y-64246780D02*
X70727957Y-64246780D01*
X70823195Y-64294400D01*
X70870814Y-64342019D01*
X70918433Y-64437257D01*
X70966052Y-64627733D01*
X70966052Y-64865828D01*
X70918433Y-65056304D01*
X70870814Y-65151542D01*
X70823195Y-65199161D01*
X70727957Y-65246780D01*
X70632719Y-65246780D01*
X70537480Y-65199161D01*
X70489861Y-65151542D01*
X70442242Y-65056304D01*
X70394623Y-64865828D01*
X70394623Y-64627733D01*
X70442242Y-64437257D01*
X70489861Y-64342019D01*
X70537480Y-64294400D01*
X70632719Y-64246780D01*
D12*
X63100000Y-62865000D02*
G75*
G03X63100000Y-62865000I-1251000J0D01*
G01*
X36938000Y-57404000D02*
G75*
G03X36938000Y-57404000I-1251000J0D01*
G01*
X47098000Y-75565000D02*
G75*
G03X47098000Y-75565000I-1251000J0D01*
G01*
X20682000Y-84582000D02*
G75*
G03X20682000Y-84582000I-1251000J0D01*
G01*
X25889000Y-84455000D02*
G75*
G03X25889000Y-84455000I-1251000J0D01*
G01*
X30461000Y-84455000D02*
G75*
G03X30461000Y-84455000I-1251000J0D01*
G01*
X35541000Y-84455000D02*
G75*
G03X35541000Y-84455000I-1251000J0D01*
G01*
X39986000Y-84455000D02*
G75*
G03X39986000Y-84455000I-1251000J0D01*
G01*
X45066000Y-84455000D02*
G75*
G03X45066000Y-84455000I-1251000J0D01*
G01*
X49003000Y-84455000D02*
G75*
G03X49003000Y-84455000I-1251000J0D01*
G01*
X54464000Y-84582000D02*
G75*
G03X54464000Y-84582000I-1251000J0D01*
G01*
X57893000Y-84582000D02*
G75*
G03X57893000Y-84582000I-1251000J0D01*
G01*
X63100000Y-84582000D02*
G75*
G03X63100000Y-84582000I-1251000J0D01*
G01*
X66656000Y-84582000D02*
G75*
G03X66656000Y-84582000I-1251000J0D01*
G01*
X71863000Y-84582000D02*
G75*
G03X71863000Y-84582000I-1251000J0D01*
G01*
X75546000Y-84709000D02*
G75*
G03X75546000Y-84709000I-1251000J0D01*
G01*
X80753000Y-84709000D02*
G75*
G03X80753000Y-84709000I-1251000J0D01*
G01*
X84690000Y-84328000D02*
G75*
G03X84690000Y-84328000I-1251000J0D01*
G01*
X92310000Y-84328000D02*
G75*
G03X92310000Y-84328000I-1251000J0D01*
G01*
X92564000Y-68707000D02*
G75*
G03X92564000Y-68707000I-1251000J0D01*
G01*
X100057000Y-68707000D02*
G75*
G03X100057000Y-68707000I-1251000J0D01*
G01*
X23193700Y-67716400D02*
X23193700Y-66386400D01*
X23193700Y-66386400D02*
X24523700Y-66386400D01*
X23193700Y-68986400D02*
X25793700Y-68986400D01*
X25793700Y-68986400D02*
X25793700Y-66386400D01*
X25793700Y-66386400D02*
X74113700Y-66386400D01*
X74113700Y-71586400D02*
X74113700Y-66386400D01*
X23193700Y-71586400D02*
X74113700Y-71586400D01*
X23193700Y-71586400D02*
X23193700Y-68986400D01*
D11*
X60515666Y-65567380D02*
X60182333Y-65091190D01*
X59944238Y-65567380D02*
X59944238Y-64567380D01*
X60325190Y-64567380D01*
X60420428Y-64615000D01*
X60468047Y-64662619D01*
X60515666Y-64757857D01*
X60515666Y-64900714D01*
X60468047Y-64995952D01*
X60420428Y-65043571D01*
X60325190Y-65091190D01*
X59944238Y-65091190D01*
X60944238Y-65043571D02*
X61277571Y-65043571D01*
X61420428Y-65567380D02*
X60944238Y-65567380D01*
X60944238Y-64567380D01*
X61420428Y-64567380D01*
X62182333Y-65043571D02*
X61849000Y-65043571D01*
X61849000Y-65567380D02*
X61849000Y-64567380D01*
X62325190Y-64567380D01*
X62849000Y-64567380D02*
X62849000Y-64805476D01*
X62610904Y-64710238D02*
X62849000Y-64805476D01*
X63087095Y-64710238D01*
X62706142Y-64995952D02*
X62849000Y-64805476D01*
X62991857Y-64995952D01*
X63610904Y-64567380D02*
X63610904Y-64805476D01*
X63372809Y-64710238D02*
X63610904Y-64805476D01*
X63849000Y-64710238D01*
X63468047Y-64995952D02*
X63610904Y-64805476D01*
X63753761Y-64995952D01*
X34353666Y-60106380D02*
X34020333Y-59630190D01*
X33782238Y-60106380D02*
X33782238Y-59106380D01*
X34163190Y-59106380D01*
X34258428Y-59154000D01*
X34306047Y-59201619D01*
X34353666Y-59296857D01*
X34353666Y-59439714D01*
X34306047Y-59534952D01*
X34258428Y-59582571D01*
X34163190Y-59630190D01*
X33782238Y-59630190D01*
X34782238Y-59582571D02*
X35115571Y-59582571D01*
X35258428Y-60106380D02*
X34782238Y-60106380D01*
X34782238Y-59106380D01*
X35258428Y-59106380D01*
X36020333Y-59582571D02*
X35687000Y-59582571D01*
X35687000Y-60106380D02*
X35687000Y-59106380D01*
X36163190Y-59106380D01*
X36687000Y-59106380D02*
X36687000Y-59344476D01*
X36448904Y-59249238D02*
X36687000Y-59344476D01*
X36925095Y-59249238D01*
X36544142Y-59534952D02*
X36687000Y-59344476D01*
X36829857Y-59534952D01*
X37448904Y-59106380D02*
X37448904Y-59344476D01*
X37210809Y-59249238D02*
X37448904Y-59344476D01*
X37687000Y-59249238D01*
X37306047Y-59534952D02*
X37448904Y-59344476D01*
X37591761Y-59534952D01*
X44513666Y-78267380D02*
X44180333Y-77791190D01*
X43942238Y-78267380D02*
X43942238Y-77267380D01*
X44323190Y-77267380D01*
X44418428Y-77315000D01*
X44466047Y-77362619D01*
X44513666Y-77457857D01*
X44513666Y-77600714D01*
X44466047Y-77695952D01*
X44418428Y-77743571D01*
X44323190Y-77791190D01*
X43942238Y-77791190D01*
X44942238Y-77743571D02*
X45275571Y-77743571D01*
X45418428Y-78267380D02*
X44942238Y-78267380D01*
X44942238Y-77267380D01*
X45418428Y-77267380D01*
X46180333Y-77743571D02*
X45847000Y-77743571D01*
X45847000Y-78267380D02*
X45847000Y-77267380D01*
X46323190Y-77267380D01*
X46847000Y-77267380D02*
X46847000Y-77505476D01*
X46608904Y-77410238D02*
X46847000Y-77505476D01*
X47085095Y-77410238D01*
X46704142Y-77695952D02*
X46847000Y-77505476D01*
X46989857Y-77695952D01*
X47608904Y-77267380D02*
X47608904Y-77505476D01*
X47370809Y-77410238D02*
X47608904Y-77505476D01*
X47847000Y-77410238D01*
X47466047Y-77695952D02*
X47608904Y-77505476D01*
X47751761Y-77695952D01*
X18097666Y-87284380D02*
X17764333Y-86808190D01*
X17526238Y-87284380D02*
X17526238Y-86284380D01*
X17907190Y-86284380D01*
X18002428Y-86332000D01*
X18050047Y-86379619D01*
X18097666Y-86474857D01*
X18097666Y-86617714D01*
X18050047Y-86712952D01*
X18002428Y-86760571D01*
X17907190Y-86808190D01*
X17526238Y-86808190D01*
X18526238Y-86760571D02*
X18859571Y-86760571D01*
X19002428Y-87284380D02*
X18526238Y-87284380D01*
X18526238Y-86284380D01*
X19002428Y-86284380D01*
X19764333Y-86760571D02*
X19431000Y-86760571D01*
X19431000Y-87284380D02*
X19431000Y-86284380D01*
X19907190Y-86284380D01*
X20431000Y-86284380D02*
X20431000Y-86522476D01*
X20192904Y-86427238D02*
X20431000Y-86522476D01*
X20669095Y-86427238D01*
X20288142Y-86712952D02*
X20431000Y-86522476D01*
X20573857Y-86712952D01*
X21192904Y-86284380D02*
X21192904Y-86522476D01*
X20954809Y-86427238D02*
X21192904Y-86522476D01*
X21431000Y-86427238D01*
X21050047Y-86712952D02*
X21192904Y-86522476D01*
X21335761Y-86712952D01*
X23304666Y-87157380D02*
X22971333Y-86681190D01*
X22733238Y-87157380D02*
X22733238Y-86157380D01*
X23114190Y-86157380D01*
X23209428Y-86205000D01*
X23257047Y-86252619D01*
X23304666Y-86347857D01*
X23304666Y-86490714D01*
X23257047Y-86585952D01*
X23209428Y-86633571D01*
X23114190Y-86681190D01*
X22733238Y-86681190D01*
X23733238Y-86633571D02*
X24066571Y-86633571D01*
X24209428Y-87157380D02*
X23733238Y-87157380D01*
X23733238Y-86157380D01*
X24209428Y-86157380D01*
X24971333Y-86633571D02*
X24638000Y-86633571D01*
X24638000Y-87157380D02*
X24638000Y-86157380D01*
X25114190Y-86157380D01*
X25638000Y-86157380D02*
X25638000Y-86395476D01*
X25399904Y-86300238D02*
X25638000Y-86395476D01*
X25876095Y-86300238D01*
X25495142Y-86585952D02*
X25638000Y-86395476D01*
X25780857Y-86585952D01*
X26399904Y-86157380D02*
X26399904Y-86395476D01*
X26161809Y-86300238D02*
X26399904Y-86395476D01*
X26638000Y-86300238D01*
X26257047Y-86585952D02*
X26399904Y-86395476D01*
X26542761Y-86585952D01*
X27876666Y-87157380D02*
X27543333Y-86681190D01*
X27305238Y-87157380D02*
X27305238Y-86157380D01*
X27686190Y-86157380D01*
X27781428Y-86205000D01*
X27829047Y-86252619D01*
X27876666Y-86347857D01*
X27876666Y-86490714D01*
X27829047Y-86585952D01*
X27781428Y-86633571D01*
X27686190Y-86681190D01*
X27305238Y-86681190D01*
X28305238Y-86633571D02*
X28638571Y-86633571D01*
X28781428Y-87157380D02*
X28305238Y-87157380D01*
X28305238Y-86157380D01*
X28781428Y-86157380D01*
X29543333Y-86633571D02*
X29210000Y-86633571D01*
X29210000Y-87157380D02*
X29210000Y-86157380D01*
X29686190Y-86157380D01*
X30210000Y-86157380D02*
X30210000Y-86395476D01*
X29971904Y-86300238D02*
X30210000Y-86395476D01*
X30448095Y-86300238D01*
X30067142Y-86585952D02*
X30210000Y-86395476D01*
X30352857Y-86585952D01*
X30971904Y-86157380D02*
X30971904Y-86395476D01*
X30733809Y-86300238D02*
X30971904Y-86395476D01*
X31210000Y-86300238D01*
X30829047Y-86585952D02*
X30971904Y-86395476D01*
X31114761Y-86585952D01*
X32956666Y-87157380D02*
X32623333Y-86681190D01*
X32385238Y-87157380D02*
X32385238Y-86157380D01*
X32766190Y-86157380D01*
X32861428Y-86205000D01*
X32909047Y-86252619D01*
X32956666Y-86347857D01*
X32956666Y-86490714D01*
X32909047Y-86585952D01*
X32861428Y-86633571D01*
X32766190Y-86681190D01*
X32385238Y-86681190D01*
X33385238Y-86633571D02*
X33718571Y-86633571D01*
X33861428Y-87157380D02*
X33385238Y-87157380D01*
X33385238Y-86157380D01*
X33861428Y-86157380D01*
X34623333Y-86633571D02*
X34290000Y-86633571D01*
X34290000Y-87157380D02*
X34290000Y-86157380D01*
X34766190Y-86157380D01*
X35290000Y-86157380D02*
X35290000Y-86395476D01*
X35051904Y-86300238D02*
X35290000Y-86395476D01*
X35528095Y-86300238D01*
X35147142Y-86585952D02*
X35290000Y-86395476D01*
X35432857Y-86585952D01*
X36051904Y-86157380D02*
X36051904Y-86395476D01*
X35813809Y-86300238D02*
X36051904Y-86395476D01*
X36290000Y-86300238D01*
X35909047Y-86585952D02*
X36051904Y-86395476D01*
X36194761Y-86585952D01*
X37401666Y-87157380D02*
X37068333Y-86681190D01*
X36830238Y-87157380D02*
X36830238Y-86157380D01*
X37211190Y-86157380D01*
X37306428Y-86205000D01*
X37354047Y-86252619D01*
X37401666Y-86347857D01*
X37401666Y-86490714D01*
X37354047Y-86585952D01*
X37306428Y-86633571D01*
X37211190Y-86681190D01*
X36830238Y-86681190D01*
X37830238Y-86633571D02*
X38163571Y-86633571D01*
X38306428Y-87157380D02*
X37830238Y-87157380D01*
X37830238Y-86157380D01*
X38306428Y-86157380D01*
X39068333Y-86633571D02*
X38735000Y-86633571D01*
X38735000Y-87157380D02*
X38735000Y-86157380D01*
X39211190Y-86157380D01*
X39735000Y-86157380D02*
X39735000Y-86395476D01*
X39496904Y-86300238D02*
X39735000Y-86395476D01*
X39973095Y-86300238D01*
X39592142Y-86585952D02*
X39735000Y-86395476D01*
X39877857Y-86585952D01*
X40496904Y-86157380D02*
X40496904Y-86395476D01*
X40258809Y-86300238D02*
X40496904Y-86395476D01*
X40735000Y-86300238D01*
X40354047Y-86585952D02*
X40496904Y-86395476D01*
X40639761Y-86585952D01*
X42481666Y-87157380D02*
X42148333Y-86681190D01*
X41910238Y-87157380D02*
X41910238Y-86157380D01*
X42291190Y-86157380D01*
X42386428Y-86205000D01*
X42434047Y-86252619D01*
X42481666Y-86347857D01*
X42481666Y-86490714D01*
X42434047Y-86585952D01*
X42386428Y-86633571D01*
X42291190Y-86681190D01*
X41910238Y-86681190D01*
X42910238Y-86633571D02*
X43243571Y-86633571D01*
X43386428Y-87157380D02*
X42910238Y-87157380D01*
X42910238Y-86157380D01*
X43386428Y-86157380D01*
X44148333Y-86633571D02*
X43815000Y-86633571D01*
X43815000Y-87157380D02*
X43815000Y-86157380D01*
X44291190Y-86157380D01*
X44815000Y-86157380D02*
X44815000Y-86395476D01*
X44576904Y-86300238D02*
X44815000Y-86395476D01*
X45053095Y-86300238D01*
X44672142Y-86585952D02*
X44815000Y-86395476D01*
X44957857Y-86585952D01*
X45576904Y-86157380D02*
X45576904Y-86395476D01*
X45338809Y-86300238D02*
X45576904Y-86395476D01*
X45815000Y-86300238D01*
X45434047Y-86585952D02*
X45576904Y-86395476D01*
X45719761Y-86585952D01*
X46418666Y-87157380D02*
X46085333Y-86681190D01*
X45847238Y-87157380D02*
X45847238Y-86157380D01*
X46228190Y-86157380D01*
X46323428Y-86205000D01*
X46371047Y-86252619D01*
X46418666Y-86347857D01*
X46418666Y-86490714D01*
X46371047Y-86585952D01*
X46323428Y-86633571D01*
X46228190Y-86681190D01*
X45847238Y-86681190D01*
X46847238Y-86633571D02*
X47180571Y-86633571D01*
X47323428Y-87157380D02*
X46847238Y-87157380D01*
X46847238Y-86157380D01*
X47323428Y-86157380D01*
X48085333Y-86633571D02*
X47752000Y-86633571D01*
X47752000Y-87157380D02*
X47752000Y-86157380D01*
X48228190Y-86157380D01*
X48752000Y-86157380D02*
X48752000Y-86395476D01*
X48513904Y-86300238D02*
X48752000Y-86395476D01*
X48990095Y-86300238D01*
X48609142Y-86585952D02*
X48752000Y-86395476D01*
X48894857Y-86585952D01*
X49513904Y-86157380D02*
X49513904Y-86395476D01*
X49275809Y-86300238D02*
X49513904Y-86395476D01*
X49752000Y-86300238D01*
X49371047Y-86585952D02*
X49513904Y-86395476D01*
X49656761Y-86585952D01*
X51879666Y-87284380D02*
X51546333Y-86808190D01*
X51308238Y-87284380D02*
X51308238Y-86284380D01*
X51689190Y-86284380D01*
X51784428Y-86332000D01*
X51832047Y-86379619D01*
X51879666Y-86474857D01*
X51879666Y-86617714D01*
X51832047Y-86712952D01*
X51784428Y-86760571D01*
X51689190Y-86808190D01*
X51308238Y-86808190D01*
X52308238Y-86760571D02*
X52641571Y-86760571D01*
X52784428Y-87284380D02*
X52308238Y-87284380D01*
X52308238Y-86284380D01*
X52784428Y-86284380D01*
X53546333Y-86760571D02*
X53213000Y-86760571D01*
X53213000Y-87284380D02*
X53213000Y-86284380D01*
X53689190Y-86284380D01*
X54213000Y-86284380D02*
X54213000Y-86522476D01*
X53974904Y-86427238D02*
X54213000Y-86522476D01*
X54451095Y-86427238D01*
X54070142Y-86712952D02*
X54213000Y-86522476D01*
X54355857Y-86712952D01*
X54974904Y-86284380D02*
X54974904Y-86522476D01*
X54736809Y-86427238D02*
X54974904Y-86522476D01*
X55213000Y-86427238D01*
X54832047Y-86712952D02*
X54974904Y-86522476D01*
X55117761Y-86712952D01*
X55308666Y-87284380D02*
X54975333Y-86808190D01*
X54737238Y-87284380D02*
X54737238Y-86284380D01*
X55118190Y-86284380D01*
X55213428Y-86332000D01*
X55261047Y-86379619D01*
X55308666Y-86474857D01*
X55308666Y-86617714D01*
X55261047Y-86712952D01*
X55213428Y-86760571D01*
X55118190Y-86808190D01*
X54737238Y-86808190D01*
X55737238Y-86760571D02*
X56070571Y-86760571D01*
X56213428Y-87284380D02*
X55737238Y-87284380D01*
X55737238Y-86284380D01*
X56213428Y-86284380D01*
X56975333Y-86760571D02*
X56642000Y-86760571D01*
X56642000Y-87284380D02*
X56642000Y-86284380D01*
X57118190Y-86284380D01*
X57642000Y-86284380D02*
X57642000Y-86522476D01*
X57403904Y-86427238D02*
X57642000Y-86522476D01*
X57880095Y-86427238D01*
X57499142Y-86712952D02*
X57642000Y-86522476D01*
X57784857Y-86712952D01*
X58403904Y-86284380D02*
X58403904Y-86522476D01*
X58165809Y-86427238D02*
X58403904Y-86522476D01*
X58642000Y-86427238D01*
X58261047Y-86712952D02*
X58403904Y-86522476D01*
X58546761Y-86712952D01*
X60515666Y-87284380D02*
X60182333Y-86808190D01*
X59944238Y-87284380D02*
X59944238Y-86284380D01*
X60325190Y-86284380D01*
X60420428Y-86332000D01*
X60468047Y-86379619D01*
X60515666Y-86474857D01*
X60515666Y-86617714D01*
X60468047Y-86712952D01*
X60420428Y-86760571D01*
X60325190Y-86808190D01*
X59944238Y-86808190D01*
X60944238Y-86760571D02*
X61277571Y-86760571D01*
X61420428Y-87284380D02*
X60944238Y-87284380D01*
X60944238Y-86284380D01*
X61420428Y-86284380D01*
X62182333Y-86760571D02*
X61849000Y-86760571D01*
X61849000Y-87284380D02*
X61849000Y-86284380D01*
X62325190Y-86284380D01*
X62849000Y-86284380D02*
X62849000Y-86522476D01*
X62610904Y-86427238D02*
X62849000Y-86522476D01*
X63087095Y-86427238D01*
X62706142Y-86712952D02*
X62849000Y-86522476D01*
X62991857Y-86712952D01*
X63610904Y-86284380D02*
X63610904Y-86522476D01*
X63372809Y-86427238D02*
X63610904Y-86522476D01*
X63849000Y-86427238D01*
X63468047Y-86712952D02*
X63610904Y-86522476D01*
X63753761Y-86712952D01*
X64071666Y-87284380D02*
X63738333Y-86808190D01*
X63500238Y-87284380D02*
X63500238Y-86284380D01*
X63881190Y-86284380D01*
X63976428Y-86332000D01*
X64024047Y-86379619D01*
X64071666Y-86474857D01*
X64071666Y-86617714D01*
X64024047Y-86712952D01*
X63976428Y-86760571D01*
X63881190Y-86808190D01*
X63500238Y-86808190D01*
X64500238Y-86760571D02*
X64833571Y-86760571D01*
X64976428Y-87284380D02*
X64500238Y-87284380D01*
X64500238Y-86284380D01*
X64976428Y-86284380D01*
X65738333Y-86760571D02*
X65405000Y-86760571D01*
X65405000Y-87284380D02*
X65405000Y-86284380D01*
X65881190Y-86284380D01*
X66405000Y-86284380D02*
X66405000Y-86522476D01*
X66166904Y-86427238D02*
X66405000Y-86522476D01*
X66643095Y-86427238D01*
X66262142Y-86712952D02*
X66405000Y-86522476D01*
X66547857Y-86712952D01*
X67166904Y-86284380D02*
X67166904Y-86522476D01*
X66928809Y-86427238D02*
X67166904Y-86522476D01*
X67405000Y-86427238D01*
X67024047Y-86712952D02*
X67166904Y-86522476D01*
X67309761Y-86712952D01*
X69278666Y-87284380D02*
X68945333Y-86808190D01*
X68707238Y-87284380D02*
X68707238Y-86284380D01*
X69088190Y-86284380D01*
X69183428Y-86332000D01*
X69231047Y-86379619D01*
X69278666Y-86474857D01*
X69278666Y-86617714D01*
X69231047Y-86712952D01*
X69183428Y-86760571D01*
X69088190Y-86808190D01*
X68707238Y-86808190D01*
X69707238Y-86760571D02*
X70040571Y-86760571D01*
X70183428Y-87284380D02*
X69707238Y-87284380D01*
X69707238Y-86284380D01*
X70183428Y-86284380D01*
X70945333Y-86760571D02*
X70612000Y-86760571D01*
X70612000Y-87284380D02*
X70612000Y-86284380D01*
X71088190Y-86284380D01*
X71612000Y-86284380D02*
X71612000Y-86522476D01*
X71373904Y-86427238D02*
X71612000Y-86522476D01*
X71850095Y-86427238D01*
X71469142Y-86712952D02*
X71612000Y-86522476D01*
X71754857Y-86712952D01*
X72373904Y-86284380D02*
X72373904Y-86522476D01*
X72135809Y-86427238D02*
X72373904Y-86522476D01*
X72612000Y-86427238D01*
X72231047Y-86712952D02*
X72373904Y-86522476D01*
X72516761Y-86712952D01*
X72961666Y-87411380D02*
X72628333Y-86935190D01*
X72390238Y-87411380D02*
X72390238Y-86411380D01*
X72771190Y-86411380D01*
X72866428Y-86459000D01*
X72914047Y-86506619D01*
X72961666Y-86601857D01*
X72961666Y-86744714D01*
X72914047Y-86839952D01*
X72866428Y-86887571D01*
X72771190Y-86935190D01*
X72390238Y-86935190D01*
X73390238Y-86887571D02*
X73723571Y-86887571D01*
X73866428Y-87411380D02*
X73390238Y-87411380D01*
X73390238Y-86411380D01*
X73866428Y-86411380D01*
X74628333Y-86887571D02*
X74295000Y-86887571D01*
X74295000Y-87411380D02*
X74295000Y-86411380D01*
X74771190Y-86411380D01*
X75295000Y-86411380D02*
X75295000Y-86649476D01*
X75056904Y-86554238D02*
X75295000Y-86649476D01*
X75533095Y-86554238D01*
X75152142Y-86839952D02*
X75295000Y-86649476D01*
X75437857Y-86839952D01*
X76056904Y-86411380D02*
X76056904Y-86649476D01*
X75818809Y-86554238D02*
X76056904Y-86649476D01*
X76295000Y-86554238D01*
X75914047Y-86839952D02*
X76056904Y-86649476D01*
X76199761Y-86839952D01*
X78168666Y-87411380D02*
X77835333Y-86935190D01*
X77597238Y-87411380D02*
X77597238Y-86411380D01*
X77978190Y-86411380D01*
X78073428Y-86459000D01*
X78121047Y-86506619D01*
X78168666Y-86601857D01*
X78168666Y-86744714D01*
X78121047Y-86839952D01*
X78073428Y-86887571D01*
X77978190Y-86935190D01*
X77597238Y-86935190D01*
X78597238Y-86887571D02*
X78930571Y-86887571D01*
X79073428Y-87411380D02*
X78597238Y-87411380D01*
X78597238Y-86411380D01*
X79073428Y-86411380D01*
X79835333Y-86887571D02*
X79502000Y-86887571D01*
X79502000Y-87411380D02*
X79502000Y-86411380D01*
X79978190Y-86411380D01*
X80502000Y-86411380D02*
X80502000Y-86649476D01*
X80263904Y-86554238D02*
X80502000Y-86649476D01*
X80740095Y-86554238D01*
X80359142Y-86839952D02*
X80502000Y-86649476D01*
X80644857Y-86839952D01*
X81263904Y-86411380D02*
X81263904Y-86649476D01*
X81025809Y-86554238D02*
X81263904Y-86649476D01*
X81502000Y-86554238D01*
X81121047Y-86839952D02*
X81263904Y-86649476D01*
X81406761Y-86839952D01*
X82105666Y-87030380D02*
X81772333Y-86554190D01*
X81534238Y-87030380D02*
X81534238Y-86030380D01*
X81915190Y-86030380D01*
X82010428Y-86078000D01*
X82058047Y-86125619D01*
X82105666Y-86220857D01*
X82105666Y-86363714D01*
X82058047Y-86458952D01*
X82010428Y-86506571D01*
X81915190Y-86554190D01*
X81534238Y-86554190D01*
X82534238Y-86506571D02*
X82867571Y-86506571D01*
X83010428Y-87030380D02*
X82534238Y-87030380D01*
X82534238Y-86030380D01*
X83010428Y-86030380D01*
X83772333Y-86506571D02*
X83439000Y-86506571D01*
X83439000Y-87030380D02*
X83439000Y-86030380D01*
X83915190Y-86030380D01*
X84439000Y-86030380D02*
X84439000Y-86268476D01*
X84200904Y-86173238D02*
X84439000Y-86268476D01*
X84677095Y-86173238D01*
X84296142Y-86458952D02*
X84439000Y-86268476D01*
X84581857Y-86458952D01*
X85200904Y-86030380D02*
X85200904Y-86268476D01*
X84962809Y-86173238D02*
X85200904Y-86268476D01*
X85439000Y-86173238D01*
X85058047Y-86458952D02*
X85200904Y-86268476D01*
X85343761Y-86458952D01*
X89725666Y-87030380D02*
X89392333Y-86554190D01*
X89154238Y-87030380D02*
X89154238Y-86030380D01*
X89535190Y-86030380D01*
X89630428Y-86078000D01*
X89678047Y-86125619D01*
X89725666Y-86220857D01*
X89725666Y-86363714D01*
X89678047Y-86458952D01*
X89630428Y-86506571D01*
X89535190Y-86554190D01*
X89154238Y-86554190D01*
X90154238Y-86506571D02*
X90487571Y-86506571D01*
X90630428Y-87030380D02*
X90154238Y-87030380D01*
X90154238Y-86030380D01*
X90630428Y-86030380D01*
X91392333Y-86506571D02*
X91059000Y-86506571D01*
X91059000Y-87030380D02*
X91059000Y-86030380D01*
X91535190Y-86030380D01*
X92059000Y-86030380D02*
X92059000Y-86268476D01*
X91820904Y-86173238D02*
X92059000Y-86268476D01*
X92297095Y-86173238D01*
X91916142Y-86458952D02*
X92059000Y-86268476D01*
X92201857Y-86458952D01*
X92820904Y-86030380D02*
X92820904Y-86268476D01*
X92582809Y-86173238D02*
X92820904Y-86268476D01*
X93059000Y-86173238D01*
X92678047Y-86458952D02*
X92820904Y-86268476D01*
X92963761Y-86458952D01*
X89979666Y-71409380D02*
X89646333Y-70933190D01*
X89408238Y-71409380D02*
X89408238Y-70409380D01*
X89789190Y-70409380D01*
X89884428Y-70457000D01*
X89932047Y-70504619D01*
X89979666Y-70599857D01*
X89979666Y-70742714D01*
X89932047Y-70837952D01*
X89884428Y-70885571D01*
X89789190Y-70933190D01*
X89408238Y-70933190D01*
X90408238Y-70885571D02*
X90741571Y-70885571D01*
X90884428Y-71409380D02*
X90408238Y-71409380D01*
X90408238Y-70409380D01*
X90884428Y-70409380D01*
X91646333Y-70885571D02*
X91313000Y-70885571D01*
X91313000Y-71409380D02*
X91313000Y-70409380D01*
X91789190Y-70409380D01*
X92313000Y-70409380D02*
X92313000Y-70647476D01*
X92074904Y-70552238D02*
X92313000Y-70647476D01*
X92551095Y-70552238D01*
X92170142Y-70837952D02*
X92313000Y-70647476D01*
X92455857Y-70837952D01*
X93074904Y-70409380D02*
X93074904Y-70647476D01*
X92836809Y-70552238D02*
X93074904Y-70647476D01*
X93313000Y-70552238D01*
X92932047Y-70837952D02*
X93074904Y-70647476D01*
X93217761Y-70837952D01*
X97472666Y-71409380D02*
X97139333Y-70933190D01*
X96901238Y-71409380D02*
X96901238Y-70409380D01*
X97282190Y-70409380D01*
X97377428Y-70457000D01*
X97425047Y-70504619D01*
X97472666Y-70599857D01*
X97472666Y-70742714D01*
X97425047Y-70837952D01*
X97377428Y-70885571D01*
X97282190Y-70933190D01*
X96901238Y-70933190D01*
X97901238Y-70885571D02*
X98234571Y-70885571D01*
X98377428Y-71409380D02*
X97901238Y-71409380D01*
X97901238Y-70409380D01*
X98377428Y-70409380D01*
X99139333Y-70885571D02*
X98806000Y-70885571D01*
X98806000Y-71409380D02*
X98806000Y-70409380D01*
X99282190Y-70409380D01*
X99806000Y-70409380D02*
X99806000Y-70647476D01*
X99567904Y-70552238D02*
X99806000Y-70647476D01*
X100044095Y-70552238D01*
X99663142Y-70837952D02*
X99806000Y-70647476D01*
X99948857Y-70837952D01*
X100567904Y-70409380D02*
X100567904Y-70647476D01*
X100329809Y-70552238D02*
X100567904Y-70647476D01*
X100806000Y-70552238D01*
X100425047Y-70837952D02*
X100567904Y-70647476D01*
X100710761Y-70837952D01*
X39953066Y-84962261D02*
X40095923Y-85009880D01*
X40334019Y-85009880D01*
X40429257Y-84962261D01*
X40476876Y-84914642D01*
X40524495Y-84819404D01*
X40524495Y-84724166D01*
X40476876Y-84628928D01*
X40429257Y-84581309D01*
X40334019Y-84533690D01*
X40143542Y-84486071D01*
X40048304Y-84438452D01*
X40000685Y-84390833D01*
X39953066Y-84295595D01*
X39953066Y-84200357D01*
X40000685Y-84105119D01*
X40048304Y-84057500D01*
X40143542Y-84009880D01*
X40381638Y-84009880D01*
X40524495Y-84057500D01*
X40857828Y-84009880D02*
X41095923Y-85009880D01*
X41286400Y-84295595D01*
X41476876Y-85009880D01*
X41714971Y-84009880D01*
X42000685Y-84009880D02*
X42619733Y-84009880D01*
X42286400Y-84390833D01*
X42429257Y-84390833D01*
X42524495Y-84438452D01*
X42572114Y-84486071D01*
X42619733Y-84581309D01*
X42619733Y-84819404D01*
X42572114Y-84914642D01*
X42524495Y-84962261D01*
X42429257Y-85009880D01*
X42143542Y-85009880D01*
X42048304Y-84962261D01*
X42000685Y-84914642D01*
X75572866Y-85056861D02*
X75715723Y-85104480D01*
X75953819Y-85104480D01*
X76049057Y-85056861D01*
X76096676Y-85009242D01*
X76144295Y-84914004D01*
X76144295Y-84818766D01*
X76096676Y-84723528D01*
X76049057Y-84675909D01*
X75953819Y-84628290D01*
X75763342Y-84580671D01*
X75668104Y-84533052D01*
X75620485Y-84485433D01*
X75572866Y-84390195D01*
X75572866Y-84294957D01*
X75620485Y-84199719D01*
X75668104Y-84152100D01*
X75763342Y-84104480D01*
X76001438Y-84104480D01*
X76144295Y-84152100D01*
X76477628Y-84104480D02*
X76715723Y-85104480D01*
X76906200Y-84390195D01*
X77096676Y-85104480D01*
X77334771Y-84104480D01*
X77620485Y-84104480D02*
X78287152Y-84104480D01*
X77858580Y-85104480D01*
X66682066Y-85038461D02*
X66824923Y-85086080D01*
X67063019Y-85086080D01*
X67158257Y-85038461D01*
X67205876Y-84990842D01*
X67253495Y-84895604D01*
X67253495Y-84800366D01*
X67205876Y-84705128D01*
X67158257Y-84657509D01*
X67063019Y-84609890D01*
X66872542Y-84562271D01*
X66777304Y-84514652D01*
X66729685Y-84467033D01*
X66682066Y-84371795D01*
X66682066Y-84276557D01*
X66729685Y-84181319D01*
X66777304Y-84133700D01*
X66872542Y-84086080D01*
X67110638Y-84086080D01*
X67253495Y-84133700D01*
X67586828Y-84086080D02*
X67824923Y-85086080D01*
X68015400Y-84371795D01*
X68205876Y-85086080D01*
X68443971Y-84086080D01*
X69253495Y-84086080D02*
X69063019Y-84086080D01*
X68967780Y-84133700D01*
X68920161Y-84181319D01*
X68824923Y-84324176D01*
X68777304Y-84514652D01*
X68777304Y-84895604D01*
X68824923Y-84990842D01*
X68872542Y-85038461D01*
X68967780Y-85086080D01*
X69158257Y-85086080D01*
X69253495Y-85038461D01*
X69301114Y-84990842D01*
X69348733Y-84895604D01*
X69348733Y-84657509D01*
X69301114Y-84562271D01*
X69253495Y-84514652D01*
X69158257Y-84467033D01*
X68967780Y-84467033D01*
X68872542Y-84514652D01*
X68824923Y-84562271D01*
X68777304Y-84657509D01*
X57848666Y-85038461D02*
X57991523Y-85086080D01*
X58229619Y-85086080D01*
X58324857Y-85038461D01*
X58372476Y-84990842D01*
X58420095Y-84895604D01*
X58420095Y-84800366D01*
X58372476Y-84705128D01*
X58324857Y-84657509D01*
X58229619Y-84609890D01*
X58039142Y-84562271D01*
X57943904Y-84514652D01*
X57896285Y-84467033D01*
X57848666Y-84371795D01*
X57848666Y-84276557D01*
X57896285Y-84181319D01*
X57943904Y-84133700D01*
X58039142Y-84086080D01*
X58277238Y-84086080D01*
X58420095Y-84133700D01*
X58753428Y-84086080D02*
X58991523Y-85086080D01*
X59182000Y-84371795D01*
X59372476Y-85086080D01*
X59610571Y-84086080D01*
X60467714Y-84086080D02*
X59991523Y-84086080D01*
X59943904Y-84562271D01*
X59991523Y-84514652D01*
X60086761Y-84467033D01*
X60324857Y-84467033D01*
X60420095Y-84514652D01*
X60467714Y-84562271D01*
X60515333Y-84657509D01*
X60515333Y-84895604D01*
X60467714Y-84990842D01*
X60420095Y-85038461D01*
X60324857Y-85086080D01*
X60086761Y-85086080D01*
X59991523Y-85038461D01*
X59943904Y-84990842D01*
X49096866Y-84926461D02*
X49239723Y-84974080D01*
X49477819Y-84974080D01*
X49573057Y-84926461D01*
X49620676Y-84878842D01*
X49668295Y-84783604D01*
X49668295Y-84688366D01*
X49620676Y-84593128D01*
X49573057Y-84545509D01*
X49477819Y-84497890D01*
X49287342Y-84450271D01*
X49192104Y-84402652D01*
X49144485Y-84355033D01*
X49096866Y-84259795D01*
X49096866Y-84164557D01*
X49144485Y-84069319D01*
X49192104Y-84021700D01*
X49287342Y-83974080D01*
X49525438Y-83974080D01*
X49668295Y-84021700D01*
X50001628Y-83974080D02*
X50239723Y-84974080D01*
X50430200Y-84259795D01*
X50620676Y-84974080D01*
X50858771Y-83974080D01*
X51668295Y-84307414D02*
X51668295Y-84974080D01*
X51430200Y-83926461D02*
X51192104Y-84640747D01*
X51811152Y-84640747D01*
X20663066Y-84930361D02*
X20805923Y-84977980D01*
X21044019Y-84977980D01*
X21139257Y-84930361D01*
X21186876Y-84882742D01*
X21234495Y-84787504D01*
X21234495Y-84692266D01*
X21186876Y-84597028D01*
X21139257Y-84549409D01*
X21044019Y-84501790D01*
X20853542Y-84454171D01*
X20758304Y-84406552D01*
X20710685Y-84358933D01*
X20663066Y-84263695D01*
X20663066Y-84168457D01*
X20710685Y-84073219D01*
X20758304Y-84025600D01*
X20853542Y-83977980D01*
X21091638Y-83977980D01*
X21234495Y-84025600D01*
X21567828Y-83977980D02*
X21805923Y-84977980D01*
X21996400Y-84263695D01*
X22186876Y-84977980D01*
X22424971Y-83977980D01*
X22758304Y-84073219D02*
X22805923Y-84025600D01*
X22901161Y-83977980D01*
X23139257Y-83977980D01*
X23234495Y-84025600D01*
X23282114Y-84073219D01*
X23329733Y-84168457D01*
X23329733Y-84263695D01*
X23282114Y-84406552D01*
X22710685Y-84977980D01*
X23329733Y-84977980D01*
X30431866Y-84962261D02*
X30574723Y-85009880D01*
X30812819Y-85009880D01*
X30908057Y-84962261D01*
X30955676Y-84914642D01*
X31003295Y-84819404D01*
X31003295Y-84724166D01*
X30955676Y-84628928D01*
X30908057Y-84581309D01*
X30812819Y-84533690D01*
X30622342Y-84486071D01*
X30527104Y-84438452D01*
X30479485Y-84390833D01*
X30431866Y-84295595D01*
X30431866Y-84200357D01*
X30479485Y-84105119D01*
X30527104Y-84057500D01*
X30622342Y-84009880D01*
X30860438Y-84009880D01*
X31003295Y-84057500D01*
X31336628Y-84009880D02*
X31574723Y-85009880D01*
X31765200Y-84295595D01*
X31955676Y-85009880D01*
X32193771Y-84009880D01*
X33098533Y-85009880D02*
X32527104Y-85009880D01*
X32812819Y-85009880D02*
X32812819Y-84009880D01*
X32717580Y-84152738D01*
X32622342Y-84247976D01*
X32527104Y-84295595D01*
D13*
X94217176Y-66036518D02*
X94331500Y-66074626D01*
X94522040Y-66074626D01*
X94598256Y-66036518D01*
X94636364Y-65998410D01*
X94674472Y-65922194D01*
X94674472Y-65845978D01*
X94636364Y-65769762D01*
X94598256Y-65731654D01*
X94522040Y-65693546D01*
X94369608Y-65655438D01*
X94293392Y-65617330D01*
X94255284Y-65579222D01*
X94217176Y-65503006D01*
X94217176Y-65426790D01*
X94255284Y-65350574D01*
X94293392Y-65312466D01*
X94369608Y-65274358D01*
X94560148Y-65274358D01*
X94674472Y-65312466D01*
X94941228Y-65274358D02*
X95131768Y-66074626D01*
X95284200Y-65503006D01*
X95436632Y-66074626D01*
X95627172Y-65274358D01*
X95970144Y-66074626D02*
X96122576Y-66074626D01*
X96198792Y-66036518D01*
X96236900Y-65998410D01*
X96313116Y-65884086D01*
X96351224Y-65731654D01*
X96351224Y-65426790D01*
X96313116Y-65350574D01*
X96275008Y-65312466D01*
X96198792Y-65274358D01*
X96046360Y-65274358D01*
X95970144Y-65312466D01*
X95932036Y-65350574D01*
X95893928Y-65426790D01*
X95893928Y-65617330D01*
X95932036Y-65693546D01*
X95970144Y-65731654D01*
X96046360Y-65769762D01*
X96198792Y-65769762D01*
X96275008Y-65731654D01*
X96313116Y-65693546D01*
X96351224Y-65617330D01*
X90698485Y-69126361D02*
X90827057Y-69173980D01*
X91041342Y-69173980D01*
X91127057Y-69126361D01*
X91169914Y-69078742D01*
X91212771Y-68983504D01*
X91212771Y-68888266D01*
X91169914Y-68793028D01*
X91127057Y-68745409D01*
X91041342Y-68697790D01*
X90869914Y-68650171D01*
X90784200Y-68602552D01*
X90741342Y-68554933D01*
X90698485Y-68459695D01*
X90698485Y-68364457D01*
X90741342Y-68269219D01*
X90784200Y-68221600D01*
X90869914Y-68173980D01*
X91084200Y-68173980D01*
X91212771Y-68221600D01*
X91512771Y-68173980D02*
X91727057Y-69173980D01*
X91898485Y-68459695D01*
X92069914Y-69173980D01*
X92284200Y-68173980D01*
X92412771Y-69269219D02*
X93098485Y-69269219D01*
X93312771Y-69173980D02*
X93312771Y-68173980D01*
X93655628Y-68173980D01*
X93741342Y-68221600D01*
X93784200Y-68269219D01*
X93827057Y-68364457D01*
X93827057Y-68507314D01*
X93784200Y-68602552D01*
X93741342Y-68650171D01*
X93655628Y-68697790D01*
X93312771Y-68697790D01*
X94598485Y-68507314D02*
X94598485Y-69173980D01*
X94212771Y-68507314D02*
X94212771Y-69031123D01*
X94255628Y-69126361D01*
X94341342Y-69173980D01*
X94469914Y-69173980D01*
X94555628Y-69126361D01*
X94598485Y-69078742D01*
X94984200Y-69126361D02*
X95069914Y-69173980D01*
X95241342Y-69173980D01*
X95327057Y-69126361D01*
X95369914Y-69031123D01*
X95369914Y-68983504D01*
X95327057Y-68888266D01*
X95241342Y-68840647D01*
X95112771Y-68840647D01*
X95027057Y-68793028D01*
X94984200Y-68697790D01*
X94984200Y-68650171D01*
X95027057Y-68554933D01*
X95112771Y-68507314D01*
X95241342Y-68507314D01*
X95327057Y-68554933D01*
X95755628Y-69173980D02*
X95755628Y-68173980D01*
X96141342Y-69173980D02*
X96141342Y-68650171D01*
X96098485Y-68554933D01*
X96012771Y-68507314D01*
X95884200Y-68507314D01*
X95798485Y-68554933D01*
X95755628Y-68602552D01*
X96355628Y-69269219D02*
X97041342Y-69269219D01*
X97255628Y-69173980D02*
X97255628Y-68173980D01*
X97469914Y-68173980D01*
X97598485Y-68221600D01*
X97684200Y-68316838D01*
X97727057Y-68412076D01*
X97769914Y-68602552D01*
X97769914Y-68745409D01*
X97727057Y-68935885D01*
X97684200Y-69031123D01*
X97598485Y-69126361D01*
X97469914Y-69173980D01*
X97255628Y-69173980D01*
X98541342Y-68507314D02*
X98541342Y-69173980D01*
X98155628Y-68507314D02*
X98155628Y-69031123D01*
X98198485Y-69126361D01*
X98284200Y-69173980D01*
X98412771Y-69173980D01*
X98498485Y-69126361D01*
X98541342Y-69078742D01*
X99355628Y-69173980D02*
X99355628Y-68650171D01*
X99312771Y-68554933D01*
X99227057Y-68507314D01*
X99055628Y-68507314D01*
X98969914Y-68554933D01*
X99355628Y-69126361D02*
X99269914Y-69173980D01*
X99055628Y-69173980D01*
X98969914Y-69126361D01*
X98927057Y-69031123D01*
X98927057Y-68935885D01*
X98969914Y-68840647D01*
X99055628Y-68793028D01*
X99269914Y-68793028D01*
X99355628Y-68745409D01*
X99912771Y-69173980D02*
X99827057Y-69126361D01*
X99784200Y-69031123D01*
X99784200Y-68173980D01*
X86161576Y-81637318D02*
X86275900Y-81675426D01*
X86466440Y-81675426D01*
X86542656Y-81637318D01*
X86580764Y-81599210D01*
X86618872Y-81522994D01*
X86618872Y-81446778D01*
X86580764Y-81370562D01*
X86542656Y-81332454D01*
X86466440Y-81294346D01*
X86314008Y-81256238D01*
X86237792Y-81218130D01*
X86199684Y-81180022D01*
X86161576Y-81103806D01*
X86161576Y-81027590D01*
X86199684Y-80951374D01*
X86237792Y-80913266D01*
X86314008Y-80875158D01*
X86504548Y-80875158D01*
X86618872Y-80913266D01*
X86885628Y-80875158D02*
X87076168Y-81675426D01*
X87228600Y-81103806D01*
X87381032Y-81675426D01*
X87571572Y-80875158D01*
X87990760Y-81218130D02*
X87914544Y-81180022D01*
X87876436Y-81141914D01*
X87838328Y-81065698D01*
X87838328Y-81027590D01*
X87876436Y-80951374D01*
X87914544Y-80913266D01*
X87990760Y-80875158D01*
X88143192Y-80875158D01*
X88219408Y-80913266D01*
X88257516Y-80951374D01*
X88295624Y-81027590D01*
X88295624Y-81065698D01*
X88257516Y-81141914D01*
X88219408Y-81180022D01*
X88143192Y-81218130D01*
X87990760Y-81218130D01*
X87914544Y-81256238D01*
X87876436Y-81294346D01*
X87838328Y-81370562D01*
X87838328Y-81522994D01*
X87876436Y-81599210D01*
X87914544Y-81637318D01*
X87990760Y-81675426D01*
X88143192Y-81675426D01*
X88219408Y-81637318D01*
X88257516Y-81599210D01*
X88295624Y-81522994D01*
X88295624Y-81370562D01*
X88257516Y-81294346D01*
X88219408Y-81256238D01*
X88143192Y-81218130D01*
X82642885Y-84727161D02*
X82771457Y-84774780D01*
X82985742Y-84774780D01*
X83071457Y-84727161D01*
X83114314Y-84679542D01*
X83157171Y-84584304D01*
X83157171Y-84489066D01*
X83114314Y-84393828D01*
X83071457Y-84346209D01*
X82985742Y-84298590D01*
X82814314Y-84250971D01*
X82728600Y-84203352D01*
X82685742Y-84155733D01*
X82642885Y-84060495D01*
X82642885Y-83965257D01*
X82685742Y-83870019D01*
X82728600Y-83822400D01*
X82814314Y-83774780D01*
X83028600Y-83774780D01*
X83157171Y-83822400D01*
X83457171Y-83774780D02*
X83671457Y-84774780D01*
X83842885Y-84060495D01*
X84014314Y-84774780D01*
X84228600Y-83774780D01*
X84357171Y-84870019D02*
X85042885Y-84870019D01*
X85257171Y-84774780D02*
X85257171Y-83774780D01*
X85600028Y-83774780D01*
X85685742Y-83822400D01*
X85728600Y-83870019D01*
X85771457Y-83965257D01*
X85771457Y-84108114D01*
X85728600Y-84203352D01*
X85685742Y-84250971D01*
X85600028Y-84298590D01*
X85257171Y-84298590D01*
X86542885Y-84108114D02*
X86542885Y-84774780D01*
X86157171Y-84108114D02*
X86157171Y-84631923D01*
X86200028Y-84727161D01*
X86285742Y-84774780D01*
X86414314Y-84774780D01*
X86500028Y-84727161D01*
X86542885Y-84679542D01*
X86928600Y-84727161D02*
X87014314Y-84774780D01*
X87185742Y-84774780D01*
X87271457Y-84727161D01*
X87314314Y-84631923D01*
X87314314Y-84584304D01*
X87271457Y-84489066D01*
X87185742Y-84441447D01*
X87057171Y-84441447D01*
X86971457Y-84393828D01*
X86928600Y-84298590D01*
X86928600Y-84250971D01*
X86971457Y-84155733D01*
X87057171Y-84108114D01*
X87185742Y-84108114D01*
X87271457Y-84155733D01*
X87700028Y-84774780D02*
X87700028Y-83774780D01*
X88085742Y-84774780D02*
X88085742Y-84250971D01*
X88042885Y-84155733D01*
X87957171Y-84108114D01*
X87828600Y-84108114D01*
X87742885Y-84155733D01*
X87700028Y-84203352D01*
X88300028Y-84870019D02*
X88985742Y-84870019D01*
X89200028Y-84774780D02*
X89200028Y-83774780D01*
X89414314Y-83774780D01*
X89542885Y-83822400D01*
X89628600Y-83917638D01*
X89671457Y-84012876D01*
X89714314Y-84203352D01*
X89714314Y-84346209D01*
X89671457Y-84536685D01*
X89628600Y-84631923D01*
X89542885Y-84727161D01*
X89414314Y-84774780D01*
X89200028Y-84774780D01*
X90485742Y-84108114D02*
X90485742Y-84774780D01*
X90100028Y-84108114D02*
X90100028Y-84631923D01*
X90142885Y-84727161D01*
X90228600Y-84774780D01*
X90357171Y-84774780D01*
X90442885Y-84727161D01*
X90485742Y-84679542D01*
X91300028Y-84774780D02*
X91300028Y-84250971D01*
X91257171Y-84155733D01*
X91171457Y-84108114D01*
X91000028Y-84108114D01*
X90914314Y-84155733D01*
X91300028Y-84727161D02*
X91214314Y-84774780D01*
X91000028Y-84774780D01*
X90914314Y-84727161D01*
X90871457Y-84631923D01*
X90871457Y-84536685D01*
X90914314Y-84441447D01*
X91000028Y-84393828D01*
X91214314Y-84393828D01*
X91300028Y-84346209D01*
X91857171Y-84774780D02*
X91771457Y-84727161D01*
X91728600Y-84631923D01*
X91728600Y-83774780D01*
D11*
X94469676Y-77363980D02*
X94469676Y-78078266D01*
X94422057Y-78221123D01*
X94326819Y-78316361D01*
X94183961Y-78363980D01*
X94088723Y-78363980D01*
X94898247Y-77459219D02*
X94945866Y-77411600D01*
X95041104Y-77363980D01*
X95279200Y-77363980D01*
X95374438Y-77411600D01*
X95422057Y-77459219D01*
X95469676Y-77554457D01*
X95469676Y-77649695D01*
X95422057Y-77792552D01*
X94850628Y-78363980D01*
X95469676Y-78363980D01*
X95850628Y-77459219D02*
X95898247Y-77411600D01*
X95993485Y-77363980D01*
X96231580Y-77363980D01*
X96326819Y-77411600D01*
X96374438Y-77459219D01*
X96422057Y-77554457D01*
X96422057Y-77649695D01*
X96374438Y-77792552D01*
X95803009Y-78363980D01*
X96422057Y-78363980D01*
X86414076Y-92964780D02*
X86414076Y-93679066D01*
X86366457Y-93821923D01*
X86271219Y-93917161D01*
X86128361Y-93964780D01*
X86033123Y-93964780D01*
X86842647Y-93060019D02*
X86890266Y-93012400D01*
X86985504Y-92964780D01*
X87223600Y-92964780D01*
X87318838Y-93012400D01*
X87366457Y-93060019D01*
X87414076Y-93155257D01*
X87414076Y-93250495D01*
X87366457Y-93393352D01*
X86795028Y-93964780D01*
X87414076Y-93964780D01*
X88366457Y-93964780D02*
X87795028Y-93964780D01*
X88080742Y-93964780D02*
X88080742Y-92964780D01*
X87985504Y-93107638D01*
X87890266Y-93202876D01*
X87795028Y-93250495D01*
X76066276Y-93065880D02*
X76066276Y-93780166D01*
X76018657Y-93923023D01*
X75923419Y-94018261D01*
X75780561Y-94065880D01*
X75685323Y-94065880D01*
X76494847Y-93161119D02*
X76542466Y-93113500D01*
X76637704Y-93065880D01*
X76875800Y-93065880D01*
X76971038Y-93113500D01*
X77018657Y-93161119D01*
X77066276Y-93256357D01*
X77066276Y-93351595D01*
X77018657Y-93494452D01*
X76447228Y-94065880D01*
X77066276Y-94065880D01*
X77685323Y-93065880D02*
X77780561Y-93065880D01*
X77875800Y-93113500D01*
X77923419Y-93161119D01*
X77971038Y-93256357D01*
X78018657Y-93446833D01*
X78018657Y-93684928D01*
X77971038Y-93875404D01*
X77923419Y-93970642D01*
X77875800Y-94018261D01*
X77780561Y-94065880D01*
X77685323Y-94065880D01*
X77590085Y-94018261D01*
X77542466Y-93970642D01*
X77494847Y-93875404D01*
X77447228Y-93684928D01*
X77447228Y-93446833D01*
X77494847Y-93256357D01*
X77542466Y-93161119D01*
X77590085Y-93113500D01*
X77685323Y-93065880D01*
X67175476Y-93047480D02*
X67175476Y-93761766D01*
X67127857Y-93904623D01*
X67032619Y-93999861D01*
X66889761Y-94047480D01*
X66794523Y-94047480D01*
X68175476Y-94047480D02*
X67604047Y-94047480D01*
X67889761Y-94047480D02*
X67889761Y-93047480D01*
X67794523Y-93190338D01*
X67699285Y-93285576D01*
X67604047Y-93333195D01*
X68651666Y-94047480D02*
X68842142Y-94047480D01*
X68937380Y-93999861D01*
X68985000Y-93952242D01*
X69080238Y-93809385D01*
X69127857Y-93618909D01*
X69127857Y-93237957D01*
X69080238Y-93142719D01*
X69032619Y-93095100D01*
X68937380Y-93047480D01*
X68746904Y-93047480D01*
X68651666Y-93095100D01*
X68604047Y-93142719D01*
X68556428Y-93237957D01*
X68556428Y-93476052D01*
X68604047Y-93571290D01*
X68651666Y-93618909D01*
X68746904Y-93666528D01*
X68937380Y-93666528D01*
X69032619Y-93618909D01*
X69080238Y-93571290D01*
X69127857Y-93476052D01*
X41957666Y-55408580D02*
X41957666Y-56122866D01*
X41910047Y-56265723D01*
X41814809Y-56360961D01*
X41671952Y-56408580D01*
X41576714Y-56408580D01*
X42338619Y-55408580D02*
X42957666Y-55408580D01*
X42624333Y-55789533D01*
X42767190Y-55789533D01*
X42862428Y-55837152D01*
X42910047Y-55884771D01*
X42957666Y-55980009D01*
X42957666Y-56218104D01*
X42910047Y-56313342D01*
X42862428Y-56360961D01*
X42767190Y-56408580D01*
X42481476Y-56408580D01*
X42386238Y-56360961D01*
X42338619Y-56313342D01*
X21028066Y-59624980D02*
X21028066Y-60339266D01*
X20980447Y-60482123D01*
X20885209Y-60577361D01*
X20742352Y-60624980D01*
X20647114Y-60624980D01*
X21456638Y-59720219D02*
X21504257Y-59672600D01*
X21599495Y-59624980D01*
X21837590Y-59624980D01*
X21932828Y-59672600D01*
X21980447Y-59720219D01*
X22028066Y-59815457D01*
X22028066Y-59910695D01*
X21980447Y-60053552D01*
X21409019Y-60624980D01*
X22028066Y-60624980D01*
X58342076Y-93047480D02*
X58342076Y-93761766D01*
X58294457Y-93904623D01*
X58199219Y-93999861D01*
X58056361Y-94047480D01*
X57961123Y-94047480D01*
X59342076Y-94047480D02*
X58770647Y-94047480D01*
X59056361Y-94047480D02*
X59056361Y-93047480D01*
X58961123Y-93190338D01*
X58865885Y-93285576D01*
X58770647Y-93333195D01*
X59913504Y-93476052D02*
X59818266Y-93428433D01*
X59770647Y-93380814D01*
X59723028Y-93285576D01*
X59723028Y-93237957D01*
X59770647Y-93142719D01*
X59818266Y-93095100D01*
X59913504Y-93047480D01*
X60103980Y-93047480D01*
X60199219Y-93095100D01*
X60246838Y-93142719D01*
X60294457Y-93237957D01*
X60294457Y-93285576D01*
X60246838Y-93380814D01*
X60199219Y-93428433D01*
X60103980Y-93476052D01*
X59913504Y-93476052D01*
X59818266Y-93523671D01*
X59770647Y-93571290D01*
X59723028Y-93666528D01*
X59723028Y-93857004D01*
X59770647Y-93952242D01*
X59818266Y-93999861D01*
X59913504Y-94047480D01*
X60103980Y-94047480D01*
X60199219Y-93999861D01*
X60246838Y-93952242D01*
X60294457Y-93857004D01*
X60294457Y-93666528D01*
X60246838Y-93571290D01*
X60199219Y-93523671D01*
X60103980Y-93476052D01*
X49590276Y-92935480D02*
X49590276Y-93649766D01*
X49542657Y-93792623D01*
X49447419Y-93887861D01*
X49304561Y-93935480D01*
X49209323Y-93935480D01*
X50590276Y-93935480D02*
X50018847Y-93935480D01*
X50304561Y-93935480D02*
X50304561Y-92935480D01*
X50209323Y-93078338D01*
X50114085Y-93173576D01*
X50018847Y-93221195D01*
X50923609Y-92935480D02*
X51590276Y-92935480D01*
X51161704Y-93935480D01*
X40446476Y-92971280D02*
X40446476Y-93685566D01*
X40398857Y-93828423D01*
X40303619Y-93923661D01*
X40160761Y-93971280D01*
X40065523Y-93971280D01*
X41446476Y-93971280D02*
X40875047Y-93971280D01*
X41160761Y-93971280D02*
X41160761Y-92971280D01*
X41065523Y-93114138D01*
X40970285Y-93209376D01*
X40875047Y-93256995D01*
X42303619Y-92971280D02*
X42113142Y-92971280D01*
X42017904Y-93018900D01*
X41970285Y-93066519D01*
X41875047Y-93209376D01*
X41827428Y-93399852D01*
X41827428Y-93780804D01*
X41875047Y-93876042D01*
X41922666Y-93923661D01*
X42017904Y-93971280D01*
X42208380Y-93971280D01*
X42303619Y-93923661D01*
X42351238Y-93876042D01*
X42398857Y-93780804D01*
X42398857Y-93542709D01*
X42351238Y-93447471D01*
X42303619Y-93399852D01*
X42208380Y-93352233D01*
X42017904Y-93352233D01*
X41922666Y-93399852D01*
X41875047Y-93447471D01*
X41827428Y-93542709D01*
X21156476Y-92939380D02*
X21156476Y-93653666D01*
X21108857Y-93796523D01*
X21013619Y-93891761D01*
X20870761Y-93939380D01*
X20775523Y-93939380D01*
X22156476Y-93939380D02*
X21585047Y-93939380D01*
X21870761Y-93939380D02*
X21870761Y-92939380D01*
X21775523Y-93082238D01*
X21680285Y-93177476D01*
X21585047Y-93225095D01*
X23061238Y-92939380D02*
X22585047Y-92939380D01*
X22537428Y-93415571D01*
X22585047Y-93367952D01*
X22680285Y-93320333D01*
X22918380Y-93320333D01*
X23013619Y-93367952D01*
X23061238Y-93415571D01*
X23108857Y-93510809D01*
X23108857Y-93748904D01*
X23061238Y-93844142D01*
X23013619Y-93891761D01*
X22918380Y-93939380D01*
X22680285Y-93939380D01*
X22585047Y-93891761D01*
X22537428Y-93844142D01*
X30925276Y-92971280D02*
X30925276Y-93685566D01*
X30877657Y-93828423D01*
X30782419Y-93923661D01*
X30639561Y-93971280D01*
X30544323Y-93971280D01*
X31925276Y-93971280D02*
X31353847Y-93971280D01*
X31639561Y-93971280D02*
X31639561Y-92971280D01*
X31544323Y-93114138D01*
X31449085Y-93209376D01*
X31353847Y-93256995D01*
X32782419Y-93304614D02*
X32782419Y-93971280D01*
X32544323Y-92923661D02*
X32306228Y-93637947D01*
X32925276Y-93637947D01*
X37366676Y-77227180D02*
X37366676Y-77941466D01*
X37319057Y-78084323D01*
X37223819Y-78179561D01*
X37080961Y-78227180D01*
X36985723Y-78227180D01*
X38366676Y-78227180D02*
X37795247Y-78227180D01*
X38080961Y-78227180D02*
X38080961Y-77227180D01*
X37985723Y-77370038D01*
X37890485Y-77465276D01*
X37795247Y-77512895D01*
X38700009Y-77227180D02*
X39319057Y-77227180D01*
X38985723Y-77608133D01*
X39128580Y-77608133D01*
X39223819Y-77655752D01*
X39271438Y-77703371D01*
X39319057Y-77798609D01*
X39319057Y-78036704D01*
X39271438Y-78131942D01*
X39223819Y-78179561D01*
X39128580Y-78227180D01*
X38842866Y-78227180D01*
X38747628Y-78179561D01*
X38700009Y-78131942D01*
X53114676Y-76973180D02*
X53114676Y-77687466D01*
X53067057Y-77830323D01*
X52971819Y-77925561D01*
X52828961Y-77973180D01*
X52733723Y-77973180D01*
X54114676Y-77973180D02*
X53543247Y-77973180D01*
X53828961Y-77973180D02*
X53828961Y-76973180D01*
X53733723Y-77116038D01*
X53638485Y-77211276D01*
X53543247Y-77258895D01*
X54495628Y-77068419D02*
X54543247Y-77020800D01*
X54638485Y-76973180D01*
X54876580Y-76973180D01*
X54971819Y-77020800D01*
X55019438Y-77068419D01*
X55067057Y-77163657D01*
X55067057Y-77258895D01*
X55019438Y-77401752D01*
X54448009Y-77973180D01*
X55067057Y-77973180D01*
X64824076Y-76947780D02*
X64824076Y-77662066D01*
X64776457Y-77804923D01*
X64681219Y-77900161D01*
X64538361Y-77947780D01*
X64443123Y-77947780D01*
X65824076Y-77947780D02*
X65252647Y-77947780D01*
X65538361Y-77947780D02*
X65538361Y-76947780D01*
X65443123Y-77090638D01*
X65347885Y-77185876D01*
X65252647Y-77233495D01*
X66776457Y-77947780D02*
X66205028Y-77947780D01*
X66490742Y-77947780D02*
X66490742Y-76947780D01*
X66395504Y-77090638D01*
X66300266Y-77185876D01*
X66205028Y-77233495D01*
X49355476Y-55408580D02*
X49355476Y-56122866D01*
X49307857Y-56265723D01*
X49212619Y-56360961D01*
X49069761Y-56408580D01*
X48974523Y-56408580D01*
X50355476Y-56408580D02*
X49784047Y-56408580D01*
X50069761Y-56408580D02*
X50069761Y-55408580D01*
X49974523Y-55551438D01*
X49879285Y-55646676D01*
X49784047Y-55694295D01*
X50974523Y-55408580D02*
X51069761Y-55408580D01*
X51165000Y-55456200D01*
X51212619Y-55503819D01*
X51260238Y-55599057D01*
X51307857Y-55789533D01*
X51307857Y-56027628D01*
X51260238Y-56218104D01*
X51212619Y-56313342D01*
X51165000Y-56360961D01*
X51069761Y-56408580D01*
X50974523Y-56408580D01*
X50879285Y-56360961D01*
X50831666Y-56313342D01*
X50784047Y-56218104D01*
X50736428Y-56027628D01*
X50736428Y-55789533D01*
X50784047Y-55599057D01*
X50831666Y-55503819D01*
X50879285Y-55456200D01*
X50974523Y-55408580D01*
X82724666Y-74153780D02*
X82724666Y-74868066D01*
X82677047Y-75010923D01*
X82581809Y-75106161D01*
X82438952Y-75153780D01*
X82343714Y-75153780D01*
X83248476Y-75153780D02*
X83438952Y-75153780D01*
X83534190Y-75106161D01*
X83581809Y-75058542D01*
X83677047Y-74915685D01*
X83724666Y-74725209D01*
X83724666Y-74344257D01*
X83677047Y-74249019D01*
X83629428Y-74201400D01*
X83534190Y-74153780D01*
X83343714Y-74153780D01*
X83248476Y-74201400D01*
X83200857Y-74249019D01*
X83153238Y-74344257D01*
X83153238Y-74582352D01*
X83200857Y-74677590D01*
X83248476Y-74725209D01*
X83343714Y-74772828D01*
X83534190Y-74772828D01*
X83629428Y-74725209D01*
X83677047Y-74677590D01*
X83724666Y-74582352D01*
X58721666Y-55408580D02*
X58721666Y-56122866D01*
X58674047Y-56265723D01*
X58578809Y-56360961D01*
X58435952Y-56408580D01*
X58340714Y-56408580D01*
X59340714Y-55837152D02*
X59245476Y-55789533D01*
X59197857Y-55741914D01*
X59150238Y-55646676D01*
X59150238Y-55599057D01*
X59197857Y-55503819D01*
X59245476Y-55456200D01*
X59340714Y-55408580D01*
X59531190Y-55408580D01*
X59626428Y-55456200D01*
X59674047Y-55503819D01*
X59721666Y-55599057D01*
X59721666Y-55646676D01*
X59674047Y-55741914D01*
X59626428Y-55789533D01*
X59531190Y-55837152D01*
X59340714Y-55837152D01*
X59245476Y-55884771D01*
X59197857Y-55932390D01*
X59150238Y-56027628D01*
X59150238Y-56218104D01*
X59197857Y-56313342D01*
X59245476Y-56360961D01*
X59340714Y-56408580D01*
X59531190Y-56408580D01*
X59626428Y-56360961D01*
X59674047Y-56313342D01*
X59721666Y-56218104D01*
X59721666Y-56027628D01*
X59674047Y-55932390D01*
X59626428Y-55884771D01*
X59531190Y-55837152D01*
X31188066Y-57084980D02*
X31188066Y-57799266D01*
X31140447Y-57942123D01*
X31045209Y-58037361D01*
X30902352Y-58084980D01*
X30807114Y-58084980D01*
X31569019Y-57084980D02*
X32235685Y-57084980D01*
X31807114Y-58084980D01*
X82800866Y-63485780D02*
X82800866Y-64200066D01*
X82753247Y-64342923D01*
X82658009Y-64438161D01*
X82515152Y-64485780D01*
X82419914Y-64485780D01*
X83705628Y-63485780D02*
X83515152Y-63485780D01*
X83419914Y-63533400D01*
X83372295Y-63581019D01*
X83277057Y-63723876D01*
X83229438Y-63914352D01*
X83229438Y-64295304D01*
X83277057Y-64390542D01*
X83324676Y-64438161D01*
X83419914Y-64485780D01*
X83610390Y-64485780D01*
X83705628Y-64438161D01*
X83753247Y-64390542D01*
X83800866Y-64295304D01*
X83800866Y-64057209D01*
X83753247Y-63961971D01*
X83705628Y-63914352D01*
X83610390Y-63866733D01*
X83419914Y-63866733D01*
X83324676Y-63914352D01*
X83277057Y-63961971D01*
X83229438Y-64057209D01*
X75892066Y-58100980D02*
X75892066Y-58815266D01*
X75844447Y-58958123D01*
X75749209Y-59053361D01*
X75606352Y-59100980D01*
X75511114Y-59100980D01*
X76844447Y-58100980D02*
X76368257Y-58100980D01*
X76320638Y-58577171D01*
X76368257Y-58529552D01*
X76463495Y-58481933D01*
X76701590Y-58481933D01*
X76796828Y-58529552D01*
X76844447Y-58577171D01*
X76892066Y-58672409D01*
X76892066Y-58910504D01*
X76844447Y-59005742D01*
X76796828Y-59053361D01*
X76701590Y-59100980D01*
X76463495Y-59100980D01*
X76368257Y-59053361D01*
X76320638Y-59005742D01*
X67103666Y-55662580D02*
X67103666Y-56376866D01*
X67056047Y-56519723D01*
X66960809Y-56614961D01*
X66817952Y-56662580D01*
X66722714Y-56662580D01*
X68008428Y-55995914D02*
X68008428Y-56662580D01*
X67770333Y-55614961D02*
X67532238Y-56329247D01*
X68151285Y-56329247D01*
X21206080Y-69319733D02*
X21920366Y-69319733D01*
X22063223Y-69367352D01*
X22158461Y-69462590D01*
X22206080Y-69605447D01*
X22206080Y-69700685D01*
X22206080Y-68319733D02*
X22206080Y-68891161D01*
X22206080Y-68605447D02*
X21206080Y-68605447D01*
X21348938Y-68700685D01*
X21444176Y-68795923D01*
X21491795Y-68891161D01*
M02*
