M48
; DRILL file {KiCad 5.1.2} date Mon May 27 23:22:59 2019
; FORMAT={-:-/ absolute / inch / decimal}
; #@! TF.CreationDate,2019-05-27T23:22:59-07:00
; #@! TF.GenerationSoftware,Kicad,Pcbnew,5.1.2
FMAT,2
INCH
T1C0.0394
T2C0.0394
%
G90
G05
T1
X0.97Y-3.325
X0.765Y-3.33
X3.13Y-3.335
X2.23Y-3.33
X1.725Y-3.325
X1.405Y-2.26
X2.095Y-3.33
X1.35Y-3.325
X0.9655Y-2.666
X0.9655Y-2.766
X1.0655Y-2.666
X1.0655Y-2.766
X1.1655Y-2.666
X1.1655Y-2.766
X1.2655Y-2.666
X1.2655Y-2.766
X1.3655Y-2.666
X1.3655Y-2.766
X1.4655Y-2.666
X1.4655Y-2.766
X1.5655Y-2.666
X1.5655Y-2.766
X1.6655Y-2.666
X1.6655Y-2.766
X1.7655Y-2.666
X1.7655Y-2.766
X1.8655Y-2.666
X1.8655Y-2.766
X1.9655Y-2.666
X1.9655Y-2.766
X2.0655Y-2.666
X2.0655Y-2.766
X2.1655Y-2.666
X2.1655Y-2.766
X2.2655Y-2.666
X2.2655Y-2.766
X2.3655Y-2.666
X2.3655Y-2.766
X2.4655Y-2.666
X2.4655Y-2.766
X2.5655Y-2.666
X2.5655Y-2.766
X2.6655Y-2.666
X2.6655Y-2.766
X2.7655Y-2.666
X2.7655Y-2.766
X2.8655Y-2.666
X2.8655Y-2.766
X3.89Y-2.705
X1.525Y-3.325
X3.585Y-3.32
X3.285Y-3.32
X2.435Y-3.33
X2.435Y-2.475
X1.805Y-2.975
X3.595Y-2.705
X1.15Y-3.325
X1.88Y-3.325
X2.78Y-3.33
X2.575Y-3.33
X2.925Y-3.335
T2
X0.7898Y-3.555
X0.9398Y-3.555
X1.9092Y-3.5548
X2.0592Y-3.5548
X1.896Y-2.299
X2.046Y-2.299
X2.2538Y-3.5593
X2.4038Y-3.5593
X2.246Y-2.299
X2.396Y-2.299
X0.766Y-2.519
X0.916Y-2.519
X3.6761Y-2.9418
X3.8261Y-2.9418
X3.198Y-2.836
X3.348Y-2.836
X1.586Y-2.299
X1.736Y-2.299
X1.166Y-2.419
X1.316Y-2.419
X2.048Y-2.956
X2.198Y-2.956
X2.6016Y-3.5593
X2.7516Y-3.5593
X3.359Y-3.556
X3.509Y-3.556
X1.1744Y-3.5563
X1.3244Y-3.5563
X1.428Y-2.966
X1.578Y-2.966
X2.926Y-2.459
X3.076Y-2.459
X2.576Y-2.309
X2.726Y-2.309
X2.508Y-2.956
X2.658Y-2.956
X2.9516Y-3.56
X3.1016Y-3.56
X1.5493Y-3.5563
X1.6993Y-3.5563
X3.198Y-2.671
X3.348Y-2.671
T0
M30
