G04 #@! TF.GenerationSoftware,KiCad,Pcbnew,5.1.2*
G04 #@! TF.CreationDate,2019-05-27T23:22:56-07:00*
G04 #@! TF.ProjectId,gloveProtoFinal,676c6f76-6550-4726-9f74-6f46696e616c,rev?*
G04 #@! TF.SameCoordinates,Original*
G04 #@! TF.FileFunction,Soldermask,Bot*
G04 #@! TF.FilePolarity,Negative*
%FSLAX46Y46*%
G04 Gerber Fmt 4.6, Leading zero omitted, Abs format (unit mm)*
G04 Created by KiCad (PCBNEW 5.1.2) date 2019-05-27 23:22:56*
%MOMM*%
%LPD*%
G04 APERTURE LIST*
%ADD10C,0.100000*%
G04 APERTURE END LIST*
D10*
G36*
X79160193Y-89172804D02*
G01*
X79396901Y-89270852D01*
X79396903Y-89270853D01*
X79609935Y-89413196D01*
X79791104Y-89594365D01*
X79921154Y-89788999D01*
X79933448Y-89807399D01*
X80031496Y-90044107D01*
X80081480Y-90295393D01*
X80081480Y-90551607D01*
X80031496Y-90802893D01*
X79941069Y-91021203D01*
X79933447Y-91039603D01*
X79791104Y-91252635D01*
X79609935Y-91433804D01*
X79396903Y-91576147D01*
X79396902Y-91576148D01*
X79396901Y-91576148D01*
X79160193Y-91674196D01*
X78908907Y-91724180D01*
X78652693Y-91724180D01*
X78401407Y-91674196D01*
X78164699Y-91576148D01*
X78164698Y-91576148D01*
X78164697Y-91576147D01*
X77951665Y-91433804D01*
X77770496Y-91252635D01*
X77628153Y-91039603D01*
X77620531Y-91021203D01*
X77530104Y-90802893D01*
X77480120Y-90551607D01*
X77480120Y-90295393D01*
X77530104Y-90044107D01*
X77628152Y-89807399D01*
X77640446Y-89788999D01*
X77770496Y-89594365D01*
X77951665Y-89413196D01*
X78164697Y-89270853D01*
X78164699Y-89270852D01*
X78401407Y-89172804D01*
X78652693Y-89122820D01*
X78908907Y-89122820D01*
X79160193Y-89172804D01*
X79160193Y-89172804D01*
G37*
G36*
X76271480Y-91724180D02*
G01*
X73670120Y-91724180D01*
X73670120Y-89122820D01*
X76271480Y-89122820D01*
X76271480Y-91724180D01*
X76271480Y-91724180D01*
G37*
G36*
X70269393Y-89154404D02*
G01*
X70506101Y-89252452D01*
X70506103Y-89252453D01*
X70719135Y-89394796D01*
X70900304Y-89575965D01*
X70991733Y-89712799D01*
X71042648Y-89788999D01*
X71140696Y-90025707D01*
X71190680Y-90276993D01*
X71190680Y-90533207D01*
X71140696Y-90784493D01*
X71074211Y-90945001D01*
X71042647Y-91021203D01*
X70900304Y-91234235D01*
X70719135Y-91415404D01*
X70506103Y-91557747D01*
X70506102Y-91557748D01*
X70506101Y-91557748D01*
X70269393Y-91655796D01*
X70018107Y-91705780D01*
X69761893Y-91705780D01*
X69510607Y-91655796D01*
X69273899Y-91557748D01*
X69273898Y-91557748D01*
X69273897Y-91557747D01*
X69060865Y-91415404D01*
X68879696Y-91234235D01*
X68737353Y-91021203D01*
X68705789Y-90945001D01*
X68639304Y-90784493D01*
X68589320Y-90533207D01*
X68589320Y-90276993D01*
X68639304Y-90025707D01*
X68737352Y-89788999D01*
X68788267Y-89712799D01*
X68879696Y-89575965D01*
X69060865Y-89394796D01*
X69273897Y-89252453D01*
X69273899Y-89252452D01*
X69510607Y-89154404D01*
X69761893Y-89104420D01*
X70018107Y-89104420D01*
X70269393Y-89154404D01*
X70269393Y-89154404D01*
G37*
G36*
X67380680Y-91705780D02*
G01*
X64779320Y-91705780D01*
X64779320Y-89104420D01*
X67380680Y-89104420D01*
X67380680Y-91705780D01*
X67380680Y-91705780D01*
G37*
G36*
X61435993Y-89154404D02*
G01*
X61672701Y-89252452D01*
X61672703Y-89252453D01*
X61885735Y-89394796D01*
X62066904Y-89575965D01*
X62158333Y-89712799D01*
X62209248Y-89788999D01*
X62307296Y-90025707D01*
X62357280Y-90276993D01*
X62357280Y-90533207D01*
X62307296Y-90784493D01*
X62240811Y-90945001D01*
X62209247Y-91021203D01*
X62066904Y-91234235D01*
X61885735Y-91415404D01*
X61672703Y-91557747D01*
X61672702Y-91557748D01*
X61672701Y-91557748D01*
X61435993Y-91655796D01*
X61184707Y-91705780D01*
X60928493Y-91705780D01*
X60677207Y-91655796D01*
X60440499Y-91557748D01*
X60440498Y-91557748D01*
X60440497Y-91557747D01*
X60227465Y-91415404D01*
X60046296Y-91234235D01*
X59903953Y-91021203D01*
X59872389Y-90945001D01*
X59805904Y-90784493D01*
X59755920Y-90533207D01*
X59755920Y-90276993D01*
X59805904Y-90025707D01*
X59903952Y-89788999D01*
X59954867Y-89712799D01*
X60046296Y-89575965D01*
X60227465Y-89394796D01*
X60440497Y-89252453D01*
X60440499Y-89252452D01*
X60677207Y-89154404D01*
X60928493Y-89104420D01*
X61184707Y-89104420D01*
X61435993Y-89154404D01*
X61435993Y-89154404D01*
G37*
G36*
X58547280Y-91705780D02*
G01*
X55945920Y-91705780D01*
X55945920Y-89104420D01*
X58547280Y-89104420D01*
X58547280Y-91705780D01*
X58547280Y-91705780D01*
G37*
G36*
X43540393Y-89078204D02*
G01*
X43768779Y-89172805D01*
X43777103Y-89176253D01*
X43990135Y-89318596D01*
X44171304Y-89499765D01*
X44309304Y-89706297D01*
X44313648Y-89712799D01*
X44411696Y-89949507D01*
X44461680Y-90200793D01*
X44461680Y-90457007D01*
X44411696Y-90708293D01*
X44313648Y-90945001D01*
X44313647Y-90945003D01*
X44171304Y-91158035D01*
X43990135Y-91339204D01*
X43777103Y-91481547D01*
X43777102Y-91481548D01*
X43777101Y-91481548D01*
X43540393Y-91579596D01*
X43289107Y-91629580D01*
X43032893Y-91629580D01*
X42781607Y-91579596D01*
X42544899Y-91481548D01*
X42544898Y-91481548D01*
X42544897Y-91481547D01*
X42331865Y-91339204D01*
X42150696Y-91158035D01*
X42008353Y-90945003D01*
X42008352Y-90945001D01*
X41910304Y-90708293D01*
X41860320Y-90457007D01*
X41860320Y-90200793D01*
X41910304Y-89949507D01*
X42008352Y-89712799D01*
X42012696Y-89706297D01*
X42150696Y-89499765D01*
X42331865Y-89318596D01*
X42544897Y-89176253D01*
X42553221Y-89172805D01*
X42781607Y-89078204D01*
X43032893Y-89028220D01*
X43289107Y-89028220D01*
X43540393Y-89078204D01*
X43540393Y-89078204D01*
G37*
G36*
X40651680Y-91629580D02*
G01*
X38050320Y-91629580D01*
X38050320Y-89028220D01*
X40651680Y-89028220D01*
X40651680Y-91629580D01*
X40651680Y-91629580D01*
G37*
G36*
X31130480Y-91629580D02*
G01*
X28529120Y-91629580D01*
X28529120Y-89028220D01*
X31130480Y-89028220D01*
X31130480Y-91629580D01*
X31130480Y-91629580D01*
G37*
G36*
X34019193Y-89078204D02*
G01*
X34247579Y-89172805D01*
X34255903Y-89176253D01*
X34468935Y-89318596D01*
X34650104Y-89499765D01*
X34788104Y-89706297D01*
X34792448Y-89712799D01*
X34890496Y-89949507D01*
X34940480Y-90200793D01*
X34940480Y-90457007D01*
X34890496Y-90708293D01*
X34792448Y-90945001D01*
X34792447Y-90945003D01*
X34650104Y-91158035D01*
X34468935Y-91339204D01*
X34255903Y-91481547D01*
X34255902Y-91481548D01*
X34255901Y-91481548D01*
X34019193Y-91579596D01*
X33767907Y-91629580D01*
X33511693Y-91629580D01*
X33260407Y-91579596D01*
X33023699Y-91481548D01*
X33023698Y-91481548D01*
X33023697Y-91481547D01*
X32810665Y-91339204D01*
X32629496Y-91158035D01*
X32487153Y-90945003D01*
X32487152Y-90945001D01*
X32389104Y-90708293D01*
X32339120Y-90457007D01*
X32339120Y-90200793D01*
X32389104Y-89949507D01*
X32487152Y-89712799D01*
X32491496Y-89706297D01*
X32629496Y-89499765D01*
X32810665Y-89318596D01*
X33023697Y-89176253D01*
X33032021Y-89172805D01*
X33260407Y-89078204D01*
X33511693Y-89028220D01*
X33767907Y-89028220D01*
X34019193Y-89078204D01*
X34019193Y-89078204D01*
G37*
G36*
X86619280Y-91623080D02*
G01*
X84017920Y-91623080D01*
X84017920Y-89021720D01*
X86619280Y-89021720D01*
X86619280Y-91623080D01*
X86619280Y-91623080D01*
G37*
G36*
X89507993Y-89071704D02*
G01*
X89707650Y-89154405D01*
X89744703Y-89169753D01*
X89957735Y-89312096D01*
X90138904Y-89493265D01*
X90281247Y-89706297D01*
X90281248Y-89706299D01*
X90379296Y-89943007D01*
X90429280Y-90194293D01*
X90429280Y-90450507D01*
X90379296Y-90701793D01*
X90291769Y-90913101D01*
X90281247Y-90938503D01*
X90138904Y-91151535D01*
X89957735Y-91332704D01*
X89744703Y-91475047D01*
X89744702Y-91475048D01*
X89744701Y-91475048D01*
X89507993Y-91573096D01*
X89256707Y-91623080D01*
X89000493Y-91623080D01*
X88749207Y-91573096D01*
X88512499Y-91475048D01*
X88512498Y-91475048D01*
X88512497Y-91475047D01*
X88299465Y-91332704D01*
X88118296Y-91151535D01*
X87975953Y-90938503D01*
X87965431Y-90913101D01*
X87877904Y-90701793D01*
X87827920Y-90450507D01*
X87827920Y-90194293D01*
X87877904Y-89943007D01*
X87975952Y-89706299D01*
X87975953Y-89706297D01*
X88118296Y-89493265D01*
X88299465Y-89312096D01*
X88512497Y-89169753D01*
X88549550Y-89154405D01*
X88749207Y-89071704D01*
X89000493Y-89021720D01*
X89256707Y-89021720D01*
X89507993Y-89071704D01*
X89507993Y-89071704D01*
G37*
G36*
X24250393Y-89046304D02*
G01*
X24477688Y-89140453D01*
X24487103Y-89144353D01*
X24700135Y-89286696D01*
X24881304Y-89467865D01*
X24965828Y-89594365D01*
X25023648Y-89680899D01*
X25121696Y-89917607D01*
X25171680Y-90168893D01*
X25171680Y-90425107D01*
X25121696Y-90676393D01*
X25023648Y-90913101D01*
X25023647Y-90913103D01*
X24881304Y-91126135D01*
X24700135Y-91307304D01*
X24487103Y-91449647D01*
X24487102Y-91449648D01*
X24487101Y-91449648D01*
X24250393Y-91547696D01*
X23999107Y-91597680D01*
X23742893Y-91597680D01*
X23491607Y-91547696D01*
X23254899Y-91449648D01*
X23254898Y-91449648D01*
X23254897Y-91449647D01*
X23041865Y-91307304D01*
X22860696Y-91126135D01*
X22718353Y-90913103D01*
X22718352Y-90913101D01*
X22620304Y-90676393D01*
X22570320Y-90425107D01*
X22570320Y-90168893D01*
X22620304Y-89917607D01*
X22718352Y-89680899D01*
X22776172Y-89594365D01*
X22860696Y-89467865D01*
X23041865Y-89286696D01*
X23254897Y-89144353D01*
X23264312Y-89140453D01*
X23491607Y-89046304D01*
X23742893Y-88996320D01*
X23999107Y-88996320D01*
X24250393Y-89046304D01*
X24250393Y-89046304D01*
G37*
G36*
X21361680Y-91597680D02*
G01*
X18760320Y-91597680D01*
X18760320Y-88996320D01*
X21361680Y-88996320D01*
X21361680Y-91597680D01*
X21361680Y-91597680D01*
G37*
G36*
X52684193Y-89042404D02*
G01*
X52920901Y-89140452D01*
X52920903Y-89140453D01*
X53133935Y-89282796D01*
X53315104Y-89463965D01*
X53457447Y-89676997D01*
X53457448Y-89676999D01*
X53555496Y-89913707D01*
X53605480Y-90164993D01*
X53605480Y-90421207D01*
X53555496Y-90672493D01*
X53501482Y-90802893D01*
X53457447Y-90909203D01*
X53315104Y-91122235D01*
X53133935Y-91303404D01*
X52920903Y-91445747D01*
X52920902Y-91445748D01*
X52920901Y-91445748D01*
X52684193Y-91543796D01*
X52432907Y-91593780D01*
X52176693Y-91593780D01*
X51925407Y-91543796D01*
X51688699Y-91445748D01*
X51688698Y-91445748D01*
X51688697Y-91445747D01*
X51475665Y-91303404D01*
X51294496Y-91122235D01*
X51152153Y-90909203D01*
X51108118Y-90802893D01*
X51054104Y-90672493D01*
X51004120Y-90421207D01*
X51004120Y-90164993D01*
X51054104Y-89913707D01*
X51152152Y-89676999D01*
X51152153Y-89676997D01*
X51294496Y-89463965D01*
X51475665Y-89282796D01*
X51688697Y-89140453D01*
X51688699Y-89140452D01*
X51925407Y-89042404D01*
X52176693Y-88992420D01*
X52432907Y-88992420D01*
X52684193Y-89042404D01*
X52684193Y-89042404D01*
G37*
G36*
X49795480Y-91593780D02*
G01*
X47194120Y-91593780D01*
X47194120Y-88992420D01*
X49795480Y-88992420D01*
X49795480Y-91593780D01*
X49795480Y-91593780D01*
G37*
G36*
X74601564Y-83698389D02*
G01*
X74792833Y-83777615D01*
X74792835Y-83777616D01*
X74803926Y-83785027D01*
X74964973Y-83892635D01*
X75111365Y-84039027D01*
X75226385Y-84211167D01*
X75305611Y-84402436D01*
X75346000Y-84605484D01*
X75346000Y-84812516D01*
X75305611Y-85015564D01*
X75278990Y-85079833D01*
X75226384Y-85206835D01*
X75111365Y-85378973D01*
X74964973Y-85525365D01*
X74792835Y-85640384D01*
X74792834Y-85640385D01*
X74792833Y-85640385D01*
X74601564Y-85719611D01*
X74398516Y-85760000D01*
X74191484Y-85760000D01*
X73988436Y-85719611D01*
X73797167Y-85640385D01*
X73797166Y-85640385D01*
X73797165Y-85640384D01*
X73625027Y-85525365D01*
X73478635Y-85378973D01*
X73363616Y-85206835D01*
X73311010Y-85079833D01*
X73284389Y-85015564D01*
X73244000Y-84812516D01*
X73244000Y-84605484D01*
X73284389Y-84402436D01*
X73363615Y-84211167D01*
X73478635Y-84039027D01*
X73625027Y-83892635D01*
X73786074Y-83785027D01*
X73797165Y-83777616D01*
X73797167Y-83777615D01*
X73988436Y-83698389D01*
X74191484Y-83658000D01*
X74398516Y-83658000D01*
X74601564Y-83698389D01*
X74601564Y-83698389D01*
G37*
G36*
X79808564Y-83698389D02*
G01*
X79999833Y-83777615D01*
X79999835Y-83777616D01*
X80010926Y-83785027D01*
X80171973Y-83892635D01*
X80318365Y-84039027D01*
X80433385Y-84211167D01*
X80512611Y-84402436D01*
X80553000Y-84605484D01*
X80553000Y-84812516D01*
X80512611Y-85015564D01*
X80485990Y-85079833D01*
X80433384Y-85206835D01*
X80318365Y-85378973D01*
X80171973Y-85525365D01*
X79999835Y-85640384D01*
X79999834Y-85640385D01*
X79999833Y-85640385D01*
X79808564Y-85719611D01*
X79605516Y-85760000D01*
X79398484Y-85760000D01*
X79195436Y-85719611D01*
X79004167Y-85640385D01*
X79004166Y-85640385D01*
X79004165Y-85640384D01*
X78832027Y-85525365D01*
X78685635Y-85378973D01*
X78570616Y-85206835D01*
X78518010Y-85079833D01*
X78491389Y-85015564D01*
X78451000Y-84812516D01*
X78451000Y-84605484D01*
X78491389Y-84402436D01*
X78570615Y-84211167D01*
X78685635Y-84039027D01*
X78832027Y-83892635D01*
X78993074Y-83785027D01*
X79004165Y-83777616D01*
X79004167Y-83777615D01*
X79195436Y-83698389D01*
X79398484Y-83658000D01*
X79605516Y-83658000D01*
X79808564Y-83698389D01*
X79808564Y-83698389D01*
G37*
G36*
X19737564Y-83571389D02*
G01*
X19928833Y-83650615D01*
X19928835Y-83650616D01*
X20100973Y-83765635D01*
X20247365Y-83912027D01*
X20332224Y-84039027D01*
X20362385Y-84084167D01*
X20441611Y-84275436D01*
X20482000Y-84478484D01*
X20482000Y-84685516D01*
X20441611Y-84888564D01*
X20362385Y-85079833D01*
X20362384Y-85079835D01*
X20247365Y-85251973D01*
X20100973Y-85398365D01*
X19928835Y-85513384D01*
X19928834Y-85513385D01*
X19928833Y-85513385D01*
X19737564Y-85592611D01*
X19534516Y-85633000D01*
X19327484Y-85633000D01*
X19124436Y-85592611D01*
X18933167Y-85513385D01*
X18933166Y-85513385D01*
X18933165Y-85513384D01*
X18761027Y-85398365D01*
X18614635Y-85251973D01*
X18499616Y-85079835D01*
X18499615Y-85079833D01*
X18420389Y-84888564D01*
X18380000Y-84685516D01*
X18380000Y-84478484D01*
X18420389Y-84275436D01*
X18499615Y-84084167D01*
X18529777Y-84039027D01*
X18614635Y-83912027D01*
X18761027Y-83765635D01*
X18933165Y-83650616D01*
X18933167Y-83650615D01*
X19124436Y-83571389D01*
X19327484Y-83531000D01*
X19534516Y-83531000D01*
X19737564Y-83571389D01*
X19737564Y-83571389D01*
G37*
G36*
X70918564Y-83571389D02*
G01*
X71109833Y-83650615D01*
X71109835Y-83650616D01*
X71281973Y-83765635D01*
X71428365Y-83912027D01*
X71513224Y-84039027D01*
X71543385Y-84084167D01*
X71622611Y-84275436D01*
X71663000Y-84478484D01*
X71663000Y-84685516D01*
X71622611Y-84888564D01*
X71543385Y-85079833D01*
X71543384Y-85079835D01*
X71428365Y-85251973D01*
X71281973Y-85398365D01*
X71109835Y-85513384D01*
X71109834Y-85513385D01*
X71109833Y-85513385D01*
X70918564Y-85592611D01*
X70715516Y-85633000D01*
X70508484Y-85633000D01*
X70305436Y-85592611D01*
X70114167Y-85513385D01*
X70114166Y-85513385D01*
X70114165Y-85513384D01*
X69942027Y-85398365D01*
X69795635Y-85251973D01*
X69680616Y-85079835D01*
X69680615Y-85079833D01*
X69601389Y-84888564D01*
X69561000Y-84685516D01*
X69561000Y-84478484D01*
X69601389Y-84275436D01*
X69680615Y-84084167D01*
X69710777Y-84039027D01*
X69795635Y-83912027D01*
X69942027Y-83765635D01*
X70114165Y-83650616D01*
X70114167Y-83650615D01*
X70305436Y-83571389D01*
X70508484Y-83531000D01*
X70715516Y-83531000D01*
X70918564Y-83571389D01*
X70918564Y-83571389D01*
G37*
G36*
X65711564Y-83571389D02*
G01*
X65902833Y-83650615D01*
X65902835Y-83650616D01*
X66074973Y-83765635D01*
X66221365Y-83912027D01*
X66306224Y-84039027D01*
X66336385Y-84084167D01*
X66415611Y-84275436D01*
X66456000Y-84478484D01*
X66456000Y-84685516D01*
X66415611Y-84888564D01*
X66336385Y-85079833D01*
X66336384Y-85079835D01*
X66221365Y-85251973D01*
X66074973Y-85398365D01*
X65902835Y-85513384D01*
X65902834Y-85513385D01*
X65902833Y-85513385D01*
X65711564Y-85592611D01*
X65508516Y-85633000D01*
X65301484Y-85633000D01*
X65098436Y-85592611D01*
X64907167Y-85513385D01*
X64907166Y-85513385D01*
X64907165Y-85513384D01*
X64735027Y-85398365D01*
X64588635Y-85251973D01*
X64473616Y-85079835D01*
X64473615Y-85079833D01*
X64394389Y-84888564D01*
X64354000Y-84685516D01*
X64354000Y-84478484D01*
X64394389Y-84275436D01*
X64473615Y-84084167D01*
X64503777Y-84039027D01*
X64588635Y-83912027D01*
X64735027Y-83765635D01*
X64907165Y-83650616D01*
X64907167Y-83650615D01*
X65098436Y-83571389D01*
X65301484Y-83531000D01*
X65508516Y-83531000D01*
X65711564Y-83571389D01*
X65711564Y-83571389D01*
G37*
G36*
X62155564Y-83571389D02*
G01*
X62346833Y-83650615D01*
X62346835Y-83650616D01*
X62518973Y-83765635D01*
X62665365Y-83912027D01*
X62750224Y-84039027D01*
X62780385Y-84084167D01*
X62859611Y-84275436D01*
X62900000Y-84478484D01*
X62900000Y-84685516D01*
X62859611Y-84888564D01*
X62780385Y-85079833D01*
X62780384Y-85079835D01*
X62665365Y-85251973D01*
X62518973Y-85398365D01*
X62346835Y-85513384D01*
X62346834Y-85513385D01*
X62346833Y-85513385D01*
X62155564Y-85592611D01*
X61952516Y-85633000D01*
X61745484Y-85633000D01*
X61542436Y-85592611D01*
X61351167Y-85513385D01*
X61351166Y-85513385D01*
X61351165Y-85513384D01*
X61179027Y-85398365D01*
X61032635Y-85251973D01*
X60917616Y-85079835D01*
X60917615Y-85079833D01*
X60838389Y-84888564D01*
X60798000Y-84685516D01*
X60798000Y-84478484D01*
X60838389Y-84275436D01*
X60917615Y-84084167D01*
X60947777Y-84039027D01*
X61032635Y-83912027D01*
X61179027Y-83765635D01*
X61351165Y-83650616D01*
X61351167Y-83650615D01*
X61542436Y-83571389D01*
X61745484Y-83531000D01*
X61952516Y-83531000D01*
X62155564Y-83571389D01*
X62155564Y-83571389D01*
G37*
G36*
X56948564Y-83571389D02*
G01*
X57139833Y-83650615D01*
X57139835Y-83650616D01*
X57311973Y-83765635D01*
X57458365Y-83912027D01*
X57543224Y-84039027D01*
X57573385Y-84084167D01*
X57652611Y-84275436D01*
X57693000Y-84478484D01*
X57693000Y-84685516D01*
X57652611Y-84888564D01*
X57573385Y-85079833D01*
X57573384Y-85079835D01*
X57458365Y-85251973D01*
X57311973Y-85398365D01*
X57139835Y-85513384D01*
X57139834Y-85513385D01*
X57139833Y-85513385D01*
X56948564Y-85592611D01*
X56745516Y-85633000D01*
X56538484Y-85633000D01*
X56335436Y-85592611D01*
X56144167Y-85513385D01*
X56144166Y-85513385D01*
X56144165Y-85513384D01*
X55972027Y-85398365D01*
X55825635Y-85251973D01*
X55710616Y-85079835D01*
X55710615Y-85079833D01*
X55631389Y-84888564D01*
X55591000Y-84685516D01*
X55591000Y-84478484D01*
X55631389Y-84275436D01*
X55710615Y-84084167D01*
X55740777Y-84039027D01*
X55825635Y-83912027D01*
X55972027Y-83765635D01*
X56144165Y-83650616D01*
X56144167Y-83650615D01*
X56335436Y-83571389D01*
X56538484Y-83531000D01*
X56745516Y-83531000D01*
X56948564Y-83571389D01*
X56948564Y-83571389D01*
G37*
G36*
X53519564Y-83571389D02*
G01*
X53710833Y-83650615D01*
X53710835Y-83650616D01*
X53882973Y-83765635D01*
X54029365Y-83912027D01*
X54114224Y-84039027D01*
X54144385Y-84084167D01*
X54223611Y-84275436D01*
X54264000Y-84478484D01*
X54264000Y-84685516D01*
X54223611Y-84888564D01*
X54144385Y-85079833D01*
X54144384Y-85079835D01*
X54029365Y-85251973D01*
X53882973Y-85398365D01*
X53710835Y-85513384D01*
X53710834Y-85513385D01*
X53710833Y-85513385D01*
X53519564Y-85592611D01*
X53316516Y-85633000D01*
X53109484Y-85633000D01*
X52906436Y-85592611D01*
X52715167Y-85513385D01*
X52715166Y-85513385D01*
X52715165Y-85513384D01*
X52543027Y-85398365D01*
X52396635Y-85251973D01*
X52281616Y-85079835D01*
X52281615Y-85079833D01*
X52202389Y-84888564D01*
X52162000Y-84685516D01*
X52162000Y-84478484D01*
X52202389Y-84275436D01*
X52281615Y-84084167D01*
X52311777Y-84039027D01*
X52396635Y-83912027D01*
X52543027Y-83765635D01*
X52715165Y-83650616D01*
X52715167Y-83650615D01*
X52906436Y-83571389D01*
X53109484Y-83531000D01*
X53316516Y-83531000D01*
X53519564Y-83571389D01*
X53519564Y-83571389D01*
G37*
G36*
X39041564Y-83444389D02*
G01*
X39232833Y-83523615D01*
X39232835Y-83523616D01*
X39404973Y-83638635D01*
X39551365Y-83785027D01*
X39636224Y-83912027D01*
X39666385Y-83957167D01*
X39745611Y-84148436D01*
X39786000Y-84351484D01*
X39786000Y-84558516D01*
X39745611Y-84761564D01*
X39666385Y-84952833D01*
X39666384Y-84952835D01*
X39551365Y-85124973D01*
X39404973Y-85271365D01*
X39232835Y-85386384D01*
X39232834Y-85386385D01*
X39232833Y-85386385D01*
X39041564Y-85465611D01*
X38838516Y-85506000D01*
X38631484Y-85506000D01*
X38428436Y-85465611D01*
X38237167Y-85386385D01*
X38237166Y-85386385D01*
X38237165Y-85386384D01*
X38065027Y-85271365D01*
X37918635Y-85124973D01*
X37803616Y-84952835D01*
X37803615Y-84952833D01*
X37724389Y-84761564D01*
X37684000Y-84558516D01*
X37684000Y-84351484D01*
X37724389Y-84148436D01*
X37803615Y-83957167D01*
X37833777Y-83912027D01*
X37918635Y-83785027D01*
X38065027Y-83638635D01*
X38237165Y-83523616D01*
X38237167Y-83523615D01*
X38428436Y-83444389D01*
X38631484Y-83404000D01*
X38838516Y-83404000D01*
X39041564Y-83444389D01*
X39041564Y-83444389D01*
G37*
G36*
X24944564Y-83444389D02*
G01*
X25135833Y-83523615D01*
X25135835Y-83523616D01*
X25307973Y-83638635D01*
X25454365Y-83785027D01*
X25539224Y-83912027D01*
X25569385Y-83957167D01*
X25648611Y-84148436D01*
X25689000Y-84351484D01*
X25689000Y-84558516D01*
X25648611Y-84761564D01*
X25569385Y-84952833D01*
X25569384Y-84952835D01*
X25454365Y-85124973D01*
X25307973Y-85271365D01*
X25135835Y-85386384D01*
X25135834Y-85386385D01*
X25135833Y-85386385D01*
X24944564Y-85465611D01*
X24741516Y-85506000D01*
X24534484Y-85506000D01*
X24331436Y-85465611D01*
X24140167Y-85386385D01*
X24140166Y-85386385D01*
X24140165Y-85386384D01*
X23968027Y-85271365D01*
X23821635Y-85124973D01*
X23706616Y-84952835D01*
X23706615Y-84952833D01*
X23627389Y-84761564D01*
X23587000Y-84558516D01*
X23587000Y-84351484D01*
X23627389Y-84148436D01*
X23706615Y-83957167D01*
X23736777Y-83912027D01*
X23821635Y-83785027D01*
X23968027Y-83638635D01*
X24140165Y-83523616D01*
X24140167Y-83523615D01*
X24331436Y-83444389D01*
X24534484Y-83404000D01*
X24741516Y-83404000D01*
X24944564Y-83444389D01*
X24944564Y-83444389D01*
G37*
G36*
X29516564Y-83444389D02*
G01*
X29707833Y-83523615D01*
X29707835Y-83523616D01*
X29879973Y-83638635D01*
X30026365Y-83785027D01*
X30111224Y-83912027D01*
X30141385Y-83957167D01*
X30220611Y-84148436D01*
X30261000Y-84351484D01*
X30261000Y-84558516D01*
X30220611Y-84761564D01*
X30141385Y-84952833D01*
X30141384Y-84952835D01*
X30026365Y-85124973D01*
X29879973Y-85271365D01*
X29707835Y-85386384D01*
X29707834Y-85386385D01*
X29707833Y-85386385D01*
X29516564Y-85465611D01*
X29313516Y-85506000D01*
X29106484Y-85506000D01*
X28903436Y-85465611D01*
X28712167Y-85386385D01*
X28712166Y-85386385D01*
X28712165Y-85386384D01*
X28540027Y-85271365D01*
X28393635Y-85124973D01*
X28278616Y-84952835D01*
X28278615Y-84952833D01*
X28199389Y-84761564D01*
X28159000Y-84558516D01*
X28159000Y-84351484D01*
X28199389Y-84148436D01*
X28278615Y-83957167D01*
X28308777Y-83912027D01*
X28393635Y-83785027D01*
X28540027Y-83638635D01*
X28712165Y-83523616D01*
X28712167Y-83523615D01*
X28903436Y-83444389D01*
X29106484Y-83404000D01*
X29313516Y-83404000D01*
X29516564Y-83444389D01*
X29516564Y-83444389D01*
G37*
G36*
X34596564Y-83444389D02*
G01*
X34787833Y-83523615D01*
X34787835Y-83523616D01*
X34959973Y-83638635D01*
X35106365Y-83785027D01*
X35191224Y-83912027D01*
X35221385Y-83957167D01*
X35300611Y-84148436D01*
X35341000Y-84351484D01*
X35341000Y-84558516D01*
X35300611Y-84761564D01*
X35221385Y-84952833D01*
X35221384Y-84952835D01*
X35106365Y-85124973D01*
X34959973Y-85271365D01*
X34787835Y-85386384D01*
X34787834Y-85386385D01*
X34787833Y-85386385D01*
X34596564Y-85465611D01*
X34393516Y-85506000D01*
X34186484Y-85506000D01*
X33983436Y-85465611D01*
X33792167Y-85386385D01*
X33792166Y-85386385D01*
X33792165Y-85386384D01*
X33620027Y-85271365D01*
X33473635Y-85124973D01*
X33358616Y-84952835D01*
X33358615Y-84952833D01*
X33279389Y-84761564D01*
X33239000Y-84558516D01*
X33239000Y-84351484D01*
X33279389Y-84148436D01*
X33358615Y-83957167D01*
X33388777Y-83912027D01*
X33473635Y-83785027D01*
X33620027Y-83638635D01*
X33792165Y-83523616D01*
X33792167Y-83523615D01*
X33983436Y-83444389D01*
X34186484Y-83404000D01*
X34393516Y-83404000D01*
X34596564Y-83444389D01*
X34596564Y-83444389D01*
G37*
G36*
X44121564Y-83444389D02*
G01*
X44312833Y-83523615D01*
X44312835Y-83523616D01*
X44484973Y-83638635D01*
X44631365Y-83785027D01*
X44716224Y-83912027D01*
X44746385Y-83957167D01*
X44825611Y-84148436D01*
X44866000Y-84351484D01*
X44866000Y-84558516D01*
X44825611Y-84761564D01*
X44746385Y-84952833D01*
X44746384Y-84952835D01*
X44631365Y-85124973D01*
X44484973Y-85271365D01*
X44312835Y-85386384D01*
X44312834Y-85386385D01*
X44312833Y-85386385D01*
X44121564Y-85465611D01*
X43918516Y-85506000D01*
X43711484Y-85506000D01*
X43508436Y-85465611D01*
X43317167Y-85386385D01*
X43317166Y-85386385D01*
X43317165Y-85386384D01*
X43145027Y-85271365D01*
X42998635Y-85124973D01*
X42883616Y-84952835D01*
X42883615Y-84952833D01*
X42804389Y-84761564D01*
X42764000Y-84558516D01*
X42764000Y-84351484D01*
X42804389Y-84148436D01*
X42883615Y-83957167D01*
X42913777Y-83912027D01*
X42998635Y-83785027D01*
X43145027Y-83638635D01*
X43317165Y-83523616D01*
X43317167Y-83523615D01*
X43508436Y-83444389D01*
X43711484Y-83404000D01*
X43918516Y-83404000D01*
X44121564Y-83444389D01*
X44121564Y-83444389D01*
G37*
G36*
X48058564Y-83444389D02*
G01*
X48249833Y-83523615D01*
X48249835Y-83523616D01*
X48421973Y-83638635D01*
X48568365Y-83785027D01*
X48653224Y-83912027D01*
X48683385Y-83957167D01*
X48762611Y-84148436D01*
X48803000Y-84351484D01*
X48803000Y-84558516D01*
X48762611Y-84761564D01*
X48683385Y-84952833D01*
X48683384Y-84952835D01*
X48568365Y-85124973D01*
X48421973Y-85271365D01*
X48249835Y-85386384D01*
X48249834Y-85386385D01*
X48249833Y-85386385D01*
X48058564Y-85465611D01*
X47855516Y-85506000D01*
X47648484Y-85506000D01*
X47445436Y-85465611D01*
X47254167Y-85386385D01*
X47254166Y-85386385D01*
X47254165Y-85386384D01*
X47082027Y-85271365D01*
X46935635Y-85124973D01*
X46820616Y-84952835D01*
X46820615Y-84952833D01*
X46741389Y-84761564D01*
X46701000Y-84558516D01*
X46701000Y-84351484D01*
X46741389Y-84148436D01*
X46820615Y-83957167D01*
X46850777Y-83912027D01*
X46935635Y-83785027D01*
X47082027Y-83638635D01*
X47254165Y-83523616D01*
X47254167Y-83523615D01*
X47445436Y-83444389D01*
X47648484Y-83404000D01*
X47855516Y-83404000D01*
X48058564Y-83444389D01*
X48058564Y-83444389D01*
G37*
G36*
X91365564Y-83317389D02*
G01*
X91556833Y-83396615D01*
X91556835Y-83396616D01*
X91728973Y-83511635D01*
X91875365Y-83658027D01*
X91960224Y-83785027D01*
X91990385Y-83830167D01*
X92069611Y-84021436D01*
X92110000Y-84224484D01*
X92110000Y-84431516D01*
X92069611Y-84634564D01*
X91995902Y-84812514D01*
X91990384Y-84825835D01*
X91875365Y-84997973D01*
X91728973Y-85144365D01*
X91556835Y-85259384D01*
X91556834Y-85259385D01*
X91556833Y-85259385D01*
X91365564Y-85338611D01*
X91162516Y-85379000D01*
X90955484Y-85379000D01*
X90752436Y-85338611D01*
X90561167Y-85259385D01*
X90561166Y-85259385D01*
X90561165Y-85259384D01*
X90389027Y-85144365D01*
X90242635Y-84997973D01*
X90127616Y-84825835D01*
X90122098Y-84812514D01*
X90048389Y-84634564D01*
X90008000Y-84431516D01*
X90008000Y-84224484D01*
X90048389Y-84021436D01*
X90127615Y-83830167D01*
X90157777Y-83785027D01*
X90242635Y-83658027D01*
X90389027Y-83511635D01*
X90561165Y-83396616D01*
X90561167Y-83396615D01*
X90752436Y-83317389D01*
X90955484Y-83277000D01*
X91162516Y-83277000D01*
X91365564Y-83317389D01*
X91365564Y-83317389D01*
G37*
G36*
X83745564Y-83317389D02*
G01*
X83936833Y-83396615D01*
X83936835Y-83396616D01*
X84108973Y-83511635D01*
X84255365Y-83658027D01*
X84340224Y-83785027D01*
X84370385Y-83830167D01*
X84449611Y-84021436D01*
X84490000Y-84224484D01*
X84490000Y-84431516D01*
X84449611Y-84634564D01*
X84375902Y-84812514D01*
X84370384Y-84825835D01*
X84255365Y-84997973D01*
X84108973Y-85144365D01*
X83936835Y-85259384D01*
X83936834Y-85259385D01*
X83936833Y-85259385D01*
X83745564Y-85338611D01*
X83542516Y-85379000D01*
X83335484Y-85379000D01*
X83132436Y-85338611D01*
X82941167Y-85259385D01*
X82941166Y-85259385D01*
X82941165Y-85259384D01*
X82769027Y-85144365D01*
X82622635Y-84997973D01*
X82507616Y-84825835D01*
X82502098Y-84812514D01*
X82428389Y-84634564D01*
X82388000Y-84431516D01*
X82388000Y-84224484D01*
X82428389Y-84021436D01*
X82507615Y-83830167D01*
X82537777Y-83785027D01*
X82622635Y-83658027D01*
X82769027Y-83511635D01*
X82941165Y-83396616D01*
X82941167Y-83396615D01*
X83132436Y-83317389D01*
X83335484Y-83277000D01*
X83542516Y-83277000D01*
X83745564Y-83317389D01*
X83745564Y-83317389D01*
G37*
G36*
X40460593Y-74085704D02*
G01*
X40697301Y-74183752D01*
X40697303Y-74183753D01*
X40910335Y-74326096D01*
X41091504Y-74507265D01*
X41222294Y-74703007D01*
X41233848Y-74720299D01*
X41331896Y-74957007D01*
X41381880Y-75208293D01*
X41381880Y-75464507D01*
X41331896Y-75715793D01*
X41233848Y-75952501D01*
X41233847Y-75952503D01*
X41091504Y-76165535D01*
X40910335Y-76346704D01*
X40697303Y-76489047D01*
X40697302Y-76489048D01*
X40697301Y-76489048D01*
X40460593Y-76587096D01*
X40209307Y-76637080D01*
X39953093Y-76637080D01*
X39701807Y-76587096D01*
X39465099Y-76489048D01*
X39465098Y-76489048D01*
X39465097Y-76489047D01*
X39252065Y-76346704D01*
X39070896Y-76165535D01*
X38928553Y-75952503D01*
X38928552Y-75952501D01*
X38830504Y-75715793D01*
X38780520Y-75464507D01*
X38780520Y-75208293D01*
X38830504Y-74957007D01*
X38928552Y-74720299D01*
X38940106Y-74703007D01*
X39070896Y-74507265D01*
X39252065Y-74326096D01*
X39465097Y-74183753D01*
X39465099Y-74183752D01*
X39701807Y-74085704D01*
X39953093Y-74035720D01*
X40209307Y-74035720D01*
X40460593Y-74085704D01*
X40460593Y-74085704D01*
G37*
G36*
X37571880Y-76637080D02*
G01*
X34970520Y-76637080D01*
X34970520Y-74035720D01*
X37571880Y-74035720D01*
X37571880Y-76637080D01*
X37571880Y-76637080D01*
G37*
G36*
X46153564Y-74554389D02*
G01*
X46344833Y-74633615D01*
X46344835Y-74633616D01*
X46448684Y-74703006D01*
X46516973Y-74748635D01*
X46663365Y-74895027D01*
X46778385Y-75067167D01*
X46857611Y-75258436D01*
X46898000Y-75461484D01*
X46898000Y-75668516D01*
X46857611Y-75871564D01*
X46778385Y-76062833D01*
X46778384Y-76062835D01*
X46663365Y-76234973D01*
X46516973Y-76381365D01*
X46344835Y-76496384D01*
X46344834Y-76496385D01*
X46344833Y-76496385D01*
X46153564Y-76575611D01*
X45950516Y-76616000D01*
X45743484Y-76616000D01*
X45540436Y-76575611D01*
X45349167Y-76496385D01*
X45349166Y-76496385D01*
X45349165Y-76496384D01*
X45177027Y-76381365D01*
X45030635Y-76234973D01*
X44915616Y-76062835D01*
X44915615Y-76062833D01*
X44836389Y-75871564D01*
X44796000Y-75668516D01*
X44796000Y-75461484D01*
X44836389Y-75258436D01*
X44915615Y-75067167D01*
X45030635Y-74895027D01*
X45177027Y-74748635D01*
X45245316Y-74703006D01*
X45349165Y-74633616D01*
X45349167Y-74633615D01*
X45540436Y-74554389D01*
X45743484Y-74514000D01*
X45950516Y-74514000D01*
X46153564Y-74554389D01*
X46153564Y-74554389D01*
G37*
G36*
X67892593Y-73831704D02*
G01*
X68129301Y-73929752D01*
X68129303Y-73929753D01*
X68342335Y-74072096D01*
X68523504Y-74253265D01*
X68665847Y-74466297D01*
X68665848Y-74466299D01*
X68763896Y-74703007D01*
X68813880Y-74954293D01*
X68813880Y-75210507D01*
X68763896Y-75461793D01*
X68678269Y-75668514D01*
X68665847Y-75698503D01*
X68523504Y-75911535D01*
X68342335Y-76092704D01*
X68129303Y-76235047D01*
X68129302Y-76235048D01*
X68129301Y-76235048D01*
X67892593Y-76333096D01*
X67641307Y-76383080D01*
X67385093Y-76383080D01*
X67133807Y-76333096D01*
X66897099Y-76235048D01*
X66897098Y-76235048D01*
X66897097Y-76235047D01*
X66684065Y-76092704D01*
X66502896Y-75911535D01*
X66360553Y-75698503D01*
X66348131Y-75668514D01*
X66262504Y-75461793D01*
X66212520Y-75210507D01*
X66212520Y-74954293D01*
X66262504Y-74703007D01*
X66360552Y-74466299D01*
X66360553Y-74466297D01*
X66502896Y-74253265D01*
X66684065Y-74072096D01*
X66897097Y-73929753D01*
X66897099Y-73929752D01*
X67133807Y-73831704D01*
X67385093Y-73781720D01*
X67641307Y-73781720D01*
X67892593Y-73831704D01*
X67892593Y-73831704D01*
G37*
G36*
X65003880Y-76383080D02*
G01*
X62402520Y-76383080D01*
X62402520Y-73781720D01*
X65003880Y-73781720D01*
X65003880Y-76383080D01*
X65003880Y-76383080D01*
G37*
G36*
X53319880Y-76383080D02*
G01*
X50718520Y-76383080D01*
X50718520Y-73781720D01*
X53319880Y-73781720D01*
X53319880Y-76383080D01*
X53319880Y-76383080D01*
G37*
G36*
X56208593Y-73831704D02*
G01*
X56445301Y-73929752D01*
X56445303Y-73929753D01*
X56658335Y-74072096D01*
X56839504Y-74253265D01*
X56981847Y-74466297D01*
X56981848Y-74466299D01*
X57079896Y-74703007D01*
X57129880Y-74954293D01*
X57129880Y-75210507D01*
X57079896Y-75461793D01*
X56994269Y-75668514D01*
X56981847Y-75698503D01*
X56839504Y-75911535D01*
X56658335Y-76092704D01*
X56445303Y-76235047D01*
X56445302Y-76235048D01*
X56445301Y-76235048D01*
X56208593Y-76333096D01*
X55957307Y-76383080D01*
X55701093Y-76383080D01*
X55449807Y-76333096D01*
X55213099Y-76235048D01*
X55213098Y-76235048D01*
X55213097Y-76235047D01*
X55000065Y-76092704D01*
X54818896Y-75911535D01*
X54676553Y-75698503D01*
X54664131Y-75668514D01*
X54578504Y-75461793D01*
X54528520Y-75210507D01*
X54528520Y-74954293D01*
X54578504Y-74703007D01*
X54676552Y-74466299D01*
X54676553Y-74466297D01*
X54818896Y-74253265D01*
X55000065Y-74072096D01*
X55213097Y-73929753D01*
X55213099Y-73929752D01*
X55449807Y-73831704D01*
X55701093Y-73781720D01*
X55957307Y-73781720D01*
X56208593Y-73831704D01*
X56208593Y-73831704D01*
G37*
G36*
X97563593Y-73470904D02*
G01*
X97800301Y-73568952D01*
X97800303Y-73568953D01*
X98013335Y-73711296D01*
X98194504Y-73892465D01*
X98323622Y-74085705D01*
X98336848Y-74105499D01*
X98434896Y-74342207D01*
X98484880Y-74593493D01*
X98484880Y-74849707D01*
X98434896Y-75100993D01*
X98336848Y-75337701D01*
X98336847Y-75337703D01*
X98194504Y-75550735D01*
X98013335Y-75731904D01*
X97800303Y-75874247D01*
X97800302Y-75874248D01*
X97800301Y-75874248D01*
X97563593Y-75972296D01*
X97312307Y-76022280D01*
X97056093Y-76022280D01*
X96804807Y-75972296D01*
X96568099Y-75874248D01*
X96568098Y-75874248D01*
X96568097Y-75874247D01*
X96355065Y-75731904D01*
X96173896Y-75550735D01*
X96031553Y-75337703D01*
X96031552Y-75337701D01*
X95933504Y-75100993D01*
X95883520Y-74849707D01*
X95883520Y-74593493D01*
X95933504Y-74342207D01*
X96031552Y-74105499D01*
X96044778Y-74085705D01*
X96173896Y-73892465D01*
X96355065Y-73711296D01*
X96568097Y-73568953D01*
X96568099Y-73568952D01*
X96804807Y-73470904D01*
X97056093Y-73420920D01*
X97312307Y-73420920D01*
X97563593Y-73470904D01*
X97563593Y-73470904D01*
G37*
G36*
X94674880Y-76022280D02*
G01*
X92073520Y-76022280D01*
X92073520Y-73420920D01*
X94674880Y-73420920D01*
X94674880Y-76022280D01*
X94674880Y-76022280D01*
G37*
G36*
X82529880Y-73335080D02*
G01*
X79928520Y-73335080D01*
X79928520Y-70733720D01*
X82529880Y-70733720D01*
X82529880Y-73335080D01*
X82529880Y-73335080D01*
G37*
G36*
X85418593Y-70783704D02*
G01*
X85655301Y-70881752D01*
X85655303Y-70881753D01*
X85868335Y-71024096D01*
X86049504Y-71205265D01*
X86191847Y-71418297D01*
X86191848Y-71418299D01*
X86289896Y-71655007D01*
X86339880Y-71906293D01*
X86339880Y-72162507D01*
X86289896Y-72413793D01*
X86191848Y-72650501D01*
X86191847Y-72650503D01*
X86049504Y-72863535D01*
X85868335Y-73044704D01*
X85655303Y-73187047D01*
X85655302Y-73187048D01*
X85655301Y-73187048D01*
X85418593Y-73285096D01*
X85167307Y-73335080D01*
X84911093Y-73335080D01*
X84659807Y-73285096D01*
X84423099Y-73187048D01*
X84423098Y-73187048D01*
X84423097Y-73187047D01*
X84210065Y-73044704D01*
X84028896Y-72863535D01*
X83886553Y-72650503D01*
X83886552Y-72650501D01*
X83788504Y-72413793D01*
X83738520Y-72162507D01*
X83738520Y-71906293D01*
X83788504Y-71655007D01*
X83886552Y-71418299D01*
X83886553Y-71418297D01*
X84028896Y-71205265D01*
X84210065Y-71024096D01*
X84423097Y-70881753D01*
X84423099Y-70881752D01*
X84659807Y-70783704D01*
X84911093Y-70733720D01*
X85167307Y-70733720D01*
X85418593Y-70783704D01*
X85418593Y-70783704D01*
G37*
G36*
X24634142Y-69361918D02*
G01*
X24700327Y-69368437D01*
X24870166Y-69419957D01*
X25026691Y-69503622D01*
X25062429Y-69532952D01*
X25163886Y-69616214D01*
X25247098Y-69717610D01*
X25276478Y-69753409D01*
X25360143Y-69909934D01*
X25411663Y-70079773D01*
X25429059Y-70256400D01*
X25411663Y-70433027D01*
X25360143Y-70602866D01*
X25276478Y-70759391D01*
X25256524Y-70783705D01*
X25163886Y-70896586D01*
X25062429Y-70979848D01*
X25026691Y-71009178D01*
X24870166Y-71092843D01*
X24700327Y-71144363D01*
X24634143Y-71150881D01*
X24567960Y-71157400D01*
X24479440Y-71157400D01*
X24413257Y-71150881D01*
X24347073Y-71144363D01*
X24177234Y-71092843D01*
X24020709Y-71009178D01*
X23984971Y-70979848D01*
X23883514Y-70896586D01*
X23790876Y-70783705D01*
X23770922Y-70759391D01*
X23687257Y-70602866D01*
X23635737Y-70433027D01*
X23618341Y-70256400D01*
X23635737Y-70079773D01*
X23687257Y-69909934D01*
X23770922Y-69753409D01*
X23800302Y-69717610D01*
X23883514Y-69616214D01*
X23984971Y-69532952D01*
X24020709Y-69503622D01*
X24177234Y-69419957D01*
X24347073Y-69368437D01*
X24413258Y-69361918D01*
X24479440Y-69355400D01*
X24567960Y-69355400D01*
X24634142Y-69361918D01*
X24634142Y-69361918D01*
G37*
G36*
X72894142Y-69361918D02*
G01*
X72960327Y-69368437D01*
X73130166Y-69419957D01*
X73286691Y-69503622D01*
X73322429Y-69532952D01*
X73423886Y-69616214D01*
X73507098Y-69717610D01*
X73536478Y-69753409D01*
X73620143Y-69909934D01*
X73671663Y-70079773D01*
X73689059Y-70256400D01*
X73671663Y-70433027D01*
X73620143Y-70602866D01*
X73536478Y-70759391D01*
X73516524Y-70783705D01*
X73423886Y-70896586D01*
X73322429Y-70979848D01*
X73286691Y-71009178D01*
X73130166Y-71092843D01*
X72960327Y-71144363D01*
X72894143Y-71150881D01*
X72827960Y-71157400D01*
X72739440Y-71157400D01*
X72673257Y-71150881D01*
X72607073Y-71144363D01*
X72437234Y-71092843D01*
X72280709Y-71009178D01*
X72244971Y-70979848D01*
X72143514Y-70896586D01*
X72050876Y-70783705D01*
X72030922Y-70759391D01*
X71947257Y-70602866D01*
X71895737Y-70433027D01*
X71878341Y-70256400D01*
X71895737Y-70079773D01*
X71947257Y-69909934D01*
X72030922Y-69753409D01*
X72060302Y-69717610D01*
X72143514Y-69616214D01*
X72244971Y-69532952D01*
X72280709Y-69503622D01*
X72437234Y-69419957D01*
X72607073Y-69368437D01*
X72673258Y-69361918D01*
X72739440Y-69355400D01*
X72827960Y-69355400D01*
X72894142Y-69361918D01*
X72894142Y-69361918D01*
G37*
G36*
X67814142Y-69361918D02*
G01*
X67880327Y-69368437D01*
X68050166Y-69419957D01*
X68206691Y-69503622D01*
X68242429Y-69532952D01*
X68343886Y-69616214D01*
X68427098Y-69717610D01*
X68456478Y-69753409D01*
X68540143Y-69909934D01*
X68591663Y-70079773D01*
X68609059Y-70256400D01*
X68591663Y-70433027D01*
X68540143Y-70602866D01*
X68456478Y-70759391D01*
X68436524Y-70783705D01*
X68343886Y-70896586D01*
X68242429Y-70979848D01*
X68206691Y-71009178D01*
X68050166Y-71092843D01*
X67880327Y-71144363D01*
X67814143Y-71150881D01*
X67747960Y-71157400D01*
X67659440Y-71157400D01*
X67593257Y-71150881D01*
X67527073Y-71144363D01*
X67357234Y-71092843D01*
X67200709Y-71009178D01*
X67164971Y-70979848D01*
X67063514Y-70896586D01*
X66970876Y-70783705D01*
X66950922Y-70759391D01*
X66867257Y-70602866D01*
X66815737Y-70433027D01*
X66798341Y-70256400D01*
X66815737Y-70079773D01*
X66867257Y-69909934D01*
X66950922Y-69753409D01*
X66980302Y-69717610D01*
X67063514Y-69616214D01*
X67164971Y-69532952D01*
X67200709Y-69503622D01*
X67357234Y-69419957D01*
X67527073Y-69368437D01*
X67593258Y-69361918D01*
X67659440Y-69355400D01*
X67747960Y-69355400D01*
X67814142Y-69361918D01*
X67814142Y-69361918D01*
G37*
G36*
X55114142Y-69361918D02*
G01*
X55180327Y-69368437D01*
X55350166Y-69419957D01*
X55506691Y-69503622D01*
X55542429Y-69532952D01*
X55643886Y-69616214D01*
X55727098Y-69717610D01*
X55756478Y-69753409D01*
X55840143Y-69909934D01*
X55891663Y-70079773D01*
X55909059Y-70256400D01*
X55891663Y-70433027D01*
X55840143Y-70602866D01*
X55756478Y-70759391D01*
X55736524Y-70783705D01*
X55643886Y-70896586D01*
X55542429Y-70979848D01*
X55506691Y-71009178D01*
X55350166Y-71092843D01*
X55180327Y-71144363D01*
X55114143Y-71150881D01*
X55047960Y-71157400D01*
X54959440Y-71157400D01*
X54893257Y-71150881D01*
X54827073Y-71144363D01*
X54657234Y-71092843D01*
X54500709Y-71009178D01*
X54464971Y-70979848D01*
X54363514Y-70896586D01*
X54270876Y-70783705D01*
X54250922Y-70759391D01*
X54167257Y-70602866D01*
X54115737Y-70433027D01*
X54098341Y-70256400D01*
X54115737Y-70079773D01*
X54167257Y-69909934D01*
X54250922Y-69753409D01*
X54280302Y-69717610D01*
X54363514Y-69616214D01*
X54464971Y-69532952D01*
X54500709Y-69503622D01*
X54657234Y-69419957D01*
X54827073Y-69368437D01*
X54893258Y-69361918D01*
X54959440Y-69355400D01*
X55047960Y-69355400D01*
X55114142Y-69361918D01*
X55114142Y-69361918D01*
G37*
G36*
X70354142Y-69361918D02*
G01*
X70420327Y-69368437D01*
X70590166Y-69419957D01*
X70746691Y-69503622D01*
X70782429Y-69532952D01*
X70883886Y-69616214D01*
X70967098Y-69717610D01*
X70996478Y-69753409D01*
X71080143Y-69909934D01*
X71131663Y-70079773D01*
X71149059Y-70256400D01*
X71131663Y-70433027D01*
X71080143Y-70602866D01*
X70996478Y-70759391D01*
X70976524Y-70783705D01*
X70883886Y-70896586D01*
X70782429Y-70979848D01*
X70746691Y-71009178D01*
X70590166Y-71092843D01*
X70420327Y-71144363D01*
X70354143Y-71150881D01*
X70287960Y-71157400D01*
X70199440Y-71157400D01*
X70133257Y-71150881D01*
X70067073Y-71144363D01*
X69897234Y-71092843D01*
X69740709Y-71009178D01*
X69704971Y-70979848D01*
X69603514Y-70896586D01*
X69510876Y-70783705D01*
X69490922Y-70759391D01*
X69407257Y-70602866D01*
X69355737Y-70433027D01*
X69338341Y-70256400D01*
X69355737Y-70079773D01*
X69407257Y-69909934D01*
X69490922Y-69753409D01*
X69520302Y-69717610D01*
X69603514Y-69616214D01*
X69704971Y-69532952D01*
X69740709Y-69503622D01*
X69897234Y-69419957D01*
X70067073Y-69368437D01*
X70133258Y-69361918D01*
X70199440Y-69355400D01*
X70287960Y-69355400D01*
X70354142Y-69361918D01*
X70354142Y-69361918D01*
G37*
G36*
X57654142Y-69361918D02*
G01*
X57720327Y-69368437D01*
X57890166Y-69419957D01*
X58046691Y-69503622D01*
X58082429Y-69532952D01*
X58183886Y-69616214D01*
X58267098Y-69717610D01*
X58296478Y-69753409D01*
X58380143Y-69909934D01*
X58431663Y-70079773D01*
X58449059Y-70256400D01*
X58431663Y-70433027D01*
X58380143Y-70602866D01*
X58296478Y-70759391D01*
X58276524Y-70783705D01*
X58183886Y-70896586D01*
X58082429Y-70979848D01*
X58046691Y-71009178D01*
X57890166Y-71092843D01*
X57720327Y-71144363D01*
X57654143Y-71150881D01*
X57587960Y-71157400D01*
X57499440Y-71157400D01*
X57433257Y-71150881D01*
X57367073Y-71144363D01*
X57197234Y-71092843D01*
X57040709Y-71009178D01*
X57004971Y-70979848D01*
X56903514Y-70896586D01*
X56810876Y-70783705D01*
X56790922Y-70759391D01*
X56707257Y-70602866D01*
X56655737Y-70433027D01*
X56638341Y-70256400D01*
X56655737Y-70079773D01*
X56707257Y-69909934D01*
X56790922Y-69753409D01*
X56820302Y-69717610D01*
X56903514Y-69616214D01*
X57004971Y-69532952D01*
X57040709Y-69503622D01*
X57197234Y-69419957D01*
X57367073Y-69368437D01*
X57433258Y-69361918D01*
X57499440Y-69355400D01*
X57587960Y-69355400D01*
X57654142Y-69361918D01*
X57654142Y-69361918D01*
G37*
G36*
X60194142Y-69361918D02*
G01*
X60260327Y-69368437D01*
X60430166Y-69419957D01*
X60586691Y-69503622D01*
X60622429Y-69532952D01*
X60723886Y-69616214D01*
X60807098Y-69717610D01*
X60836478Y-69753409D01*
X60920143Y-69909934D01*
X60971663Y-70079773D01*
X60989059Y-70256400D01*
X60971663Y-70433027D01*
X60920143Y-70602866D01*
X60836478Y-70759391D01*
X60816524Y-70783705D01*
X60723886Y-70896586D01*
X60622429Y-70979848D01*
X60586691Y-71009178D01*
X60430166Y-71092843D01*
X60260327Y-71144363D01*
X60194143Y-71150881D01*
X60127960Y-71157400D01*
X60039440Y-71157400D01*
X59973257Y-71150881D01*
X59907073Y-71144363D01*
X59737234Y-71092843D01*
X59580709Y-71009178D01*
X59544971Y-70979848D01*
X59443514Y-70896586D01*
X59350876Y-70783705D01*
X59330922Y-70759391D01*
X59247257Y-70602866D01*
X59195737Y-70433027D01*
X59178341Y-70256400D01*
X59195737Y-70079773D01*
X59247257Y-69909934D01*
X59330922Y-69753409D01*
X59360302Y-69717610D01*
X59443514Y-69616214D01*
X59544971Y-69532952D01*
X59580709Y-69503622D01*
X59737234Y-69419957D01*
X59907073Y-69368437D01*
X59973258Y-69361918D01*
X60039440Y-69355400D01*
X60127960Y-69355400D01*
X60194142Y-69361918D01*
X60194142Y-69361918D01*
G37*
G36*
X65274142Y-69361918D02*
G01*
X65340327Y-69368437D01*
X65510166Y-69419957D01*
X65666691Y-69503622D01*
X65702429Y-69532952D01*
X65803886Y-69616214D01*
X65887098Y-69717610D01*
X65916478Y-69753409D01*
X66000143Y-69909934D01*
X66051663Y-70079773D01*
X66069059Y-70256400D01*
X66051663Y-70433027D01*
X66000143Y-70602866D01*
X65916478Y-70759391D01*
X65896524Y-70783705D01*
X65803886Y-70896586D01*
X65702429Y-70979848D01*
X65666691Y-71009178D01*
X65510166Y-71092843D01*
X65340327Y-71144363D01*
X65274143Y-71150881D01*
X65207960Y-71157400D01*
X65119440Y-71157400D01*
X65053257Y-71150881D01*
X64987073Y-71144363D01*
X64817234Y-71092843D01*
X64660709Y-71009178D01*
X64624971Y-70979848D01*
X64523514Y-70896586D01*
X64430876Y-70783705D01*
X64410922Y-70759391D01*
X64327257Y-70602866D01*
X64275737Y-70433027D01*
X64258341Y-70256400D01*
X64275737Y-70079773D01*
X64327257Y-69909934D01*
X64410922Y-69753409D01*
X64440302Y-69717610D01*
X64523514Y-69616214D01*
X64624971Y-69532952D01*
X64660709Y-69503622D01*
X64817234Y-69419957D01*
X64987073Y-69368437D01*
X65053258Y-69361918D01*
X65119440Y-69355400D01*
X65207960Y-69355400D01*
X65274142Y-69361918D01*
X65274142Y-69361918D01*
G37*
G36*
X62734142Y-69361918D02*
G01*
X62800327Y-69368437D01*
X62970166Y-69419957D01*
X63126691Y-69503622D01*
X63162429Y-69532952D01*
X63263886Y-69616214D01*
X63347098Y-69717610D01*
X63376478Y-69753409D01*
X63460143Y-69909934D01*
X63511663Y-70079773D01*
X63529059Y-70256400D01*
X63511663Y-70433027D01*
X63460143Y-70602866D01*
X63376478Y-70759391D01*
X63356524Y-70783705D01*
X63263886Y-70896586D01*
X63162429Y-70979848D01*
X63126691Y-71009178D01*
X62970166Y-71092843D01*
X62800327Y-71144363D01*
X62734143Y-71150881D01*
X62667960Y-71157400D01*
X62579440Y-71157400D01*
X62513257Y-71150881D01*
X62447073Y-71144363D01*
X62277234Y-71092843D01*
X62120709Y-71009178D01*
X62084971Y-70979848D01*
X61983514Y-70896586D01*
X61890876Y-70783705D01*
X61870922Y-70759391D01*
X61787257Y-70602866D01*
X61735737Y-70433027D01*
X61718341Y-70256400D01*
X61735737Y-70079773D01*
X61787257Y-69909934D01*
X61870922Y-69753409D01*
X61900302Y-69717610D01*
X61983514Y-69616214D01*
X62084971Y-69532952D01*
X62120709Y-69503622D01*
X62277234Y-69419957D01*
X62447073Y-69368437D01*
X62513258Y-69361918D01*
X62579440Y-69355400D01*
X62667960Y-69355400D01*
X62734142Y-69361918D01*
X62734142Y-69361918D01*
G37*
G36*
X29714142Y-69361918D02*
G01*
X29780327Y-69368437D01*
X29950166Y-69419957D01*
X30106691Y-69503622D01*
X30142429Y-69532952D01*
X30243886Y-69616214D01*
X30327098Y-69717610D01*
X30356478Y-69753409D01*
X30440143Y-69909934D01*
X30491663Y-70079773D01*
X30509059Y-70256400D01*
X30491663Y-70433027D01*
X30440143Y-70602866D01*
X30356478Y-70759391D01*
X30336524Y-70783705D01*
X30243886Y-70896586D01*
X30142429Y-70979848D01*
X30106691Y-71009178D01*
X29950166Y-71092843D01*
X29780327Y-71144363D01*
X29714143Y-71150881D01*
X29647960Y-71157400D01*
X29559440Y-71157400D01*
X29493257Y-71150881D01*
X29427073Y-71144363D01*
X29257234Y-71092843D01*
X29100709Y-71009178D01*
X29064971Y-70979848D01*
X28963514Y-70896586D01*
X28870876Y-70783705D01*
X28850922Y-70759391D01*
X28767257Y-70602866D01*
X28715737Y-70433027D01*
X28698341Y-70256400D01*
X28715737Y-70079773D01*
X28767257Y-69909934D01*
X28850922Y-69753409D01*
X28880302Y-69717610D01*
X28963514Y-69616214D01*
X29064971Y-69532952D01*
X29100709Y-69503622D01*
X29257234Y-69419957D01*
X29427073Y-69368437D01*
X29493258Y-69361918D01*
X29559440Y-69355400D01*
X29647960Y-69355400D01*
X29714142Y-69361918D01*
X29714142Y-69361918D01*
G37*
G36*
X39874142Y-69361918D02*
G01*
X39940327Y-69368437D01*
X40110166Y-69419957D01*
X40266691Y-69503622D01*
X40302429Y-69532952D01*
X40403886Y-69616214D01*
X40487098Y-69717610D01*
X40516478Y-69753409D01*
X40600143Y-69909934D01*
X40651663Y-70079773D01*
X40669059Y-70256400D01*
X40651663Y-70433027D01*
X40600143Y-70602866D01*
X40516478Y-70759391D01*
X40496524Y-70783705D01*
X40403886Y-70896586D01*
X40302429Y-70979848D01*
X40266691Y-71009178D01*
X40110166Y-71092843D01*
X39940327Y-71144363D01*
X39874143Y-71150881D01*
X39807960Y-71157400D01*
X39719440Y-71157400D01*
X39653257Y-71150881D01*
X39587073Y-71144363D01*
X39417234Y-71092843D01*
X39260709Y-71009178D01*
X39224971Y-70979848D01*
X39123514Y-70896586D01*
X39030876Y-70783705D01*
X39010922Y-70759391D01*
X38927257Y-70602866D01*
X38875737Y-70433027D01*
X38858341Y-70256400D01*
X38875737Y-70079773D01*
X38927257Y-69909934D01*
X39010922Y-69753409D01*
X39040302Y-69717610D01*
X39123514Y-69616214D01*
X39224971Y-69532952D01*
X39260709Y-69503622D01*
X39417234Y-69419957D01*
X39587073Y-69368437D01*
X39653258Y-69361918D01*
X39719440Y-69355400D01*
X39807960Y-69355400D01*
X39874142Y-69361918D01*
X39874142Y-69361918D01*
G37*
G36*
X42414142Y-69361918D02*
G01*
X42480327Y-69368437D01*
X42650166Y-69419957D01*
X42806691Y-69503622D01*
X42842429Y-69532952D01*
X42943886Y-69616214D01*
X43027098Y-69717610D01*
X43056478Y-69753409D01*
X43140143Y-69909934D01*
X43191663Y-70079773D01*
X43209059Y-70256400D01*
X43191663Y-70433027D01*
X43140143Y-70602866D01*
X43056478Y-70759391D01*
X43036524Y-70783705D01*
X42943886Y-70896586D01*
X42842429Y-70979848D01*
X42806691Y-71009178D01*
X42650166Y-71092843D01*
X42480327Y-71144363D01*
X42414143Y-71150881D01*
X42347960Y-71157400D01*
X42259440Y-71157400D01*
X42193257Y-71150881D01*
X42127073Y-71144363D01*
X41957234Y-71092843D01*
X41800709Y-71009178D01*
X41764971Y-70979848D01*
X41663514Y-70896586D01*
X41570876Y-70783705D01*
X41550922Y-70759391D01*
X41467257Y-70602866D01*
X41415737Y-70433027D01*
X41398341Y-70256400D01*
X41415737Y-70079773D01*
X41467257Y-69909934D01*
X41550922Y-69753409D01*
X41580302Y-69717610D01*
X41663514Y-69616214D01*
X41764971Y-69532952D01*
X41800709Y-69503622D01*
X41957234Y-69419957D01*
X42127073Y-69368437D01*
X42193258Y-69361918D01*
X42259440Y-69355400D01*
X42347960Y-69355400D01*
X42414142Y-69361918D01*
X42414142Y-69361918D01*
G37*
G36*
X32254142Y-69361918D02*
G01*
X32320327Y-69368437D01*
X32490166Y-69419957D01*
X32646691Y-69503622D01*
X32682429Y-69532952D01*
X32783886Y-69616214D01*
X32867098Y-69717610D01*
X32896478Y-69753409D01*
X32980143Y-69909934D01*
X33031663Y-70079773D01*
X33049059Y-70256400D01*
X33031663Y-70433027D01*
X32980143Y-70602866D01*
X32896478Y-70759391D01*
X32876524Y-70783705D01*
X32783886Y-70896586D01*
X32682429Y-70979848D01*
X32646691Y-71009178D01*
X32490166Y-71092843D01*
X32320327Y-71144363D01*
X32254143Y-71150881D01*
X32187960Y-71157400D01*
X32099440Y-71157400D01*
X32033257Y-71150881D01*
X31967073Y-71144363D01*
X31797234Y-71092843D01*
X31640709Y-71009178D01*
X31604971Y-70979848D01*
X31503514Y-70896586D01*
X31410876Y-70783705D01*
X31390922Y-70759391D01*
X31307257Y-70602866D01*
X31255737Y-70433027D01*
X31238341Y-70256400D01*
X31255737Y-70079773D01*
X31307257Y-69909934D01*
X31390922Y-69753409D01*
X31420302Y-69717610D01*
X31503514Y-69616214D01*
X31604971Y-69532952D01*
X31640709Y-69503622D01*
X31797234Y-69419957D01*
X31967073Y-69368437D01*
X32033258Y-69361918D01*
X32099440Y-69355400D01*
X32187960Y-69355400D01*
X32254142Y-69361918D01*
X32254142Y-69361918D01*
G37*
G36*
X34794142Y-69361918D02*
G01*
X34860327Y-69368437D01*
X35030166Y-69419957D01*
X35186691Y-69503622D01*
X35222429Y-69532952D01*
X35323886Y-69616214D01*
X35407098Y-69717610D01*
X35436478Y-69753409D01*
X35520143Y-69909934D01*
X35571663Y-70079773D01*
X35589059Y-70256400D01*
X35571663Y-70433027D01*
X35520143Y-70602866D01*
X35436478Y-70759391D01*
X35416524Y-70783705D01*
X35323886Y-70896586D01*
X35222429Y-70979848D01*
X35186691Y-71009178D01*
X35030166Y-71092843D01*
X34860327Y-71144363D01*
X34794143Y-71150881D01*
X34727960Y-71157400D01*
X34639440Y-71157400D01*
X34573257Y-71150881D01*
X34507073Y-71144363D01*
X34337234Y-71092843D01*
X34180709Y-71009178D01*
X34144971Y-70979848D01*
X34043514Y-70896586D01*
X33950876Y-70783705D01*
X33930922Y-70759391D01*
X33847257Y-70602866D01*
X33795737Y-70433027D01*
X33778341Y-70256400D01*
X33795737Y-70079773D01*
X33847257Y-69909934D01*
X33930922Y-69753409D01*
X33960302Y-69717610D01*
X34043514Y-69616214D01*
X34144971Y-69532952D01*
X34180709Y-69503622D01*
X34337234Y-69419957D01*
X34507073Y-69368437D01*
X34573258Y-69361918D01*
X34639440Y-69355400D01*
X34727960Y-69355400D01*
X34794142Y-69361918D01*
X34794142Y-69361918D01*
G37*
G36*
X47494142Y-69361918D02*
G01*
X47560327Y-69368437D01*
X47730166Y-69419957D01*
X47886691Y-69503622D01*
X47922429Y-69532952D01*
X48023886Y-69616214D01*
X48107098Y-69717610D01*
X48136478Y-69753409D01*
X48220143Y-69909934D01*
X48271663Y-70079773D01*
X48289059Y-70256400D01*
X48271663Y-70433027D01*
X48220143Y-70602866D01*
X48136478Y-70759391D01*
X48116524Y-70783705D01*
X48023886Y-70896586D01*
X47922429Y-70979848D01*
X47886691Y-71009178D01*
X47730166Y-71092843D01*
X47560327Y-71144363D01*
X47494143Y-71150881D01*
X47427960Y-71157400D01*
X47339440Y-71157400D01*
X47273257Y-71150881D01*
X47207073Y-71144363D01*
X47037234Y-71092843D01*
X46880709Y-71009178D01*
X46844971Y-70979848D01*
X46743514Y-70896586D01*
X46650876Y-70783705D01*
X46630922Y-70759391D01*
X46547257Y-70602866D01*
X46495737Y-70433027D01*
X46478341Y-70256400D01*
X46495737Y-70079773D01*
X46547257Y-69909934D01*
X46630922Y-69753409D01*
X46660302Y-69717610D01*
X46743514Y-69616214D01*
X46844971Y-69532952D01*
X46880709Y-69503622D01*
X47037234Y-69419957D01*
X47207073Y-69368437D01*
X47273258Y-69361918D01*
X47339440Y-69355400D01*
X47427960Y-69355400D01*
X47494142Y-69361918D01*
X47494142Y-69361918D01*
G37*
G36*
X37334142Y-69361918D02*
G01*
X37400327Y-69368437D01*
X37570166Y-69419957D01*
X37726691Y-69503622D01*
X37762429Y-69532952D01*
X37863886Y-69616214D01*
X37947098Y-69717610D01*
X37976478Y-69753409D01*
X38060143Y-69909934D01*
X38111663Y-70079773D01*
X38129059Y-70256400D01*
X38111663Y-70433027D01*
X38060143Y-70602866D01*
X37976478Y-70759391D01*
X37956524Y-70783705D01*
X37863886Y-70896586D01*
X37762429Y-70979848D01*
X37726691Y-71009178D01*
X37570166Y-71092843D01*
X37400327Y-71144363D01*
X37334143Y-71150881D01*
X37267960Y-71157400D01*
X37179440Y-71157400D01*
X37113257Y-71150881D01*
X37047073Y-71144363D01*
X36877234Y-71092843D01*
X36720709Y-71009178D01*
X36684971Y-70979848D01*
X36583514Y-70896586D01*
X36490876Y-70783705D01*
X36470922Y-70759391D01*
X36387257Y-70602866D01*
X36335737Y-70433027D01*
X36318341Y-70256400D01*
X36335737Y-70079773D01*
X36387257Y-69909934D01*
X36470922Y-69753409D01*
X36500302Y-69717610D01*
X36583514Y-69616214D01*
X36684971Y-69532952D01*
X36720709Y-69503622D01*
X36877234Y-69419957D01*
X37047073Y-69368437D01*
X37113258Y-69361918D01*
X37179440Y-69355400D01*
X37267960Y-69355400D01*
X37334142Y-69361918D01*
X37334142Y-69361918D01*
G37*
G36*
X50034142Y-69361918D02*
G01*
X50100327Y-69368437D01*
X50270166Y-69419957D01*
X50426691Y-69503622D01*
X50462429Y-69532952D01*
X50563886Y-69616214D01*
X50647098Y-69717610D01*
X50676478Y-69753409D01*
X50760143Y-69909934D01*
X50811663Y-70079773D01*
X50829059Y-70256400D01*
X50811663Y-70433027D01*
X50760143Y-70602866D01*
X50676478Y-70759391D01*
X50656524Y-70783705D01*
X50563886Y-70896586D01*
X50462429Y-70979848D01*
X50426691Y-71009178D01*
X50270166Y-71092843D01*
X50100327Y-71144363D01*
X50034143Y-71150881D01*
X49967960Y-71157400D01*
X49879440Y-71157400D01*
X49813257Y-71150881D01*
X49747073Y-71144363D01*
X49577234Y-71092843D01*
X49420709Y-71009178D01*
X49384971Y-70979848D01*
X49283514Y-70896586D01*
X49190876Y-70783705D01*
X49170922Y-70759391D01*
X49087257Y-70602866D01*
X49035737Y-70433027D01*
X49018341Y-70256400D01*
X49035737Y-70079773D01*
X49087257Y-69909934D01*
X49170922Y-69753409D01*
X49200302Y-69717610D01*
X49283514Y-69616214D01*
X49384971Y-69532952D01*
X49420709Y-69503622D01*
X49577234Y-69419957D01*
X49747073Y-69368437D01*
X49813258Y-69361918D01*
X49879440Y-69355400D01*
X49967960Y-69355400D01*
X50034142Y-69361918D01*
X50034142Y-69361918D01*
G37*
G36*
X52574142Y-69361918D02*
G01*
X52640327Y-69368437D01*
X52810166Y-69419957D01*
X52966691Y-69503622D01*
X53002429Y-69532952D01*
X53103886Y-69616214D01*
X53187098Y-69717610D01*
X53216478Y-69753409D01*
X53300143Y-69909934D01*
X53351663Y-70079773D01*
X53369059Y-70256400D01*
X53351663Y-70433027D01*
X53300143Y-70602866D01*
X53216478Y-70759391D01*
X53196524Y-70783705D01*
X53103886Y-70896586D01*
X53002429Y-70979848D01*
X52966691Y-71009178D01*
X52810166Y-71092843D01*
X52640327Y-71144363D01*
X52574143Y-71150881D01*
X52507960Y-71157400D01*
X52419440Y-71157400D01*
X52353257Y-71150881D01*
X52287073Y-71144363D01*
X52117234Y-71092843D01*
X51960709Y-71009178D01*
X51924971Y-70979848D01*
X51823514Y-70896586D01*
X51730876Y-70783705D01*
X51710922Y-70759391D01*
X51627257Y-70602866D01*
X51575737Y-70433027D01*
X51558341Y-70256400D01*
X51575737Y-70079773D01*
X51627257Y-69909934D01*
X51710922Y-69753409D01*
X51740302Y-69717610D01*
X51823514Y-69616214D01*
X51924971Y-69532952D01*
X51960709Y-69503622D01*
X52117234Y-69419957D01*
X52287073Y-69368437D01*
X52353258Y-69361918D01*
X52419440Y-69355400D01*
X52507960Y-69355400D01*
X52574142Y-69361918D01*
X52574142Y-69361918D01*
G37*
G36*
X44954142Y-69361918D02*
G01*
X45020327Y-69368437D01*
X45190166Y-69419957D01*
X45346691Y-69503622D01*
X45382429Y-69532952D01*
X45483886Y-69616214D01*
X45567098Y-69717610D01*
X45596478Y-69753409D01*
X45680143Y-69909934D01*
X45731663Y-70079773D01*
X45749059Y-70256400D01*
X45731663Y-70433027D01*
X45680143Y-70602866D01*
X45596478Y-70759391D01*
X45576524Y-70783705D01*
X45483886Y-70896586D01*
X45382429Y-70979848D01*
X45346691Y-71009178D01*
X45190166Y-71092843D01*
X45020327Y-71144363D01*
X44954143Y-71150881D01*
X44887960Y-71157400D01*
X44799440Y-71157400D01*
X44733257Y-71150881D01*
X44667073Y-71144363D01*
X44497234Y-71092843D01*
X44340709Y-71009178D01*
X44304971Y-70979848D01*
X44203514Y-70896586D01*
X44110876Y-70783705D01*
X44090922Y-70759391D01*
X44007257Y-70602866D01*
X43955737Y-70433027D01*
X43938341Y-70256400D01*
X43955737Y-70079773D01*
X44007257Y-69909934D01*
X44090922Y-69753409D01*
X44120302Y-69717610D01*
X44203514Y-69616214D01*
X44304971Y-69532952D01*
X44340709Y-69503622D01*
X44497234Y-69419957D01*
X44667073Y-69368437D01*
X44733258Y-69361918D01*
X44799440Y-69355400D01*
X44887960Y-69355400D01*
X44954142Y-69361918D01*
X44954142Y-69361918D01*
G37*
G36*
X27174142Y-69361918D02*
G01*
X27240327Y-69368437D01*
X27410166Y-69419957D01*
X27566691Y-69503622D01*
X27602429Y-69532952D01*
X27703886Y-69616214D01*
X27787098Y-69717610D01*
X27816478Y-69753409D01*
X27900143Y-69909934D01*
X27951663Y-70079773D01*
X27969059Y-70256400D01*
X27951663Y-70433027D01*
X27900143Y-70602866D01*
X27816478Y-70759391D01*
X27796524Y-70783705D01*
X27703886Y-70896586D01*
X27602429Y-70979848D01*
X27566691Y-71009178D01*
X27410166Y-71092843D01*
X27240327Y-71144363D01*
X27174143Y-71150881D01*
X27107960Y-71157400D01*
X27019440Y-71157400D01*
X26953257Y-71150881D01*
X26887073Y-71144363D01*
X26717234Y-71092843D01*
X26560709Y-71009178D01*
X26524971Y-70979848D01*
X26423514Y-70896586D01*
X26330876Y-70783705D01*
X26310922Y-70759391D01*
X26227257Y-70602866D01*
X26175737Y-70433027D01*
X26158341Y-70256400D01*
X26175737Y-70079773D01*
X26227257Y-69909934D01*
X26310922Y-69753409D01*
X26340302Y-69717610D01*
X26423514Y-69616214D01*
X26524971Y-69532952D01*
X26560709Y-69503622D01*
X26717234Y-69419957D01*
X26887073Y-69368437D01*
X26953258Y-69361918D01*
X27019440Y-69355400D01*
X27107960Y-69355400D01*
X27174142Y-69361918D01*
X27174142Y-69361918D01*
G37*
G36*
X91619564Y-67696389D02*
G01*
X91810833Y-67775615D01*
X91810835Y-67775616D01*
X91982973Y-67890635D01*
X92129365Y-68037027D01*
X92244385Y-68209167D01*
X92323611Y-68400436D01*
X92364000Y-68603484D01*
X92364000Y-68810516D01*
X92323611Y-69013564D01*
X92244385Y-69204833D01*
X92244384Y-69204835D01*
X92129365Y-69376973D01*
X91982973Y-69523365D01*
X91810835Y-69638384D01*
X91810834Y-69638385D01*
X91810833Y-69638385D01*
X91619564Y-69717611D01*
X91416516Y-69758000D01*
X91209484Y-69758000D01*
X91006436Y-69717611D01*
X90815167Y-69638385D01*
X90815166Y-69638385D01*
X90815165Y-69638384D01*
X90643027Y-69523365D01*
X90496635Y-69376973D01*
X90381616Y-69204835D01*
X90381615Y-69204833D01*
X90302389Y-69013564D01*
X90262000Y-68810516D01*
X90262000Y-68603484D01*
X90302389Y-68400436D01*
X90381615Y-68209167D01*
X90496635Y-68037027D01*
X90643027Y-67890635D01*
X90815165Y-67775616D01*
X90815167Y-67775615D01*
X91006436Y-67696389D01*
X91209484Y-67656000D01*
X91416516Y-67656000D01*
X91619564Y-67696389D01*
X91619564Y-67696389D01*
G37*
G36*
X99112564Y-67696389D02*
G01*
X99303833Y-67775615D01*
X99303835Y-67775616D01*
X99475973Y-67890635D01*
X99622365Y-68037027D01*
X99737385Y-68209167D01*
X99816611Y-68400436D01*
X99857000Y-68603484D01*
X99857000Y-68810516D01*
X99816611Y-69013564D01*
X99737385Y-69204833D01*
X99737384Y-69204835D01*
X99622365Y-69376973D01*
X99475973Y-69523365D01*
X99303835Y-69638384D01*
X99303834Y-69638385D01*
X99303833Y-69638385D01*
X99112564Y-69717611D01*
X98909516Y-69758000D01*
X98702484Y-69758000D01*
X98499436Y-69717611D01*
X98308167Y-69638385D01*
X98308166Y-69638385D01*
X98308165Y-69638384D01*
X98136027Y-69523365D01*
X97989635Y-69376973D01*
X97874616Y-69204835D01*
X97874615Y-69204833D01*
X97795389Y-69013564D01*
X97755000Y-68810516D01*
X97755000Y-68603484D01*
X97795389Y-68400436D01*
X97874615Y-68209167D01*
X97989635Y-68037027D01*
X98136027Y-67890635D01*
X98308165Y-67775616D01*
X98308167Y-67775615D01*
X98499436Y-67696389D01*
X98702484Y-67656000D01*
X98909516Y-67656000D01*
X99112564Y-67696389D01*
X99112564Y-67696389D01*
G37*
G36*
X82529880Y-69144080D02*
G01*
X79928520Y-69144080D01*
X79928520Y-66542720D01*
X82529880Y-66542720D01*
X82529880Y-69144080D01*
X82529880Y-69144080D01*
G37*
G36*
X85418593Y-66592704D02*
G01*
X85655301Y-66690752D01*
X85655303Y-66690753D01*
X85868335Y-66833096D01*
X86049504Y-67014265D01*
X86191847Y-67227297D01*
X86191848Y-67227299D01*
X86289896Y-67464007D01*
X86339880Y-67715293D01*
X86339880Y-67971507D01*
X86289896Y-68222793D01*
X86191848Y-68459501D01*
X86191847Y-68459503D01*
X86049504Y-68672535D01*
X85868335Y-68853704D01*
X85655303Y-68996047D01*
X85655302Y-68996048D01*
X85655301Y-68996048D01*
X85418593Y-69094096D01*
X85167307Y-69144080D01*
X84911093Y-69144080D01*
X84659807Y-69094096D01*
X84423099Y-68996048D01*
X84423098Y-68996048D01*
X84423097Y-68996047D01*
X84210065Y-68853704D01*
X84028896Y-68672535D01*
X83886553Y-68459503D01*
X83886552Y-68459501D01*
X83788504Y-68222793D01*
X83738520Y-67971507D01*
X83738520Y-67715293D01*
X83788504Y-67464007D01*
X83886552Y-67227299D01*
X83886553Y-67227297D01*
X84028896Y-67014265D01*
X84210065Y-66833096D01*
X84423097Y-66690753D01*
X84423099Y-66690752D01*
X84659807Y-66592704D01*
X84911093Y-66542720D01*
X85167307Y-66542720D01*
X85418593Y-66592704D01*
X85418593Y-66592704D01*
G37*
G36*
X29714143Y-66821919D02*
G01*
X29780327Y-66828437D01*
X29950166Y-66879957D01*
X30106691Y-66963622D01*
X30142429Y-66992952D01*
X30243886Y-67076214D01*
X30327148Y-67177671D01*
X30356478Y-67213409D01*
X30440143Y-67369934D01*
X30491663Y-67539773D01*
X30509059Y-67716400D01*
X30491663Y-67893027D01*
X30440143Y-68062866D01*
X30356478Y-68219391D01*
X30353685Y-68222794D01*
X30243886Y-68356586D01*
X30142429Y-68439848D01*
X30106691Y-68469178D01*
X29950166Y-68552843D01*
X29780327Y-68604363D01*
X29714142Y-68610882D01*
X29647960Y-68617400D01*
X29559440Y-68617400D01*
X29493258Y-68610882D01*
X29427073Y-68604363D01*
X29257234Y-68552843D01*
X29100709Y-68469178D01*
X29064971Y-68439848D01*
X28963514Y-68356586D01*
X28853715Y-68222794D01*
X28850922Y-68219391D01*
X28767257Y-68062866D01*
X28715737Y-67893027D01*
X28698341Y-67716400D01*
X28715737Y-67539773D01*
X28767257Y-67369934D01*
X28850922Y-67213409D01*
X28880252Y-67177671D01*
X28963514Y-67076214D01*
X29064971Y-66992952D01*
X29100709Y-66963622D01*
X29257234Y-66879957D01*
X29427073Y-66828437D01*
X29493257Y-66821919D01*
X29559440Y-66815400D01*
X29647960Y-66815400D01*
X29714143Y-66821919D01*
X29714143Y-66821919D01*
G37*
G36*
X32254143Y-66821919D02*
G01*
X32320327Y-66828437D01*
X32490166Y-66879957D01*
X32646691Y-66963622D01*
X32682429Y-66992952D01*
X32783886Y-67076214D01*
X32867148Y-67177671D01*
X32896478Y-67213409D01*
X32980143Y-67369934D01*
X33031663Y-67539773D01*
X33049059Y-67716400D01*
X33031663Y-67893027D01*
X32980143Y-68062866D01*
X32896478Y-68219391D01*
X32893685Y-68222794D01*
X32783886Y-68356586D01*
X32682429Y-68439848D01*
X32646691Y-68469178D01*
X32490166Y-68552843D01*
X32320327Y-68604363D01*
X32254142Y-68610882D01*
X32187960Y-68617400D01*
X32099440Y-68617400D01*
X32033258Y-68610882D01*
X31967073Y-68604363D01*
X31797234Y-68552843D01*
X31640709Y-68469178D01*
X31604971Y-68439848D01*
X31503514Y-68356586D01*
X31393715Y-68222794D01*
X31390922Y-68219391D01*
X31307257Y-68062866D01*
X31255737Y-67893027D01*
X31238341Y-67716400D01*
X31255737Y-67539773D01*
X31307257Y-67369934D01*
X31390922Y-67213409D01*
X31420252Y-67177671D01*
X31503514Y-67076214D01*
X31604971Y-66992952D01*
X31640709Y-66963622D01*
X31797234Y-66879957D01*
X31967073Y-66828437D01*
X32033257Y-66821919D01*
X32099440Y-66815400D01*
X32187960Y-66815400D01*
X32254143Y-66821919D01*
X32254143Y-66821919D01*
G37*
G36*
X34794143Y-66821919D02*
G01*
X34860327Y-66828437D01*
X35030166Y-66879957D01*
X35186691Y-66963622D01*
X35222429Y-66992952D01*
X35323886Y-67076214D01*
X35407148Y-67177671D01*
X35436478Y-67213409D01*
X35520143Y-67369934D01*
X35571663Y-67539773D01*
X35589059Y-67716400D01*
X35571663Y-67893027D01*
X35520143Y-68062866D01*
X35436478Y-68219391D01*
X35433685Y-68222794D01*
X35323886Y-68356586D01*
X35222429Y-68439848D01*
X35186691Y-68469178D01*
X35030166Y-68552843D01*
X34860327Y-68604363D01*
X34794142Y-68610882D01*
X34727960Y-68617400D01*
X34639440Y-68617400D01*
X34573258Y-68610882D01*
X34507073Y-68604363D01*
X34337234Y-68552843D01*
X34180709Y-68469178D01*
X34144971Y-68439848D01*
X34043514Y-68356586D01*
X33933715Y-68222794D01*
X33930922Y-68219391D01*
X33847257Y-68062866D01*
X33795737Y-67893027D01*
X33778341Y-67716400D01*
X33795737Y-67539773D01*
X33847257Y-67369934D01*
X33930922Y-67213409D01*
X33960252Y-67177671D01*
X34043514Y-67076214D01*
X34144971Y-66992952D01*
X34180709Y-66963622D01*
X34337234Y-66879957D01*
X34507073Y-66828437D01*
X34573257Y-66821919D01*
X34639440Y-66815400D01*
X34727960Y-66815400D01*
X34794143Y-66821919D01*
X34794143Y-66821919D01*
G37*
G36*
X37334143Y-66821919D02*
G01*
X37400327Y-66828437D01*
X37570166Y-66879957D01*
X37726691Y-66963622D01*
X37762429Y-66992952D01*
X37863886Y-67076214D01*
X37947148Y-67177671D01*
X37976478Y-67213409D01*
X38060143Y-67369934D01*
X38111663Y-67539773D01*
X38129059Y-67716400D01*
X38111663Y-67893027D01*
X38060143Y-68062866D01*
X37976478Y-68219391D01*
X37973685Y-68222794D01*
X37863886Y-68356586D01*
X37762429Y-68439848D01*
X37726691Y-68469178D01*
X37570166Y-68552843D01*
X37400327Y-68604363D01*
X37334142Y-68610882D01*
X37267960Y-68617400D01*
X37179440Y-68617400D01*
X37113258Y-68610882D01*
X37047073Y-68604363D01*
X36877234Y-68552843D01*
X36720709Y-68469178D01*
X36684971Y-68439848D01*
X36583514Y-68356586D01*
X36473715Y-68222794D01*
X36470922Y-68219391D01*
X36387257Y-68062866D01*
X36335737Y-67893027D01*
X36318341Y-67716400D01*
X36335737Y-67539773D01*
X36387257Y-67369934D01*
X36470922Y-67213409D01*
X36500252Y-67177671D01*
X36583514Y-67076214D01*
X36684971Y-66992952D01*
X36720709Y-66963622D01*
X36877234Y-66879957D01*
X37047073Y-66828437D01*
X37113257Y-66821919D01*
X37179440Y-66815400D01*
X37267960Y-66815400D01*
X37334143Y-66821919D01*
X37334143Y-66821919D01*
G37*
G36*
X39874143Y-66821919D02*
G01*
X39940327Y-66828437D01*
X40110166Y-66879957D01*
X40266691Y-66963622D01*
X40302429Y-66992952D01*
X40403886Y-67076214D01*
X40487148Y-67177671D01*
X40516478Y-67213409D01*
X40600143Y-67369934D01*
X40651663Y-67539773D01*
X40669059Y-67716400D01*
X40651663Y-67893027D01*
X40600143Y-68062866D01*
X40516478Y-68219391D01*
X40513685Y-68222794D01*
X40403886Y-68356586D01*
X40302429Y-68439848D01*
X40266691Y-68469178D01*
X40110166Y-68552843D01*
X39940327Y-68604363D01*
X39874142Y-68610882D01*
X39807960Y-68617400D01*
X39719440Y-68617400D01*
X39653258Y-68610882D01*
X39587073Y-68604363D01*
X39417234Y-68552843D01*
X39260709Y-68469178D01*
X39224971Y-68439848D01*
X39123514Y-68356586D01*
X39013715Y-68222794D01*
X39010922Y-68219391D01*
X38927257Y-68062866D01*
X38875737Y-67893027D01*
X38858341Y-67716400D01*
X38875737Y-67539773D01*
X38927257Y-67369934D01*
X39010922Y-67213409D01*
X39040252Y-67177671D01*
X39123514Y-67076214D01*
X39224971Y-66992952D01*
X39260709Y-66963622D01*
X39417234Y-66879957D01*
X39587073Y-66828437D01*
X39653257Y-66821919D01*
X39719440Y-66815400D01*
X39807960Y-66815400D01*
X39874143Y-66821919D01*
X39874143Y-66821919D01*
G37*
G36*
X42414143Y-66821919D02*
G01*
X42480327Y-66828437D01*
X42650166Y-66879957D01*
X42806691Y-66963622D01*
X42842429Y-66992952D01*
X42943886Y-67076214D01*
X43027148Y-67177671D01*
X43056478Y-67213409D01*
X43140143Y-67369934D01*
X43191663Y-67539773D01*
X43209059Y-67716400D01*
X43191663Y-67893027D01*
X43140143Y-68062866D01*
X43056478Y-68219391D01*
X43053685Y-68222794D01*
X42943886Y-68356586D01*
X42842429Y-68439848D01*
X42806691Y-68469178D01*
X42650166Y-68552843D01*
X42480327Y-68604363D01*
X42414142Y-68610882D01*
X42347960Y-68617400D01*
X42259440Y-68617400D01*
X42193258Y-68610882D01*
X42127073Y-68604363D01*
X41957234Y-68552843D01*
X41800709Y-68469178D01*
X41764971Y-68439848D01*
X41663514Y-68356586D01*
X41553715Y-68222794D01*
X41550922Y-68219391D01*
X41467257Y-68062866D01*
X41415737Y-67893027D01*
X41398341Y-67716400D01*
X41415737Y-67539773D01*
X41467257Y-67369934D01*
X41550922Y-67213409D01*
X41580252Y-67177671D01*
X41663514Y-67076214D01*
X41764971Y-66992952D01*
X41800709Y-66963622D01*
X41957234Y-66879957D01*
X42127073Y-66828437D01*
X42193257Y-66821919D01*
X42259440Y-66815400D01*
X42347960Y-66815400D01*
X42414143Y-66821919D01*
X42414143Y-66821919D01*
G37*
G36*
X44954143Y-66821919D02*
G01*
X45020327Y-66828437D01*
X45190166Y-66879957D01*
X45346691Y-66963622D01*
X45382429Y-66992952D01*
X45483886Y-67076214D01*
X45567148Y-67177671D01*
X45596478Y-67213409D01*
X45680143Y-67369934D01*
X45731663Y-67539773D01*
X45749059Y-67716400D01*
X45731663Y-67893027D01*
X45680143Y-68062866D01*
X45596478Y-68219391D01*
X45593685Y-68222794D01*
X45483886Y-68356586D01*
X45382429Y-68439848D01*
X45346691Y-68469178D01*
X45190166Y-68552843D01*
X45020327Y-68604363D01*
X44954142Y-68610882D01*
X44887960Y-68617400D01*
X44799440Y-68617400D01*
X44733258Y-68610882D01*
X44667073Y-68604363D01*
X44497234Y-68552843D01*
X44340709Y-68469178D01*
X44304971Y-68439848D01*
X44203514Y-68356586D01*
X44093715Y-68222794D01*
X44090922Y-68219391D01*
X44007257Y-68062866D01*
X43955737Y-67893027D01*
X43938341Y-67716400D01*
X43955737Y-67539773D01*
X44007257Y-67369934D01*
X44090922Y-67213409D01*
X44120252Y-67177671D01*
X44203514Y-67076214D01*
X44304971Y-66992952D01*
X44340709Y-66963622D01*
X44497234Y-66879957D01*
X44667073Y-66828437D01*
X44733257Y-66821919D01*
X44799440Y-66815400D01*
X44887960Y-66815400D01*
X44954143Y-66821919D01*
X44954143Y-66821919D01*
G37*
G36*
X70354143Y-66821919D02*
G01*
X70420327Y-66828437D01*
X70590166Y-66879957D01*
X70746691Y-66963622D01*
X70782429Y-66992952D01*
X70883886Y-67076214D01*
X70967148Y-67177671D01*
X70996478Y-67213409D01*
X71080143Y-67369934D01*
X71131663Y-67539773D01*
X71149059Y-67716400D01*
X71131663Y-67893027D01*
X71080143Y-68062866D01*
X70996478Y-68219391D01*
X70993685Y-68222794D01*
X70883886Y-68356586D01*
X70782429Y-68439848D01*
X70746691Y-68469178D01*
X70590166Y-68552843D01*
X70420327Y-68604363D01*
X70354142Y-68610882D01*
X70287960Y-68617400D01*
X70199440Y-68617400D01*
X70133258Y-68610882D01*
X70067073Y-68604363D01*
X69897234Y-68552843D01*
X69740709Y-68469178D01*
X69704971Y-68439848D01*
X69603514Y-68356586D01*
X69493715Y-68222794D01*
X69490922Y-68219391D01*
X69407257Y-68062866D01*
X69355737Y-67893027D01*
X69338341Y-67716400D01*
X69355737Y-67539773D01*
X69407257Y-67369934D01*
X69490922Y-67213409D01*
X69520252Y-67177671D01*
X69603514Y-67076214D01*
X69704971Y-66992952D01*
X69740709Y-66963622D01*
X69897234Y-66879957D01*
X70067073Y-66828437D01*
X70133257Y-66821919D01*
X70199440Y-66815400D01*
X70287960Y-66815400D01*
X70354143Y-66821919D01*
X70354143Y-66821919D01*
G37*
G36*
X72894143Y-66821919D02*
G01*
X72960327Y-66828437D01*
X73130166Y-66879957D01*
X73286691Y-66963622D01*
X73322429Y-66992952D01*
X73423886Y-67076214D01*
X73507148Y-67177671D01*
X73536478Y-67213409D01*
X73620143Y-67369934D01*
X73671663Y-67539773D01*
X73689059Y-67716400D01*
X73671663Y-67893027D01*
X73620143Y-68062866D01*
X73536478Y-68219391D01*
X73533685Y-68222794D01*
X73423886Y-68356586D01*
X73322429Y-68439848D01*
X73286691Y-68469178D01*
X73130166Y-68552843D01*
X72960327Y-68604363D01*
X72894142Y-68610882D01*
X72827960Y-68617400D01*
X72739440Y-68617400D01*
X72673258Y-68610882D01*
X72607073Y-68604363D01*
X72437234Y-68552843D01*
X72280709Y-68469178D01*
X72244971Y-68439848D01*
X72143514Y-68356586D01*
X72033715Y-68222794D01*
X72030922Y-68219391D01*
X71947257Y-68062866D01*
X71895737Y-67893027D01*
X71878341Y-67716400D01*
X71895737Y-67539773D01*
X71947257Y-67369934D01*
X72030922Y-67213409D01*
X72060252Y-67177671D01*
X72143514Y-67076214D01*
X72244971Y-66992952D01*
X72280709Y-66963622D01*
X72437234Y-66879957D01*
X72607073Y-66828437D01*
X72673257Y-66821919D01*
X72739440Y-66815400D01*
X72827960Y-66815400D01*
X72894143Y-66821919D01*
X72894143Y-66821919D01*
G37*
G36*
X65274143Y-66821919D02*
G01*
X65340327Y-66828437D01*
X65510166Y-66879957D01*
X65666691Y-66963622D01*
X65702429Y-66992952D01*
X65803886Y-67076214D01*
X65887148Y-67177671D01*
X65916478Y-67213409D01*
X66000143Y-67369934D01*
X66051663Y-67539773D01*
X66069059Y-67716400D01*
X66051663Y-67893027D01*
X66000143Y-68062866D01*
X65916478Y-68219391D01*
X65913685Y-68222794D01*
X65803886Y-68356586D01*
X65702429Y-68439848D01*
X65666691Y-68469178D01*
X65510166Y-68552843D01*
X65340327Y-68604363D01*
X65274142Y-68610882D01*
X65207960Y-68617400D01*
X65119440Y-68617400D01*
X65053258Y-68610882D01*
X64987073Y-68604363D01*
X64817234Y-68552843D01*
X64660709Y-68469178D01*
X64624971Y-68439848D01*
X64523514Y-68356586D01*
X64413715Y-68222794D01*
X64410922Y-68219391D01*
X64327257Y-68062866D01*
X64275737Y-67893027D01*
X64258341Y-67716400D01*
X64275737Y-67539773D01*
X64327257Y-67369934D01*
X64410922Y-67213409D01*
X64440252Y-67177671D01*
X64523514Y-67076214D01*
X64624971Y-66992952D01*
X64660709Y-66963622D01*
X64817234Y-66879957D01*
X64987073Y-66828437D01*
X65053257Y-66821919D01*
X65119440Y-66815400D01*
X65207960Y-66815400D01*
X65274143Y-66821919D01*
X65274143Y-66821919D01*
G37*
G36*
X60194143Y-66821919D02*
G01*
X60260327Y-66828437D01*
X60430166Y-66879957D01*
X60586691Y-66963622D01*
X60622429Y-66992952D01*
X60723886Y-67076214D01*
X60807148Y-67177671D01*
X60836478Y-67213409D01*
X60920143Y-67369934D01*
X60971663Y-67539773D01*
X60989059Y-67716400D01*
X60971663Y-67893027D01*
X60920143Y-68062866D01*
X60836478Y-68219391D01*
X60833685Y-68222794D01*
X60723886Y-68356586D01*
X60622429Y-68439848D01*
X60586691Y-68469178D01*
X60430166Y-68552843D01*
X60260327Y-68604363D01*
X60194142Y-68610882D01*
X60127960Y-68617400D01*
X60039440Y-68617400D01*
X59973258Y-68610882D01*
X59907073Y-68604363D01*
X59737234Y-68552843D01*
X59580709Y-68469178D01*
X59544971Y-68439848D01*
X59443514Y-68356586D01*
X59333715Y-68222794D01*
X59330922Y-68219391D01*
X59247257Y-68062866D01*
X59195737Y-67893027D01*
X59178341Y-67716400D01*
X59195737Y-67539773D01*
X59247257Y-67369934D01*
X59330922Y-67213409D01*
X59360252Y-67177671D01*
X59443514Y-67076214D01*
X59544971Y-66992952D01*
X59580709Y-66963622D01*
X59737234Y-66879957D01*
X59907073Y-66828437D01*
X59973257Y-66821919D01*
X60039440Y-66815400D01*
X60127960Y-66815400D01*
X60194143Y-66821919D01*
X60194143Y-66821919D01*
G37*
G36*
X57654143Y-66821919D02*
G01*
X57720327Y-66828437D01*
X57890166Y-66879957D01*
X58046691Y-66963622D01*
X58082429Y-66992952D01*
X58183886Y-67076214D01*
X58267148Y-67177671D01*
X58296478Y-67213409D01*
X58380143Y-67369934D01*
X58431663Y-67539773D01*
X58449059Y-67716400D01*
X58431663Y-67893027D01*
X58380143Y-68062866D01*
X58296478Y-68219391D01*
X58293685Y-68222794D01*
X58183886Y-68356586D01*
X58082429Y-68439848D01*
X58046691Y-68469178D01*
X57890166Y-68552843D01*
X57720327Y-68604363D01*
X57654142Y-68610882D01*
X57587960Y-68617400D01*
X57499440Y-68617400D01*
X57433258Y-68610882D01*
X57367073Y-68604363D01*
X57197234Y-68552843D01*
X57040709Y-68469178D01*
X57004971Y-68439848D01*
X56903514Y-68356586D01*
X56793715Y-68222794D01*
X56790922Y-68219391D01*
X56707257Y-68062866D01*
X56655737Y-67893027D01*
X56638341Y-67716400D01*
X56655737Y-67539773D01*
X56707257Y-67369934D01*
X56790922Y-67213409D01*
X56820252Y-67177671D01*
X56903514Y-67076214D01*
X57004971Y-66992952D01*
X57040709Y-66963622D01*
X57197234Y-66879957D01*
X57367073Y-66828437D01*
X57433257Y-66821919D01*
X57499440Y-66815400D01*
X57587960Y-66815400D01*
X57654143Y-66821919D01*
X57654143Y-66821919D01*
G37*
G36*
X55114143Y-66821919D02*
G01*
X55180327Y-66828437D01*
X55350166Y-66879957D01*
X55506691Y-66963622D01*
X55542429Y-66992952D01*
X55643886Y-67076214D01*
X55727148Y-67177671D01*
X55756478Y-67213409D01*
X55840143Y-67369934D01*
X55891663Y-67539773D01*
X55909059Y-67716400D01*
X55891663Y-67893027D01*
X55840143Y-68062866D01*
X55756478Y-68219391D01*
X55753685Y-68222794D01*
X55643886Y-68356586D01*
X55542429Y-68439848D01*
X55506691Y-68469178D01*
X55350166Y-68552843D01*
X55180327Y-68604363D01*
X55114142Y-68610882D01*
X55047960Y-68617400D01*
X54959440Y-68617400D01*
X54893258Y-68610882D01*
X54827073Y-68604363D01*
X54657234Y-68552843D01*
X54500709Y-68469178D01*
X54464971Y-68439848D01*
X54363514Y-68356586D01*
X54253715Y-68222794D01*
X54250922Y-68219391D01*
X54167257Y-68062866D01*
X54115737Y-67893027D01*
X54098341Y-67716400D01*
X54115737Y-67539773D01*
X54167257Y-67369934D01*
X54250922Y-67213409D01*
X54280252Y-67177671D01*
X54363514Y-67076214D01*
X54464971Y-66992952D01*
X54500709Y-66963622D01*
X54657234Y-66879957D01*
X54827073Y-66828437D01*
X54893257Y-66821919D01*
X54959440Y-66815400D01*
X55047960Y-66815400D01*
X55114143Y-66821919D01*
X55114143Y-66821919D01*
G37*
G36*
X52574143Y-66821919D02*
G01*
X52640327Y-66828437D01*
X52810166Y-66879957D01*
X52966691Y-66963622D01*
X53002429Y-66992952D01*
X53103886Y-67076214D01*
X53187148Y-67177671D01*
X53216478Y-67213409D01*
X53300143Y-67369934D01*
X53351663Y-67539773D01*
X53369059Y-67716400D01*
X53351663Y-67893027D01*
X53300143Y-68062866D01*
X53216478Y-68219391D01*
X53213685Y-68222794D01*
X53103886Y-68356586D01*
X53002429Y-68439848D01*
X52966691Y-68469178D01*
X52810166Y-68552843D01*
X52640327Y-68604363D01*
X52574142Y-68610882D01*
X52507960Y-68617400D01*
X52419440Y-68617400D01*
X52353258Y-68610882D01*
X52287073Y-68604363D01*
X52117234Y-68552843D01*
X51960709Y-68469178D01*
X51924971Y-68439848D01*
X51823514Y-68356586D01*
X51713715Y-68222794D01*
X51710922Y-68219391D01*
X51627257Y-68062866D01*
X51575737Y-67893027D01*
X51558341Y-67716400D01*
X51575737Y-67539773D01*
X51627257Y-67369934D01*
X51710922Y-67213409D01*
X51740252Y-67177671D01*
X51823514Y-67076214D01*
X51924971Y-66992952D01*
X51960709Y-66963622D01*
X52117234Y-66879957D01*
X52287073Y-66828437D01*
X52353257Y-66821919D01*
X52419440Y-66815400D01*
X52507960Y-66815400D01*
X52574143Y-66821919D01*
X52574143Y-66821919D01*
G37*
G36*
X50034143Y-66821919D02*
G01*
X50100327Y-66828437D01*
X50270166Y-66879957D01*
X50426691Y-66963622D01*
X50462429Y-66992952D01*
X50563886Y-67076214D01*
X50647148Y-67177671D01*
X50676478Y-67213409D01*
X50760143Y-67369934D01*
X50811663Y-67539773D01*
X50829059Y-67716400D01*
X50811663Y-67893027D01*
X50760143Y-68062866D01*
X50676478Y-68219391D01*
X50673685Y-68222794D01*
X50563886Y-68356586D01*
X50462429Y-68439848D01*
X50426691Y-68469178D01*
X50270166Y-68552843D01*
X50100327Y-68604363D01*
X50034142Y-68610882D01*
X49967960Y-68617400D01*
X49879440Y-68617400D01*
X49813258Y-68610882D01*
X49747073Y-68604363D01*
X49577234Y-68552843D01*
X49420709Y-68469178D01*
X49384971Y-68439848D01*
X49283514Y-68356586D01*
X49173715Y-68222794D01*
X49170922Y-68219391D01*
X49087257Y-68062866D01*
X49035737Y-67893027D01*
X49018341Y-67716400D01*
X49035737Y-67539773D01*
X49087257Y-67369934D01*
X49170922Y-67213409D01*
X49200252Y-67177671D01*
X49283514Y-67076214D01*
X49384971Y-66992952D01*
X49420709Y-66963622D01*
X49577234Y-66879957D01*
X49747073Y-66828437D01*
X49813257Y-66821919D01*
X49879440Y-66815400D01*
X49967960Y-66815400D01*
X50034143Y-66821919D01*
X50034143Y-66821919D01*
G37*
G36*
X47494143Y-66821919D02*
G01*
X47560327Y-66828437D01*
X47730166Y-66879957D01*
X47886691Y-66963622D01*
X47922429Y-66992952D01*
X48023886Y-67076214D01*
X48107148Y-67177671D01*
X48136478Y-67213409D01*
X48220143Y-67369934D01*
X48271663Y-67539773D01*
X48289059Y-67716400D01*
X48271663Y-67893027D01*
X48220143Y-68062866D01*
X48136478Y-68219391D01*
X48133685Y-68222794D01*
X48023886Y-68356586D01*
X47922429Y-68439848D01*
X47886691Y-68469178D01*
X47730166Y-68552843D01*
X47560327Y-68604363D01*
X47494142Y-68610882D01*
X47427960Y-68617400D01*
X47339440Y-68617400D01*
X47273258Y-68610882D01*
X47207073Y-68604363D01*
X47037234Y-68552843D01*
X46880709Y-68469178D01*
X46844971Y-68439848D01*
X46743514Y-68356586D01*
X46633715Y-68222794D01*
X46630922Y-68219391D01*
X46547257Y-68062866D01*
X46495737Y-67893027D01*
X46478341Y-67716400D01*
X46495737Y-67539773D01*
X46547257Y-67369934D01*
X46630922Y-67213409D01*
X46660252Y-67177671D01*
X46743514Y-67076214D01*
X46844971Y-66992952D01*
X46880709Y-66963622D01*
X47037234Y-66879957D01*
X47207073Y-66828437D01*
X47273257Y-66821919D01*
X47339440Y-66815400D01*
X47427960Y-66815400D01*
X47494143Y-66821919D01*
X47494143Y-66821919D01*
G37*
G36*
X67814143Y-66821919D02*
G01*
X67880327Y-66828437D01*
X68050166Y-66879957D01*
X68206691Y-66963622D01*
X68242429Y-66992952D01*
X68343886Y-67076214D01*
X68427148Y-67177671D01*
X68456478Y-67213409D01*
X68540143Y-67369934D01*
X68591663Y-67539773D01*
X68609059Y-67716400D01*
X68591663Y-67893027D01*
X68540143Y-68062866D01*
X68456478Y-68219391D01*
X68453685Y-68222794D01*
X68343886Y-68356586D01*
X68242429Y-68439848D01*
X68206691Y-68469178D01*
X68050166Y-68552843D01*
X67880327Y-68604363D01*
X67814142Y-68610882D01*
X67747960Y-68617400D01*
X67659440Y-68617400D01*
X67593258Y-68610882D01*
X67527073Y-68604363D01*
X67357234Y-68552843D01*
X67200709Y-68469178D01*
X67164971Y-68439848D01*
X67063514Y-68356586D01*
X66953715Y-68222794D01*
X66950922Y-68219391D01*
X66867257Y-68062866D01*
X66815737Y-67893027D01*
X66798341Y-67716400D01*
X66815737Y-67539773D01*
X66867257Y-67369934D01*
X66950922Y-67213409D01*
X66980252Y-67177671D01*
X67063514Y-67076214D01*
X67164971Y-66992952D01*
X67200709Y-66963622D01*
X67357234Y-66879957D01*
X67527073Y-66828437D01*
X67593257Y-66821919D01*
X67659440Y-66815400D01*
X67747960Y-66815400D01*
X67814143Y-66821919D01*
X67814143Y-66821919D01*
G37*
G36*
X27174143Y-66821919D02*
G01*
X27240327Y-66828437D01*
X27410166Y-66879957D01*
X27566691Y-66963622D01*
X27602429Y-66992952D01*
X27703886Y-67076214D01*
X27787148Y-67177671D01*
X27816478Y-67213409D01*
X27900143Y-67369934D01*
X27951663Y-67539773D01*
X27969059Y-67716400D01*
X27951663Y-67893027D01*
X27900143Y-68062866D01*
X27816478Y-68219391D01*
X27813685Y-68222794D01*
X27703886Y-68356586D01*
X27602429Y-68439848D01*
X27566691Y-68469178D01*
X27410166Y-68552843D01*
X27240327Y-68604363D01*
X27174142Y-68610882D01*
X27107960Y-68617400D01*
X27019440Y-68617400D01*
X26953258Y-68610882D01*
X26887073Y-68604363D01*
X26717234Y-68552843D01*
X26560709Y-68469178D01*
X26524971Y-68439848D01*
X26423514Y-68356586D01*
X26313715Y-68222794D01*
X26310922Y-68219391D01*
X26227257Y-68062866D01*
X26175737Y-67893027D01*
X26158341Y-67716400D01*
X26175737Y-67539773D01*
X26227257Y-67369934D01*
X26310922Y-67213409D01*
X26340252Y-67177671D01*
X26423514Y-67076214D01*
X26524971Y-66992952D01*
X26560709Y-66963622D01*
X26717234Y-66879957D01*
X26887073Y-66828437D01*
X26953257Y-66821919D01*
X27019440Y-66815400D01*
X27107960Y-66815400D01*
X27174143Y-66821919D01*
X27174143Y-66821919D01*
G37*
G36*
X25424700Y-68617400D02*
G01*
X23622700Y-68617400D01*
X23622700Y-66815400D01*
X25424700Y-66815400D01*
X25424700Y-68617400D01*
X25424700Y-68617400D01*
G37*
G36*
X62734143Y-66821919D02*
G01*
X62800327Y-66828437D01*
X62970166Y-66879957D01*
X63126691Y-66963622D01*
X63162429Y-66992952D01*
X63263886Y-67076214D01*
X63347148Y-67177671D01*
X63376478Y-67213409D01*
X63460143Y-67369934D01*
X63511663Y-67539773D01*
X63529059Y-67716400D01*
X63511663Y-67893027D01*
X63460143Y-68062866D01*
X63376478Y-68219391D01*
X63373685Y-68222794D01*
X63263886Y-68356586D01*
X63162429Y-68439848D01*
X63126691Y-68469178D01*
X62970166Y-68552843D01*
X62800327Y-68604363D01*
X62734142Y-68610882D01*
X62667960Y-68617400D01*
X62579440Y-68617400D01*
X62513258Y-68610882D01*
X62447073Y-68604363D01*
X62277234Y-68552843D01*
X62120709Y-68469178D01*
X62084971Y-68439848D01*
X61983514Y-68356586D01*
X61873715Y-68222794D01*
X61870922Y-68219391D01*
X61787257Y-68062866D01*
X61735737Y-67893027D01*
X61718341Y-67716400D01*
X61735737Y-67539773D01*
X61787257Y-67369934D01*
X61870922Y-67213409D01*
X61900252Y-67177671D01*
X61983514Y-67076214D01*
X62084971Y-66992952D01*
X62120709Y-66963622D01*
X62277234Y-66879957D01*
X62447073Y-66828437D01*
X62513257Y-66821919D01*
X62579440Y-66815400D01*
X62667960Y-66815400D01*
X62734143Y-66821919D01*
X62734143Y-66821919D01*
G37*
G36*
X20757080Y-65283280D02*
G01*
X18155720Y-65283280D01*
X18155720Y-62681920D01*
X20757080Y-62681920D01*
X20757080Y-65283280D01*
X20757080Y-65283280D01*
G37*
G36*
X23645793Y-62731904D02*
G01*
X23882501Y-62829952D01*
X23882503Y-62829953D01*
X24095535Y-62972296D01*
X24276704Y-63153465D01*
X24416600Y-63362835D01*
X24419048Y-63366499D01*
X24517096Y-63603207D01*
X24567080Y-63854493D01*
X24567080Y-64110707D01*
X24517096Y-64361993D01*
X24419048Y-64598701D01*
X24419047Y-64598703D01*
X24276704Y-64811735D01*
X24095535Y-64992904D01*
X23882503Y-65135247D01*
X23882502Y-65135248D01*
X23882501Y-65135248D01*
X23645793Y-65233296D01*
X23394507Y-65283280D01*
X23138293Y-65283280D01*
X22887007Y-65233296D01*
X22650299Y-65135248D01*
X22650298Y-65135248D01*
X22650297Y-65135247D01*
X22437265Y-64992904D01*
X22256096Y-64811735D01*
X22113753Y-64598703D01*
X22113752Y-64598701D01*
X22015704Y-64361993D01*
X21965720Y-64110707D01*
X21965720Y-63854493D01*
X22015704Y-63603207D01*
X22113752Y-63366499D01*
X22116200Y-63362835D01*
X22256096Y-63153465D01*
X22437265Y-62972296D01*
X22650297Y-62829953D01*
X22650299Y-62829952D01*
X22887007Y-62731904D01*
X23138293Y-62681920D01*
X23394507Y-62681920D01*
X23645793Y-62731904D01*
X23645793Y-62731904D01*
G37*
G36*
X62155564Y-61854389D02*
G01*
X62346833Y-61933615D01*
X62346835Y-61933616D01*
X62518973Y-62048635D01*
X62665365Y-62195027D01*
X62755881Y-62330493D01*
X62780385Y-62367167D01*
X62859611Y-62558436D01*
X62900000Y-62761484D01*
X62900000Y-62968516D01*
X62859611Y-63171564D01*
X62780385Y-63362833D01*
X62780384Y-63362835D01*
X62665365Y-63534973D01*
X62518973Y-63681365D01*
X62346835Y-63796384D01*
X62346834Y-63796385D01*
X62346833Y-63796385D01*
X62155564Y-63875611D01*
X61952516Y-63916000D01*
X61745484Y-63916000D01*
X61542436Y-63875611D01*
X61351167Y-63796385D01*
X61351166Y-63796385D01*
X61351165Y-63796384D01*
X61179027Y-63681365D01*
X61032635Y-63534973D01*
X60917616Y-63362835D01*
X60917615Y-63362833D01*
X60838389Y-63171564D01*
X60798000Y-62968516D01*
X60798000Y-62761484D01*
X60838389Y-62558436D01*
X60917615Y-62367167D01*
X60942120Y-62330493D01*
X61032635Y-62195027D01*
X61179027Y-62048635D01*
X61351165Y-61933616D01*
X61351167Y-61933615D01*
X61542436Y-61854389D01*
X61745484Y-61814000D01*
X61952516Y-61814000D01*
X62155564Y-61854389D01*
X62155564Y-61854389D01*
G37*
G36*
X75621080Y-63759280D02*
G01*
X73019720Y-63759280D01*
X73019720Y-61157920D01*
X75621080Y-61157920D01*
X75621080Y-63759280D01*
X75621080Y-63759280D01*
G37*
G36*
X78509793Y-61207904D02*
G01*
X78746501Y-61305952D01*
X78746503Y-61305953D01*
X78959535Y-61448296D01*
X79140704Y-61629465D01*
X79269347Y-61821994D01*
X79283048Y-61842499D01*
X79381096Y-62079207D01*
X79431080Y-62330493D01*
X79431080Y-62586707D01*
X79381096Y-62837993D01*
X79283048Y-63074701D01*
X79283047Y-63074703D01*
X79140704Y-63287735D01*
X78959535Y-63468904D01*
X78746503Y-63611247D01*
X78746502Y-63611248D01*
X78746501Y-63611248D01*
X78509793Y-63709296D01*
X78258507Y-63759280D01*
X78002293Y-63759280D01*
X77751007Y-63709296D01*
X77514299Y-63611248D01*
X77514298Y-63611248D01*
X77514297Y-63611247D01*
X77301265Y-63468904D01*
X77120096Y-63287735D01*
X76977753Y-63074703D01*
X76977752Y-63074701D01*
X76879704Y-62837993D01*
X76829720Y-62586707D01*
X76829720Y-62330493D01*
X76879704Y-62079207D01*
X76977752Y-61842499D01*
X76991453Y-61821994D01*
X77120096Y-61629465D01*
X77301265Y-61448296D01*
X77514297Y-61305953D01*
X77514299Y-61305952D01*
X77751007Y-61207904D01*
X78002293Y-61157920D01*
X78258507Y-61157920D01*
X78509793Y-61207904D01*
X78509793Y-61207904D01*
G37*
G36*
X33805793Y-60191904D02*
G01*
X34042501Y-60289952D01*
X34042503Y-60289953D01*
X34255535Y-60432296D01*
X34436704Y-60613465D01*
X34579047Y-60826497D01*
X34579048Y-60826499D01*
X34677096Y-61063207D01*
X34727080Y-61314493D01*
X34727080Y-61570707D01*
X34677096Y-61821993D01*
X34630860Y-61933615D01*
X34579047Y-62058703D01*
X34436704Y-62271735D01*
X34255535Y-62452904D01*
X34042503Y-62595247D01*
X34042502Y-62595248D01*
X34042501Y-62595248D01*
X33805793Y-62693296D01*
X33554507Y-62743280D01*
X33298293Y-62743280D01*
X33047007Y-62693296D01*
X32810299Y-62595248D01*
X32810298Y-62595248D01*
X32810297Y-62595247D01*
X32597265Y-62452904D01*
X32416096Y-62271735D01*
X32273753Y-62058703D01*
X32221940Y-61933615D01*
X32175704Y-61821993D01*
X32125720Y-61570707D01*
X32125720Y-61314493D01*
X32175704Y-61063207D01*
X32273752Y-60826499D01*
X32273753Y-60826497D01*
X32416096Y-60613465D01*
X32597265Y-60432296D01*
X32810297Y-60289953D01*
X32810299Y-60289952D01*
X33047007Y-60191904D01*
X33298293Y-60141920D01*
X33554507Y-60141920D01*
X33805793Y-60191904D01*
X33805793Y-60191904D01*
G37*
G36*
X30917080Y-62743280D02*
G01*
X28315720Y-62743280D01*
X28315720Y-60141920D01*
X30917080Y-60141920D01*
X30917080Y-62743280D01*
X30917080Y-62743280D01*
G37*
G36*
X69619793Y-57397904D02*
G01*
X69856501Y-57495952D01*
X69856503Y-57495953D01*
X70069535Y-57638296D01*
X70250704Y-57819465D01*
X70381494Y-58015207D01*
X70393048Y-58032499D01*
X70491096Y-58269207D01*
X70541080Y-58520493D01*
X70541080Y-58776707D01*
X70491096Y-59027993D01*
X70393048Y-59264701D01*
X70393047Y-59264703D01*
X70250704Y-59477735D01*
X70069535Y-59658904D01*
X69856503Y-59801247D01*
X69856502Y-59801248D01*
X69856501Y-59801248D01*
X69619793Y-59899296D01*
X69368507Y-59949280D01*
X69112293Y-59949280D01*
X68861007Y-59899296D01*
X68624299Y-59801248D01*
X68624298Y-59801248D01*
X68624297Y-59801247D01*
X68411265Y-59658904D01*
X68230096Y-59477735D01*
X68087753Y-59264703D01*
X68087752Y-59264701D01*
X67989704Y-59027993D01*
X67939720Y-58776707D01*
X67939720Y-58520493D01*
X67989704Y-58269207D01*
X68087752Y-58032499D01*
X68099306Y-58015207D01*
X68230096Y-57819465D01*
X68411265Y-57638296D01*
X68624297Y-57495953D01*
X68624299Y-57495952D01*
X68861007Y-57397904D01*
X69112293Y-57347920D01*
X69368507Y-57347920D01*
X69619793Y-57397904D01*
X69619793Y-57397904D01*
G37*
G36*
X66731080Y-59949280D02*
G01*
X64129720Y-59949280D01*
X64129720Y-57347920D01*
X66731080Y-57347920D01*
X66731080Y-59949280D01*
X66731080Y-59949280D01*
G37*
G36*
X52347793Y-57143904D02*
G01*
X52584501Y-57241952D01*
X52584503Y-57241953D01*
X52797535Y-57384296D01*
X52978704Y-57565465D01*
X53075656Y-57710565D01*
X53121048Y-57778499D01*
X53219096Y-58015207D01*
X53269080Y-58266493D01*
X53269080Y-58522707D01*
X53219096Y-58773993D01*
X53121048Y-59010701D01*
X53121047Y-59010703D01*
X52978704Y-59223735D01*
X52797535Y-59404904D01*
X52584503Y-59547247D01*
X52584502Y-59547248D01*
X52584501Y-59547248D01*
X52347793Y-59645296D01*
X52096507Y-59695280D01*
X51840293Y-59695280D01*
X51589007Y-59645296D01*
X51352299Y-59547248D01*
X51352298Y-59547248D01*
X51352297Y-59547247D01*
X51139265Y-59404904D01*
X50958096Y-59223735D01*
X50815753Y-59010703D01*
X50815752Y-59010701D01*
X50717704Y-58773993D01*
X50667720Y-58522707D01*
X50667720Y-58266493D01*
X50717704Y-58015207D01*
X50815752Y-57778499D01*
X50861144Y-57710565D01*
X50958096Y-57565465D01*
X51139265Y-57384296D01*
X51352297Y-57241953D01*
X51352299Y-57241952D01*
X51589007Y-57143904D01*
X51840293Y-57093920D01*
X52096507Y-57093920D01*
X52347793Y-57143904D01*
X52347793Y-57143904D01*
G37*
G36*
X49459080Y-59695280D02*
G01*
X46857720Y-59695280D01*
X46857720Y-57093920D01*
X49459080Y-57093920D01*
X49459080Y-59695280D01*
X49459080Y-59695280D01*
G37*
G36*
X61237793Y-57143904D02*
G01*
X61474501Y-57241952D01*
X61474503Y-57241953D01*
X61687535Y-57384296D01*
X61868704Y-57565465D01*
X61965656Y-57710565D01*
X62011048Y-57778499D01*
X62109096Y-58015207D01*
X62159080Y-58266493D01*
X62159080Y-58522707D01*
X62109096Y-58773993D01*
X62011048Y-59010701D01*
X62011047Y-59010703D01*
X61868704Y-59223735D01*
X61687535Y-59404904D01*
X61474503Y-59547247D01*
X61474502Y-59547248D01*
X61474501Y-59547248D01*
X61237793Y-59645296D01*
X60986507Y-59695280D01*
X60730293Y-59695280D01*
X60479007Y-59645296D01*
X60242299Y-59547248D01*
X60242298Y-59547248D01*
X60242297Y-59547247D01*
X60029265Y-59404904D01*
X59848096Y-59223735D01*
X59705753Y-59010703D01*
X59705752Y-59010701D01*
X59607704Y-58773993D01*
X59557720Y-58522707D01*
X59557720Y-58266493D01*
X59607704Y-58015207D01*
X59705752Y-57778499D01*
X59751144Y-57710565D01*
X59848096Y-57565465D01*
X60029265Y-57384296D01*
X60242297Y-57241953D01*
X60242299Y-57241952D01*
X60479007Y-57143904D01*
X60730293Y-57093920D01*
X60986507Y-57093920D01*
X61237793Y-57143904D01*
X61237793Y-57143904D01*
G37*
G36*
X58349080Y-59695280D02*
G01*
X55747720Y-59695280D01*
X55747720Y-57093920D01*
X58349080Y-57093920D01*
X58349080Y-59695280D01*
X58349080Y-59695280D01*
G37*
G36*
X41585080Y-59695280D02*
G01*
X38983720Y-59695280D01*
X38983720Y-57093920D01*
X41585080Y-57093920D01*
X41585080Y-59695280D01*
X41585080Y-59695280D01*
G37*
G36*
X44473793Y-57143904D02*
G01*
X44710501Y-57241952D01*
X44710503Y-57241953D01*
X44923535Y-57384296D01*
X45104704Y-57565465D01*
X45201656Y-57710565D01*
X45247048Y-57778499D01*
X45345096Y-58015207D01*
X45395080Y-58266493D01*
X45395080Y-58522707D01*
X45345096Y-58773993D01*
X45247048Y-59010701D01*
X45247047Y-59010703D01*
X45104704Y-59223735D01*
X44923535Y-59404904D01*
X44710503Y-59547247D01*
X44710502Y-59547248D01*
X44710501Y-59547248D01*
X44473793Y-59645296D01*
X44222507Y-59695280D01*
X43966293Y-59695280D01*
X43715007Y-59645296D01*
X43478299Y-59547248D01*
X43478298Y-59547248D01*
X43478297Y-59547247D01*
X43265265Y-59404904D01*
X43084096Y-59223735D01*
X42941753Y-59010703D01*
X42941752Y-59010701D01*
X42843704Y-58773993D01*
X42793720Y-58522707D01*
X42793720Y-58266493D01*
X42843704Y-58015207D01*
X42941752Y-57778499D01*
X42987144Y-57710565D01*
X43084096Y-57565465D01*
X43265265Y-57384296D01*
X43478297Y-57241953D01*
X43478299Y-57241952D01*
X43715007Y-57143904D01*
X43966293Y-57093920D01*
X44222507Y-57093920D01*
X44473793Y-57143904D01*
X44473793Y-57143904D01*
G37*
G36*
X35993564Y-56393389D02*
G01*
X36184833Y-56472615D01*
X36184835Y-56472616D01*
X36356973Y-56587635D01*
X36503365Y-56734027D01*
X36618385Y-56906167D01*
X36697611Y-57097436D01*
X36738000Y-57300484D01*
X36738000Y-57507516D01*
X36697611Y-57710564D01*
X36669472Y-57778497D01*
X36618384Y-57901835D01*
X36503365Y-58073973D01*
X36356973Y-58220365D01*
X36184835Y-58335384D01*
X36184834Y-58335385D01*
X36184833Y-58335385D01*
X35993564Y-58414611D01*
X35790516Y-58455000D01*
X35583484Y-58455000D01*
X35380436Y-58414611D01*
X35189167Y-58335385D01*
X35189166Y-58335385D01*
X35189165Y-58335384D01*
X35017027Y-58220365D01*
X34870635Y-58073973D01*
X34755616Y-57901835D01*
X34704528Y-57778497D01*
X34676389Y-57710564D01*
X34636000Y-57507516D01*
X34636000Y-57300484D01*
X34676389Y-57097436D01*
X34755615Y-56906167D01*
X34870635Y-56734027D01*
X35017027Y-56587635D01*
X35189165Y-56472616D01*
X35189167Y-56472615D01*
X35380436Y-56393389D01*
X35583484Y-56353000D01*
X35790516Y-56353000D01*
X35993564Y-56393389D01*
X35993564Y-56393389D01*
G37*
M02*
