G04 #@! TF.GenerationSoftware,KiCad,Pcbnew,5.1.2*
G04 #@! TF.CreationDate,2019-05-27T23:22:56-07:00*
G04 #@! TF.ProjectId,gloveProtoFinal,676c6f76-6550-4726-9f74-6f46696e616c,rev?*
G04 #@! TF.SameCoordinates,Original*
G04 #@! TF.FileFunction,Legend,Bot*
G04 #@! TF.FilePolarity,Positive*
%FSLAX46Y46*%
G04 Gerber Fmt 4.6, Leading zero omitted, Abs format (unit mm)*
G04 Created by KiCad (PCBNEW 5.1.2) date 2019-05-27 23:22:56*
%MOMM*%
%LPD*%
G04 APERTURE LIST*
%ADD10C,0.120000*%
%ADD11C,0.150000*%
G04 APERTURE END LIST*
D10*
X27000200Y-79502000D02*
X27000200Y-94640400D01*
X36499800Y-79629000D02*
X36499800Y-94640400D01*
X45770800Y-79552800D02*
X45770800Y-94640400D01*
X54584600Y-79578200D02*
X54584600Y-94615000D01*
X63525400Y-79527400D02*
X63525400Y-94640400D01*
X72567800Y-79502000D02*
X72567800Y-94665800D01*
X81610200Y-79552800D02*
X81610200Y-94615000D01*
X93091000Y-79603600D02*
X93091000Y-94615000D01*
D11*
X97208742Y-65240380D02*
X97018266Y-65240380D01*
X96923028Y-65288000D01*
X96827790Y-65383238D01*
X96780171Y-65573714D01*
X96780171Y-65907047D01*
X96827790Y-66097523D01*
X96923028Y-66192761D01*
X97018266Y-66240380D01*
X97208742Y-66240380D01*
X97303980Y-66192761D01*
X97399219Y-66097523D01*
X97446838Y-65907047D01*
X97446838Y-65573714D01*
X97399219Y-65383238D01*
X97303980Y-65288000D01*
X97208742Y-65240380D01*
X96494457Y-65240380D02*
X95923028Y-65240380D01*
X96208742Y-66240380D02*
X96208742Y-65240380D01*
X95589695Y-66240380D02*
X95589695Y-65240380D01*
X95351600Y-65240380D01*
X95208742Y-65288000D01*
X95113504Y-65383238D01*
X95065885Y-65478476D01*
X95018266Y-65668952D01*
X95018266Y-65811809D01*
X95065885Y-66002285D01*
X95113504Y-66097523D01*
X95208742Y-66192761D01*
X95351600Y-66240380D01*
X95589695Y-66240380D01*
X94065885Y-65288000D02*
X94161123Y-65240380D01*
X94303980Y-65240380D01*
X94446838Y-65288000D01*
X94542076Y-65383238D01*
X94589695Y-65478476D01*
X94637314Y-65668952D01*
X94637314Y-65811809D01*
X94589695Y-66002285D01*
X94542076Y-66097523D01*
X94446838Y-66192761D01*
X94303980Y-66240380D01*
X94208742Y-66240380D01*
X94065885Y-66192761D01*
X94018266Y-66145142D01*
X94018266Y-65811809D01*
X94208742Y-65811809D01*
X98446838Y-67366571D02*
X98780171Y-67366571D01*
X98780171Y-67890380D02*
X98780171Y-66890380D01*
X98303980Y-66890380D01*
X97923028Y-67890380D02*
X97923028Y-67223714D01*
X97923028Y-66890380D02*
X97970647Y-66938000D01*
X97923028Y-66985619D01*
X97875409Y-66938000D01*
X97923028Y-66890380D01*
X97923028Y-66985619D01*
X97446838Y-67223714D02*
X97446838Y-67890380D01*
X97446838Y-67318952D02*
X97399219Y-67271333D01*
X97303980Y-67223714D01*
X97161123Y-67223714D01*
X97065885Y-67271333D01*
X97018266Y-67366571D01*
X97018266Y-67890380D01*
X96113504Y-67223714D02*
X96113504Y-68033238D01*
X96161123Y-68128476D01*
X96208742Y-68176095D01*
X96303980Y-68223714D01*
X96446838Y-68223714D01*
X96542076Y-68176095D01*
X96113504Y-67842761D02*
X96208742Y-67890380D01*
X96399219Y-67890380D01*
X96494457Y-67842761D01*
X96542076Y-67795142D01*
X96589695Y-67699904D01*
X96589695Y-67414190D01*
X96542076Y-67318952D01*
X96494457Y-67271333D01*
X96399219Y-67223714D01*
X96208742Y-67223714D01*
X96113504Y-67271333D01*
X95256361Y-67842761D02*
X95351600Y-67890380D01*
X95542076Y-67890380D01*
X95637314Y-67842761D01*
X95684933Y-67747523D01*
X95684933Y-67366571D01*
X95637314Y-67271333D01*
X95542076Y-67223714D01*
X95351600Y-67223714D01*
X95256361Y-67271333D01*
X95208742Y-67366571D01*
X95208742Y-67461809D01*
X95684933Y-67557047D01*
X94780171Y-67890380D02*
X94780171Y-67223714D01*
X94780171Y-67414190D02*
X94732552Y-67318952D01*
X94684933Y-67271333D01*
X94589695Y-67223714D01*
X94494457Y-67223714D01*
X94161123Y-67223714D02*
X94161123Y-68223714D01*
X94161123Y-67271333D02*
X94065885Y-67223714D01*
X93875409Y-67223714D01*
X93780171Y-67271333D01*
X93732552Y-67318952D01*
X93684933Y-67414190D01*
X93684933Y-67699904D01*
X93732552Y-67795142D01*
X93780171Y-67842761D01*
X93875409Y-67890380D01*
X94065885Y-67890380D01*
X94161123Y-67842761D01*
X92827790Y-67890380D02*
X92827790Y-67366571D01*
X92875409Y-67271333D01*
X92970647Y-67223714D01*
X93161123Y-67223714D01*
X93256361Y-67271333D01*
X92827790Y-67842761D02*
X92923028Y-67890380D01*
X93161123Y-67890380D01*
X93256361Y-67842761D01*
X93303980Y-67747523D01*
X93303980Y-67652285D01*
X93256361Y-67557047D01*
X93161123Y-67509428D01*
X92923028Y-67509428D01*
X92827790Y-67461809D01*
X91923028Y-67890380D02*
X91923028Y-66890380D01*
X91923028Y-67842761D02*
X92018266Y-67890380D01*
X92208742Y-67890380D01*
X92303980Y-67842761D01*
X92351600Y-67795142D01*
X92399219Y-67699904D01*
X92399219Y-67414190D01*
X92351600Y-67318952D01*
X92303980Y-67271333D01*
X92208742Y-67223714D01*
X92018266Y-67223714D01*
X91923028Y-67271333D01*
X98613504Y-71190380D02*
X98613504Y-70190380D01*
X98280171Y-70904666D01*
X97946838Y-70190380D01*
X97946838Y-71190380D01*
X97042076Y-71190380D02*
X97042076Y-70666571D01*
X97089695Y-70571333D01*
X97184933Y-70523714D01*
X97375409Y-70523714D01*
X97470647Y-70571333D01*
X97042076Y-71142761D02*
X97137314Y-71190380D01*
X97375409Y-71190380D01*
X97470647Y-71142761D01*
X97518266Y-71047523D01*
X97518266Y-70952285D01*
X97470647Y-70857047D01*
X97375409Y-70809428D01*
X97137314Y-70809428D01*
X97042076Y-70761809D01*
X96137314Y-71190380D02*
X96137314Y-70190380D01*
X96137314Y-71142761D02*
X96232552Y-71190380D01*
X96423028Y-71190380D01*
X96518266Y-71142761D01*
X96565885Y-71095142D01*
X96613504Y-70999904D01*
X96613504Y-70714190D01*
X96565885Y-70618952D01*
X96518266Y-70571333D01*
X96423028Y-70523714D01*
X96232552Y-70523714D01*
X96137314Y-70571333D01*
X95280171Y-71142761D02*
X95375409Y-71190380D01*
X95565885Y-71190380D01*
X95661123Y-71142761D01*
X95708742Y-71047523D01*
X95708742Y-70666571D01*
X95661123Y-70571333D01*
X95565885Y-70523714D01*
X95375409Y-70523714D01*
X95280171Y-70571333D01*
X95232552Y-70666571D01*
X95232552Y-70761809D01*
X95708742Y-70857047D01*
X94042076Y-71190380D02*
X94042076Y-70190380D01*
X94042076Y-70571333D02*
X93946838Y-70523714D01*
X93756361Y-70523714D01*
X93661123Y-70571333D01*
X93613504Y-70618952D01*
X93565885Y-70714190D01*
X93565885Y-70999904D01*
X93613504Y-71095142D01*
X93661123Y-71142761D01*
X93756361Y-71190380D01*
X93946838Y-71190380D01*
X94042076Y-71142761D01*
X93232552Y-70523714D02*
X92994457Y-71190380D01*
X92756361Y-70523714D02*
X92994457Y-71190380D01*
X93089695Y-71428476D01*
X93137314Y-71476095D01*
X93232552Y-71523714D01*
X98446838Y-72840380D02*
X98446838Y-71840380D01*
X98446838Y-72316571D02*
X97875409Y-72316571D01*
X97875409Y-72840380D02*
X97875409Y-71840380D01*
X97018266Y-72792761D02*
X97113504Y-72840380D01*
X97303980Y-72840380D01*
X97399219Y-72792761D01*
X97446838Y-72697523D01*
X97446838Y-72316571D01*
X97399219Y-72221333D01*
X97303980Y-72173714D01*
X97113504Y-72173714D01*
X97018266Y-72221333D01*
X96970647Y-72316571D01*
X96970647Y-72411809D01*
X97446838Y-72507047D01*
X96542076Y-72173714D02*
X96542076Y-72840380D01*
X96542076Y-72268952D02*
X96494457Y-72221333D01*
X96399219Y-72173714D01*
X96256361Y-72173714D01*
X96161123Y-72221333D01*
X96113504Y-72316571D01*
X96113504Y-72840380D01*
X95637314Y-72840380D02*
X95637314Y-72173714D01*
X95637314Y-72364190D02*
X95589695Y-72268952D01*
X95542076Y-72221333D01*
X95446838Y-72173714D01*
X95351600Y-72173714D01*
X95113504Y-72173714D02*
X94875409Y-72840380D01*
X94637314Y-72173714D02*
X94875409Y-72840380D01*
X94970647Y-73078476D01*
X95018266Y-73126095D01*
X95113504Y-73173714D01*
X93018266Y-72840380D02*
X93494457Y-72840380D01*
X93494457Y-71840380D01*
X92542076Y-72840380D02*
X92637314Y-72792761D01*
X92684933Y-72745142D01*
X92732552Y-72649904D01*
X92732552Y-72364190D01*
X92684933Y-72268952D01*
X92637314Y-72221333D01*
X92542076Y-72173714D01*
X92399219Y-72173714D01*
X92303980Y-72221333D01*
X92256361Y-72268952D01*
X92208742Y-72364190D01*
X92208742Y-72649904D01*
X92256361Y-72745142D01*
X92303980Y-72792761D01*
X92399219Y-72840380D01*
X92542076Y-72840380D01*
X89233142Y-80835980D02*
X89042666Y-80835980D01*
X88947428Y-80883600D01*
X88852190Y-80978838D01*
X88804571Y-81169314D01*
X88804571Y-81502647D01*
X88852190Y-81693123D01*
X88947428Y-81788361D01*
X89042666Y-81835980D01*
X89233142Y-81835980D01*
X89328380Y-81788361D01*
X89423619Y-81693123D01*
X89471238Y-81502647D01*
X89471238Y-81169314D01*
X89423619Y-80978838D01*
X89328380Y-80883600D01*
X89233142Y-80835980D01*
X88518857Y-80835980D02*
X87947428Y-80835980D01*
X88233142Y-81835980D02*
X88233142Y-80835980D01*
X87614095Y-81835980D02*
X87614095Y-80835980D01*
X87376000Y-80835980D01*
X87233142Y-80883600D01*
X87137904Y-80978838D01*
X87090285Y-81074076D01*
X87042666Y-81264552D01*
X87042666Y-81407409D01*
X87090285Y-81597885D01*
X87137904Y-81693123D01*
X87233142Y-81788361D01*
X87376000Y-81835980D01*
X87614095Y-81835980D01*
X86090285Y-80883600D02*
X86185523Y-80835980D01*
X86328380Y-80835980D01*
X86471238Y-80883600D01*
X86566476Y-80978838D01*
X86614095Y-81074076D01*
X86661714Y-81264552D01*
X86661714Y-81407409D01*
X86614095Y-81597885D01*
X86566476Y-81693123D01*
X86471238Y-81788361D01*
X86328380Y-81835980D01*
X86233142Y-81835980D01*
X86090285Y-81788361D01*
X86042666Y-81740742D01*
X86042666Y-81407409D01*
X86233142Y-81407409D01*
X90471238Y-82962171D02*
X90804571Y-82962171D01*
X90804571Y-83485980D02*
X90804571Y-82485980D01*
X90328380Y-82485980D01*
X89947428Y-83485980D02*
X89947428Y-82819314D01*
X89947428Y-82485980D02*
X89995047Y-82533600D01*
X89947428Y-82581219D01*
X89899809Y-82533600D01*
X89947428Y-82485980D01*
X89947428Y-82581219D01*
X89471238Y-82819314D02*
X89471238Y-83485980D01*
X89471238Y-82914552D02*
X89423619Y-82866933D01*
X89328380Y-82819314D01*
X89185523Y-82819314D01*
X89090285Y-82866933D01*
X89042666Y-82962171D01*
X89042666Y-83485980D01*
X88137904Y-82819314D02*
X88137904Y-83628838D01*
X88185523Y-83724076D01*
X88233142Y-83771695D01*
X88328380Y-83819314D01*
X88471238Y-83819314D01*
X88566476Y-83771695D01*
X88137904Y-83438361D02*
X88233142Y-83485980D01*
X88423619Y-83485980D01*
X88518857Y-83438361D01*
X88566476Y-83390742D01*
X88614095Y-83295504D01*
X88614095Y-83009790D01*
X88566476Y-82914552D01*
X88518857Y-82866933D01*
X88423619Y-82819314D01*
X88233142Y-82819314D01*
X88137904Y-82866933D01*
X87280761Y-83438361D02*
X87376000Y-83485980D01*
X87566476Y-83485980D01*
X87661714Y-83438361D01*
X87709333Y-83343123D01*
X87709333Y-82962171D01*
X87661714Y-82866933D01*
X87566476Y-82819314D01*
X87376000Y-82819314D01*
X87280761Y-82866933D01*
X87233142Y-82962171D01*
X87233142Y-83057409D01*
X87709333Y-83152647D01*
X86804571Y-83485980D02*
X86804571Y-82819314D01*
X86804571Y-83009790D02*
X86756952Y-82914552D01*
X86709333Y-82866933D01*
X86614095Y-82819314D01*
X86518857Y-82819314D01*
X86185523Y-82819314D02*
X86185523Y-83819314D01*
X86185523Y-82866933D02*
X86090285Y-82819314D01*
X85899809Y-82819314D01*
X85804571Y-82866933D01*
X85756952Y-82914552D01*
X85709333Y-83009790D01*
X85709333Y-83295504D01*
X85756952Y-83390742D01*
X85804571Y-83438361D01*
X85899809Y-83485980D01*
X86090285Y-83485980D01*
X86185523Y-83438361D01*
X84852190Y-83485980D02*
X84852190Y-82962171D01*
X84899809Y-82866933D01*
X84995047Y-82819314D01*
X85185523Y-82819314D01*
X85280761Y-82866933D01*
X84852190Y-83438361D02*
X84947428Y-83485980D01*
X85185523Y-83485980D01*
X85280761Y-83438361D01*
X85328380Y-83343123D01*
X85328380Y-83247885D01*
X85280761Y-83152647D01*
X85185523Y-83105028D01*
X84947428Y-83105028D01*
X84852190Y-83057409D01*
X83947428Y-83485980D02*
X83947428Y-82485980D01*
X83947428Y-83438361D02*
X84042666Y-83485980D01*
X84233142Y-83485980D01*
X84328380Y-83438361D01*
X84376000Y-83390742D01*
X84423619Y-83295504D01*
X84423619Y-83009790D01*
X84376000Y-82914552D01*
X84328380Y-82866933D01*
X84233142Y-82819314D01*
X84042666Y-82819314D01*
X83947428Y-82866933D01*
X90637904Y-86785980D02*
X90637904Y-85785980D01*
X90304571Y-86500266D01*
X89971238Y-85785980D01*
X89971238Y-86785980D01*
X89066476Y-86785980D02*
X89066476Y-86262171D01*
X89114095Y-86166933D01*
X89209333Y-86119314D01*
X89399809Y-86119314D01*
X89495047Y-86166933D01*
X89066476Y-86738361D02*
X89161714Y-86785980D01*
X89399809Y-86785980D01*
X89495047Y-86738361D01*
X89542666Y-86643123D01*
X89542666Y-86547885D01*
X89495047Y-86452647D01*
X89399809Y-86405028D01*
X89161714Y-86405028D01*
X89066476Y-86357409D01*
X88161714Y-86785980D02*
X88161714Y-85785980D01*
X88161714Y-86738361D02*
X88256952Y-86785980D01*
X88447428Y-86785980D01*
X88542666Y-86738361D01*
X88590285Y-86690742D01*
X88637904Y-86595504D01*
X88637904Y-86309790D01*
X88590285Y-86214552D01*
X88542666Y-86166933D01*
X88447428Y-86119314D01*
X88256952Y-86119314D01*
X88161714Y-86166933D01*
X87304571Y-86738361D02*
X87399809Y-86785980D01*
X87590285Y-86785980D01*
X87685523Y-86738361D01*
X87733142Y-86643123D01*
X87733142Y-86262171D01*
X87685523Y-86166933D01*
X87590285Y-86119314D01*
X87399809Y-86119314D01*
X87304571Y-86166933D01*
X87256952Y-86262171D01*
X87256952Y-86357409D01*
X87733142Y-86452647D01*
X86066476Y-86785980D02*
X86066476Y-85785980D01*
X86066476Y-86166933D02*
X85971238Y-86119314D01*
X85780761Y-86119314D01*
X85685523Y-86166933D01*
X85637904Y-86214552D01*
X85590285Y-86309790D01*
X85590285Y-86595504D01*
X85637904Y-86690742D01*
X85685523Y-86738361D01*
X85780761Y-86785980D01*
X85971238Y-86785980D01*
X86066476Y-86738361D01*
X85256952Y-86119314D02*
X85018857Y-86785980D01*
X84780761Y-86119314D02*
X85018857Y-86785980D01*
X85114095Y-87024076D01*
X85161714Y-87071695D01*
X85256952Y-87119314D01*
X90471238Y-88435980D02*
X90471238Y-87435980D01*
X90471238Y-87912171D02*
X89899809Y-87912171D01*
X89899809Y-88435980D02*
X89899809Y-87435980D01*
X89042666Y-88388361D02*
X89137904Y-88435980D01*
X89328380Y-88435980D01*
X89423619Y-88388361D01*
X89471238Y-88293123D01*
X89471238Y-87912171D01*
X89423619Y-87816933D01*
X89328380Y-87769314D01*
X89137904Y-87769314D01*
X89042666Y-87816933D01*
X88995047Y-87912171D01*
X88995047Y-88007409D01*
X89471238Y-88102647D01*
X88566476Y-87769314D02*
X88566476Y-88435980D01*
X88566476Y-87864552D02*
X88518857Y-87816933D01*
X88423619Y-87769314D01*
X88280761Y-87769314D01*
X88185523Y-87816933D01*
X88137904Y-87912171D01*
X88137904Y-88435980D01*
X87661714Y-88435980D02*
X87661714Y-87769314D01*
X87661714Y-87959790D02*
X87614095Y-87864552D01*
X87566476Y-87816933D01*
X87471238Y-87769314D01*
X87376000Y-87769314D01*
X87137904Y-87769314D02*
X86899809Y-88435980D01*
X86661714Y-87769314D02*
X86899809Y-88435980D01*
X86995047Y-88674076D01*
X87042666Y-88721695D01*
X87137904Y-88769314D01*
X85042666Y-88435980D02*
X85518857Y-88435980D01*
X85518857Y-87435980D01*
X84566476Y-88435980D02*
X84661714Y-88388361D01*
X84709333Y-88340742D01*
X84756952Y-88245504D01*
X84756952Y-87959790D01*
X84709333Y-87864552D01*
X84661714Y-87816933D01*
X84566476Y-87769314D01*
X84423619Y-87769314D01*
X84328380Y-87816933D01*
X84280761Y-87864552D01*
X84233142Y-87959790D01*
X84233142Y-88245504D01*
X84280761Y-88340742D01*
X84328380Y-88388361D01*
X84423619Y-88435980D01*
X84566476Y-88435980D01*
X78895342Y-80988380D02*
X78704866Y-80988380D01*
X78609628Y-81036000D01*
X78514390Y-81131238D01*
X78466771Y-81321714D01*
X78466771Y-81655047D01*
X78514390Y-81845523D01*
X78609628Y-81940761D01*
X78704866Y-81988380D01*
X78895342Y-81988380D01*
X78990580Y-81940761D01*
X79085819Y-81845523D01*
X79133438Y-81655047D01*
X79133438Y-81321714D01*
X79085819Y-81131238D01*
X78990580Y-81036000D01*
X78895342Y-80988380D01*
X78181057Y-80988380D02*
X77609628Y-80988380D01*
X77895342Y-81988380D02*
X77895342Y-80988380D01*
X77276295Y-81988380D02*
X77276295Y-80988380D01*
X77038200Y-80988380D01*
X76895342Y-81036000D01*
X76800104Y-81131238D01*
X76752485Y-81226476D01*
X76704866Y-81416952D01*
X76704866Y-81559809D01*
X76752485Y-81750285D01*
X76800104Y-81845523D01*
X76895342Y-81940761D01*
X77038200Y-81988380D01*
X77276295Y-81988380D01*
X75752485Y-81036000D02*
X75847723Y-80988380D01*
X75990580Y-80988380D01*
X76133438Y-81036000D01*
X76228676Y-81131238D01*
X76276295Y-81226476D01*
X76323914Y-81416952D01*
X76323914Y-81559809D01*
X76276295Y-81750285D01*
X76228676Y-81845523D01*
X76133438Y-81940761D01*
X75990580Y-81988380D01*
X75895342Y-81988380D01*
X75752485Y-81940761D01*
X75704866Y-81893142D01*
X75704866Y-81559809D01*
X75895342Y-81559809D01*
X80133438Y-83114571D02*
X80466771Y-83114571D01*
X80466771Y-83638380D02*
X80466771Y-82638380D01*
X79990580Y-82638380D01*
X79609628Y-83638380D02*
X79609628Y-82971714D01*
X79609628Y-82638380D02*
X79657247Y-82686000D01*
X79609628Y-82733619D01*
X79562009Y-82686000D01*
X79609628Y-82638380D01*
X79609628Y-82733619D01*
X79133438Y-82971714D02*
X79133438Y-83638380D01*
X79133438Y-83066952D02*
X79085819Y-83019333D01*
X78990580Y-82971714D01*
X78847723Y-82971714D01*
X78752485Y-83019333D01*
X78704866Y-83114571D01*
X78704866Y-83638380D01*
X77800104Y-82971714D02*
X77800104Y-83781238D01*
X77847723Y-83876476D01*
X77895342Y-83924095D01*
X77990580Y-83971714D01*
X78133438Y-83971714D01*
X78228676Y-83924095D01*
X77800104Y-83590761D02*
X77895342Y-83638380D01*
X78085819Y-83638380D01*
X78181057Y-83590761D01*
X78228676Y-83543142D01*
X78276295Y-83447904D01*
X78276295Y-83162190D01*
X78228676Y-83066952D01*
X78181057Y-83019333D01*
X78085819Y-82971714D01*
X77895342Y-82971714D01*
X77800104Y-83019333D01*
X76942961Y-83590761D02*
X77038200Y-83638380D01*
X77228676Y-83638380D01*
X77323914Y-83590761D01*
X77371533Y-83495523D01*
X77371533Y-83114571D01*
X77323914Y-83019333D01*
X77228676Y-82971714D01*
X77038200Y-82971714D01*
X76942961Y-83019333D01*
X76895342Y-83114571D01*
X76895342Y-83209809D01*
X77371533Y-83305047D01*
X76466771Y-83638380D02*
X76466771Y-82971714D01*
X76466771Y-83162190D02*
X76419152Y-83066952D01*
X76371533Y-83019333D01*
X76276295Y-82971714D01*
X76181057Y-82971714D01*
X75847723Y-82971714D02*
X75847723Y-83971714D01*
X75847723Y-83019333D02*
X75752485Y-82971714D01*
X75562009Y-82971714D01*
X75466771Y-83019333D01*
X75419152Y-83066952D01*
X75371533Y-83162190D01*
X75371533Y-83447904D01*
X75419152Y-83543142D01*
X75466771Y-83590761D01*
X75562009Y-83638380D01*
X75752485Y-83638380D01*
X75847723Y-83590761D01*
X74514390Y-83638380D02*
X74514390Y-83114571D01*
X74562009Y-83019333D01*
X74657247Y-82971714D01*
X74847723Y-82971714D01*
X74942961Y-83019333D01*
X74514390Y-83590761D02*
X74609628Y-83638380D01*
X74847723Y-83638380D01*
X74942961Y-83590761D01*
X74990580Y-83495523D01*
X74990580Y-83400285D01*
X74942961Y-83305047D01*
X74847723Y-83257428D01*
X74609628Y-83257428D01*
X74514390Y-83209809D01*
X73609628Y-83638380D02*
X73609628Y-82638380D01*
X73609628Y-83590761D02*
X73704866Y-83638380D01*
X73895342Y-83638380D01*
X73990580Y-83590761D01*
X74038200Y-83543142D01*
X74085819Y-83447904D01*
X74085819Y-83162190D01*
X74038200Y-83066952D01*
X73990580Y-83019333D01*
X73895342Y-82971714D01*
X73704866Y-82971714D01*
X73609628Y-83019333D01*
X80300104Y-86938380D02*
X80300104Y-85938380D01*
X79966771Y-86652666D01*
X79633438Y-85938380D01*
X79633438Y-86938380D01*
X78728676Y-86938380D02*
X78728676Y-86414571D01*
X78776295Y-86319333D01*
X78871533Y-86271714D01*
X79062009Y-86271714D01*
X79157247Y-86319333D01*
X78728676Y-86890761D02*
X78823914Y-86938380D01*
X79062009Y-86938380D01*
X79157247Y-86890761D01*
X79204866Y-86795523D01*
X79204866Y-86700285D01*
X79157247Y-86605047D01*
X79062009Y-86557428D01*
X78823914Y-86557428D01*
X78728676Y-86509809D01*
X77823914Y-86938380D02*
X77823914Y-85938380D01*
X77823914Y-86890761D02*
X77919152Y-86938380D01*
X78109628Y-86938380D01*
X78204866Y-86890761D01*
X78252485Y-86843142D01*
X78300104Y-86747904D01*
X78300104Y-86462190D01*
X78252485Y-86366952D01*
X78204866Y-86319333D01*
X78109628Y-86271714D01*
X77919152Y-86271714D01*
X77823914Y-86319333D01*
X76966771Y-86890761D02*
X77062009Y-86938380D01*
X77252485Y-86938380D01*
X77347723Y-86890761D01*
X77395342Y-86795523D01*
X77395342Y-86414571D01*
X77347723Y-86319333D01*
X77252485Y-86271714D01*
X77062009Y-86271714D01*
X76966771Y-86319333D01*
X76919152Y-86414571D01*
X76919152Y-86509809D01*
X77395342Y-86605047D01*
X75728676Y-86938380D02*
X75728676Y-85938380D01*
X75728676Y-86319333D02*
X75633438Y-86271714D01*
X75442961Y-86271714D01*
X75347723Y-86319333D01*
X75300104Y-86366952D01*
X75252485Y-86462190D01*
X75252485Y-86747904D01*
X75300104Y-86843142D01*
X75347723Y-86890761D01*
X75442961Y-86938380D01*
X75633438Y-86938380D01*
X75728676Y-86890761D01*
X74919152Y-86271714D02*
X74681057Y-86938380D01*
X74442961Y-86271714D02*
X74681057Y-86938380D01*
X74776295Y-87176476D01*
X74823914Y-87224095D01*
X74919152Y-87271714D01*
X80133438Y-88588380D02*
X80133438Y-87588380D01*
X80133438Y-88064571D02*
X79562009Y-88064571D01*
X79562009Y-88588380D02*
X79562009Y-87588380D01*
X78704866Y-88540761D02*
X78800104Y-88588380D01*
X78990580Y-88588380D01*
X79085819Y-88540761D01*
X79133438Y-88445523D01*
X79133438Y-88064571D01*
X79085819Y-87969333D01*
X78990580Y-87921714D01*
X78800104Y-87921714D01*
X78704866Y-87969333D01*
X78657247Y-88064571D01*
X78657247Y-88159809D01*
X79133438Y-88255047D01*
X78228676Y-87921714D02*
X78228676Y-88588380D01*
X78228676Y-88016952D02*
X78181057Y-87969333D01*
X78085819Y-87921714D01*
X77942961Y-87921714D01*
X77847723Y-87969333D01*
X77800104Y-88064571D01*
X77800104Y-88588380D01*
X77323914Y-88588380D02*
X77323914Y-87921714D01*
X77323914Y-88112190D02*
X77276295Y-88016952D01*
X77228676Y-87969333D01*
X77133438Y-87921714D01*
X77038200Y-87921714D01*
X76800104Y-87921714D02*
X76562009Y-88588380D01*
X76323914Y-87921714D02*
X76562009Y-88588380D01*
X76657247Y-88826476D01*
X76704866Y-88874095D01*
X76800104Y-88921714D01*
X74704866Y-88588380D02*
X75181057Y-88588380D01*
X75181057Y-87588380D01*
X74228676Y-88588380D02*
X74323914Y-88540761D01*
X74371533Y-88493142D01*
X74419152Y-88397904D01*
X74419152Y-88112190D01*
X74371533Y-88016952D01*
X74323914Y-87969333D01*
X74228676Y-87921714D01*
X74085819Y-87921714D01*
X73990580Y-87969333D01*
X73942961Y-88016952D01*
X73895342Y-88112190D01*
X73895342Y-88397904D01*
X73942961Y-88493142D01*
X73990580Y-88540761D01*
X74085819Y-88588380D01*
X74228676Y-88588380D01*
X69700542Y-80988380D02*
X69510066Y-80988380D01*
X69414828Y-81036000D01*
X69319590Y-81131238D01*
X69271971Y-81321714D01*
X69271971Y-81655047D01*
X69319590Y-81845523D01*
X69414828Y-81940761D01*
X69510066Y-81988380D01*
X69700542Y-81988380D01*
X69795780Y-81940761D01*
X69891019Y-81845523D01*
X69938638Y-81655047D01*
X69938638Y-81321714D01*
X69891019Y-81131238D01*
X69795780Y-81036000D01*
X69700542Y-80988380D01*
X68986257Y-80988380D02*
X68414828Y-80988380D01*
X68700542Y-81988380D02*
X68700542Y-80988380D01*
X68081495Y-81988380D02*
X68081495Y-80988380D01*
X67843400Y-80988380D01*
X67700542Y-81036000D01*
X67605304Y-81131238D01*
X67557685Y-81226476D01*
X67510066Y-81416952D01*
X67510066Y-81559809D01*
X67557685Y-81750285D01*
X67605304Y-81845523D01*
X67700542Y-81940761D01*
X67843400Y-81988380D01*
X68081495Y-81988380D01*
X66557685Y-81036000D02*
X66652923Y-80988380D01*
X66795780Y-80988380D01*
X66938638Y-81036000D01*
X67033876Y-81131238D01*
X67081495Y-81226476D01*
X67129114Y-81416952D01*
X67129114Y-81559809D01*
X67081495Y-81750285D01*
X67033876Y-81845523D01*
X66938638Y-81940761D01*
X66795780Y-81988380D01*
X66700542Y-81988380D01*
X66557685Y-81940761D01*
X66510066Y-81893142D01*
X66510066Y-81559809D01*
X66700542Y-81559809D01*
X70938638Y-83114571D02*
X71271971Y-83114571D01*
X71271971Y-83638380D02*
X71271971Y-82638380D01*
X70795780Y-82638380D01*
X70414828Y-83638380D02*
X70414828Y-82971714D01*
X70414828Y-82638380D02*
X70462447Y-82686000D01*
X70414828Y-82733619D01*
X70367209Y-82686000D01*
X70414828Y-82638380D01*
X70414828Y-82733619D01*
X69938638Y-82971714D02*
X69938638Y-83638380D01*
X69938638Y-83066952D02*
X69891019Y-83019333D01*
X69795780Y-82971714D01*
X69652923Y-82971714D01*
X69557685Y-83019333D01*
X69510066Y-83114571D01*
X69510066Y-83638380D01*
X68605304Y-82971714D02*
X68605304Y-83781238D01*
X68652923Y-83876476D01*
X68700542Y-83924095D01*
X68795780Y-83971714D01*
X68938638Y-83971714D01*
X69033876Y-83924095D01*
X68605304Y-83590761D02*
X68700542Y-83638380D01*
X68891019Y-83638380D01*
X68986257Y-83590761D01*
X69033876Y-83543142D01*
X69081495Y-83447904D01*
X69081495Y-83162190D01*
X69033876Y-83066952D01*
X68986257Y-83019333D01*
X68891019Y-82971714D01*
X68700542Y-82971714D01*
X68605304Y-83019333D01*
X67748161Y-83590761D02*
X67843400Y-83638380D01*
X68033876Y-83638380D01*
X68129114Y-83590761D01*
X68176733Y-83495523D01*
X68176733Y-83114571D01*
X68129114Y-83019333D01*
X68033876Y-82971714D01*
X67843400Y-82971714D01*
X67748161Y-83019333D01*
X67700542Y-83114571D01*
X67700542Y-83209809D01*
X68176733Y-83305047D01*
X67271971Y-83638380D02*
X67271971Y-82971714D01*
X67271971Y-83162190D02*
X67224352Y-83066952D01*
X67176733Y-83019333D01*
X67081495Y-82971714D01*
X66986257Y-82971714D01*
X66652923Y-82971714D02*
X66652923Y-83971714D01*
X66652923Y-83019333D02*
X66557685Y-82971714D01*
X66367209Y-82971714D01*
X66271971Y-83019333D01*
X66224352Y-83066952D01*
X66176733Y-83162190D01*
X66176733Y-83447904D01*
X66224352Y-83543142D01*
X66271971Y-83590761D01*
X66367209Y-83638380D01*
X66557685Y-83638380D01*
X66652923Y-83590761D01*
X65319590Y-83638380D02*
X65319590Y-83114571D01*
X65367209Y-83019333D01*
X65462447Y-82971714D01*
X65652923Y-82971714D01*
X65748161Y-83019333D01*
X65319590Y-83590761D02*
X65414828Y-83638380D01*
X65652923Y-83638380D01*
X65748161Y-83590761D01*
X65795780Y-83495523D01*
X65795780Y-83400285D01*
X65748161Y-83305047D01*
X65652923Y-83257428D01*
X65414828Y-83257428D01*
X65319590Y-83209809D01*
X64414828Y-83638380D02*
X64414828Y-82638380D01*
X64414828Y-83590761D02*
X64510066Y-83638380D01*
X64700542Y-83638380D01*
X64795780Y-83590761D01*
X64843400Y-83543142D01*
X64891019Y-83447904D01*
X64891019Y-83162190D01*
X64843400Y-83066952D01*
X64795780Y-83019333D01*
X64700542Y-82971714D01*
X64510066Y-82971714D01*
X64414828Y-83019333D01*
X71105304Y-86938380D02*
X71105304Y-85938380D01*
X70771971Y-86652666D01*
X70438638Y-85938380D01*
X70438638Y-86938380D01*
X69533876Y-86938380D02*
X69533876Y-86414571D01*
X69581495Y-86319333D01*
X69676733Y-86271714D01*
X69867209Y-86271714D01*
X69962447Y-86319333D01*
X69533876Y-86890761D02*
X69629114Y-86938380D01*
X69867209Y-86938380D01*
X69962447Y-86890761D01*
X70010066Y-86795523D01*
X70010066Y-86700285D01*
X69962447Y-86605047D01*
X69867209Y-86557428D01*
X69629114Y-86557428D01*
X69533876Y-86509809D01*
X68629114Y-86938380D02*
X68629114Y-85938380D01*
X68629114Y-86890761D02*
X68724352Y-86938380D01*
X68914828Y-86938380D01*
X69010066Y-86890761D01*
X69057685Y-86843142D01*
X69105304Y-86747904D01*
X69105304Y-86462190D01*
X69057685Y-86366952D01*
X69010066Y-86319333D01*
X68914828Y-86271714D01*
X68724352Y-86271714D01*
X68629114Y-86319333D01*
X67771971Y-86890761D02*
X67867209Y-86938380D01*
X68057685Y-86938380D01*
X68152923Y-86890761D01*
X68200542Y-86795523D01*
X68200542Y-86414571D01*
X68152923Y-86319333D01*
X68057685Y-86271714D01*
X67867209Y-86271714D01*
X67771971Y-86319333D01*
X67724352Y-86414571D01*
X67724352Y-86509809D01*
X68200542Y-86605047D01*
X66533876Y-86938380D02*
X66533876Y-85938380D01*
X66533876Y-86319333D02*
X66438638Y-86271714D01*
X66248161Y-86271714D01*
X66152923Y-86319333D01*
X66105304Y-86366952D01*
X66057685Y-86462190D01*
X66057685Y-86747904D01*
X66105304Y-86843142D01*
X66152923Y-86890761D01*
X66248161Y-86938380D01*
X66438638Y-86938380D01*
X66533876Y-86890761D01*
X65724352Y-86271714D02*
X65486257Y-86938380D01*
X65248161Y-86271714D02*
X65486257Y-86938380D01*
X65581495Y-87176476D01*
X65629114Y-87224095D01*
X65724352Y-87271714D01*
X70938638Y-88588380D02*
X70938638Y-87588380D01*
X70938638Y-88064571D02*
X70367209Y-88064571D01*
X70367209Y-88588380D02*
X70367209Y-87588380D01*
X69510066Y-88540761D02*
X69605304Y-88588380D01*
X69795780Y-88588380D01*
X69891019Y-88540761D01*
X69938638Y-88445523D01*
X69938638Y-88064571D01*
X69891019Y-87969333D01*
X69795780Y-87921714D01*
X69605304Y-87921714D01*
X69510066Y-87969333D01*
X69462447Y-88064571D01*
X69462447Y-88159809D01*
X69938638Y-88255047D01*
X69033876Y-87921714D02*
X69033876Y-88588380D01*
X69033876Y-88016952D02*
X68986257Y-87969333D01*
X68891019Y-87921714D01*
X68748161Y-87921714D01*
X68652923Y-87969333D01*
X68605304Y-88064571D01*
X68605304Y-88588380D01*
X68129114Y-88588380D02*
X68129114Y-87921714D01*
X68129114Y-88112190D02*
X68081495Y-88016952D01*
X68033876Y-87969333D01*
X67938638Y-87921714D01*
X67843400Y-87921714D01*
X67605304Y-87921714D02*
X67367209Y-88588380D01*
X67129114Y-87921714D02*
X67367209Y-88588380D01*
X67462447Y-88826476D01*
X67510066Y-88874095D01*
X67605304Y-88921714D01*
X65510066Y-88588380D02*
X65986257Y-88588380D01*
X65986257Y-87588380D01*
X65033876Y-88588380D02*
X65129114Y-88540761D01*
X65176733Y-88493142D01*
X65224352Y-88397904D01*
X65224352Y-88112190D01*
X65176733Y-88016952D01*
X65129114Y-87969333D01*
X65033876Y-87921714D01*
X64891019Y-87921714D01*
X64795780Y-87969333D01*
X64748161Y-88016952D01*
X64700542Y-88112190D01*
X64700542Y-88397904D01*
X64748161Y-88493142D01*
X64795780Y-88540761D01*
X64891019Y-88588380D01*
X65033876Y-88588380D01*
X61242342Y-80988380D02*
X61051866Y-80988380D01*
X60956628Y-81036000D01*
X60861390Y-81131238D01*
X60813771Y-81321714D01*
X60813771Y-81655047D01*
X60861390Y-81845523D01*
X60956628Y-81940761D01*
X61051866Y-81988380D01*
X61242342Y-81988380D01*
X61337580Y-81940761D01*
X61432819Y-81845523D01*
X61480438Y-81655047D01*
X61480438Y-81321714D01*
X61432819Y-81131238D01*
X61337580Y-81036000D01*
X61242342Y-80988380D01*
X60528057Y-80988380D02*
X59956628Y-80988380D01*
X60242342Y-81988380D02*
X60242342Y-80988380D01*
X59623295Y-81988380D02*
X59623295Y-80988380D01*
X59385200Y-80988380D01*
X59242342Y-81036000D01*
X59147104Y-81131238D01*
X59099485Y-81226476D01*
X59051866Y-81416952D01*
X59051866Y-81559809D01*
X59099485Y-81750285D01*
X59147104Y-81845523D01*
X59242342Y-81940761D01*
X59385200Y-81988380D01*
X59623295Y-81988380D01*
X58099485Y-81036000D02*
X58194723Y-80988380D01*
X58337580Y-80988380D01*
X58480438Y-81036000D01*
X58575676Y-81131238D01*
X58623295Y-81226476D01*
X58670914Y-81416952D01*
X58670914Y-81559809D01*
X58623295Y-81750285D01*
X58575676Y-81845523D01*
X58480438Y-81940761D01*
X58337580Y-81988380D01*
X58242342Y-81988380D01*
X58099485Y-81940761D01*
X58051866Y-81893142D01*
X58051866Y-81559809D01*
X58242342Y-81559809D01*
X62480438Y-83114571D02*
X62813771Y-83114571D01*
X62813771Y-83638380D02*
X62813771Y-82638380D01*
X62337580Y-82638380D01*
X61956628Y-83638380D02*
X61956628Y-82971714D01*
X61956628Y-82638380D02*
X62004247Y-82686000D01*
X61956628Y-82733619D01*
X61909009Y-82686000D01*
X61956628Y-82638380D01*
X61956628Y-82733619D01*
X61480438Y-82971714D02*
X61480438Y-83638380D01*
X61480438Y-83066952D02*
X61432819Y-83019333D01*
X61337580Y-82971714D01*
X61194723Y-82971714D01*
X61099485Y-83019333D01*
X61051866Y-83114571D01*
X61051866Y-83638380D01*
X60147104Y-82971714D02*
X60147104Y-83781238D01*
X60194723Y-83876476D01*
X60242342Y-83924095D01*
X60337580Y-83971714D01*
X60480438Y-83971714D01*
X60575676Y-83924095D01*
X60147104Y-83590761D02*
X60242342Y-83638380D01*
X60432819Y-83638380D01*
X60528057Y-83590761D01*
X60575676Y-83543142D01*
X60623295Y-83447904D01*
X60623295Y-83162190D01*
X60575676Y-83066952D01*
X60528057Y-83019333D01*
X60432819Y-82971714D01*
X60242342Y-82971714D01*
X60147104Y-83019333D01*
X59289961Y-83590761D02*
X59385200Y-83638380D01*
X59575676Y-83638380D01*
X59670914Y-83590761D01*
X59718533Y-83495523D01*
X59718533Y-83114571D01*
X59670914Y-83019333D01*
X59575676Y-82971714D01*
X59385200Y-82971714D01*
X59289961Y-83019333D01*
X59242342Y-83114571D01*
X59242342Y-83209809D01*
X59718533Y-83305047D01*
X58813771Y-83638380D02*
X58813771Y-82971714D01*
X58813771Y-83162190D02*
X58766152Y-83066952D01*
X58718533Y-83019333D01*
X58623295Y-82971714D01*
X58528057Y-82971714D01*
X58194723Y-82971714D02*
X58194723Y-83971714D01*
X58194723Y-83019333D02*
X58099485Y-82971714D01*
X57909009Y-82971714D01*
X57813771Y-83019333D01*
X57766152Y-83066952D01*
X57718533Y-83162190D01*
X57718533Y-83447904D01*
X57766152Y-83543142D01*
X57813771Y-83590761D01*
X57909009Y-83638380D01*
X58099485Y-83638380D01*
X58194723Y-83590761D01*
X56861390Y-83638380D02*
X56861390Y-83114571D01*
X56909009Y-83019333D01*
X57004247Y-82971714D01*
X57194723Y-82971714D01*
X57289961Y-83019333D01*
X56861390Y-83590761D02*
X56956628Y-83638380D01*
X57194723Y-83638380D01*
X57289961Y-83590761D01*
X57337580Y-83495523D01*
X57337580Y-83400285D01*
X57289961Y-83305047D01*
X57194723Y-83257428D01*
X56956628Y-83257428D01*
X56861390Y-83209809D01*
X55956628Y-83638380D02*
X55956628Y-82638380D01*
X55956628Y-83590761D02*
X56051866Y-83638380D01*
X56242342Y-83638380D01*
X56337580Y-83590761D01*
X56385200Y-83543142D01*
X56432819Y-83447904D01*
X56432819Y-83162190D01*
X56385200Y-83066952D01*
X56337580Y-83019333D01*
X56242342Y-82971714D01*
X56051866Y-82971714D01*
X55956628Y-83019333D01*
X62647104Y-86938380D02*
X62647104Y-85938380D01*
X62313771Y-86652666D01*
X61980438Y-85938380D01*
X61980438Y-86938380D01*
X61075676Y-86938380D02*
X61075676Y-86414571D01*
X61123295Y-86319333D01*
X61218533Y-86271714D01*
X61409009Y-86271714D01*
X61504247Y-86319333D01*
X61075676Y-86890761D02*
X61170914Y-86938380D01*
X61409009Y-86938380D01*
X61504247Y-86890761D01*
X61551866Y-86795523D01*
X61551866Y-86700285D01*
X61504247Y-86605047D01*
X61409009Y-86557428D01*
X61170914Y-86557428D01*
X61075676Y-86509809D01*
X60170914Y-86938380D02*
X60170914Y-85938380D01*
X60170914Y-86890761D02*
X60266152Y-86938380D01*
X60456628Y-86938380D01*
X60551866Y-86890761D01*
X60599485Y-86843142D01*
X60647104Y-86747904D01*
X60647104Y-86462190D01*
X60599485Y-86366952D01*
X60551866Y-86319333D01*
X60456628Y-86271714D01*
X60266152Y-86271714D01*
X60170914Y-86319333D01*
X59313771Y-86890761D02*
X59409009Y-86938380D01*
X59599485Y-86938380D01*
X59694723Y-86890761D01*
X59742342Y-86795523D01*
X59742342Y-86414571D01*
X59694723Y-86319333D01*
X59599485Y-86271714D01*
X59409009Y-86271714D01*
X59313771Y-86319333D01*
X59266152Y-86414571D01*
X59266152Y-86509809D01*
X59742342Y-86605047D01*
X58075676Y-86938380D02*
X58075676Y-85938380D01*
X58075676Y-86319333D02*
X57980438Y-86271714D01*
X57789961Y-86271714D01*
X57694723Y-86319333D01*
X57647104Y-86366952D01*
X57599485Y-86462190D01*
X57599485Y-86747904D01*
X57647104Y-86843142D01*
X57694723Y-86890761D01*
X57789961Y-86938380D01*
X57980438Y-86938380D01*
X58075676Y-86890761D01*
X57266152Y-86271714D02*
X57028057Y-86938380D01*
X56789961Y-86271714D02*
X57028057Y-86938380D01*
X57123295Y-87176476D01*
X57170914Y-87224095D01*
X57266152Y-87271714D01*
X62480438Y-88588380D02*
X62480438Y-87588380D01*
X62480438Y-88064571D02*
X61909009Y-88064571D01*
X61909009Y-88588380D02*
X61909009Y-87588380D01*
X61051866Y-88540761D02*
X61147104Y-88588380D01*
X61337580Y-88588380D01*
X61432819Y-88540761D01*
X61480438Y-88445523D01*
X61480438Y-88064571D01*
X61432819Y-87969333D01*
X61337580Y-87921714D01*
X61147104Y-87921714D01*
X61051866Y-87969333D01*
X61004247Y-88064571D01*
X61004247Y-88159809D01*
X61480438Y-88255047D01*
X60575676Y-87921714D02*
X60575676Y-88588380D01*
X60575676Y-88016952D02*
X60528057Y-87969333D01*
X60432819Y-87921714D01*
X60289961Y-87921714D01*
X60194723Y-87969333D01*
X60147104Y-88064571D01*
X60147104Y-88588380D01*
X59670914Y-88588380D02*
X59670914Y-87921714D01*
X59670914Y-88112190D02*
X59623295Y-88016952D01*
X59575676Y-87969333D01*
X59480438Y-87921714D01*
X59385200Y-87921714D01*
X59147104Y-87921714D02*
X58909009Y-88588380D01*
X58670914Y-87921714D02*
X58909009Y-88588380D01*
X59004247Y-88826476D01*
X59051866Y-88874095D01*
X59147104Y-88921714D01*
X57051866Y-88588380D02*
X57528057Y-88588380D01*
X57528057Y-87588380D01*
X56575676Y-88588380D02*
X56670914Y-88540761D01*
X56718533Y-88493142D01*
X56766152Y-88397904D01*
X56766152Y-88112190D01*
X56718533Y-88016952D01*
X56670914Y-87969333D01*
X56575676Y-87921714D01*
X56432819Y-87921714D01*
X56337580Y-87969333D01*
X56289961Y-88016952D01*
X56242342Y-88112190D01*
X56242342Y-88397904D01*
X56289961Y-88493142D01*
X56337580Y-88540761D01*
X56432819Y-88588380D01*
X56575676Y-88588380D01*
X52352342Y-80988380D02*
X52161866Y-80988380D01*
X52066628Y-81036000D01*
X51971390Y-81131238D01*
X51923771Y-81321714D01*
X51923771Y-81655047D01*
X51971390Y-81845523D01*
X52066628Y-81940761D01*
X52161866Y-81988380D01*
X52352342Y-81988380D01*
X52447580Y-81940761D01*
X52542819Y-81845523D01*
X52590438Y-81655047D01*
X52590438Y-81321714D01*
X52542819Y-81131238D01*
X52447580Y-81036000D01*
X52352342Y-80988380D01*
X51638057Y-80988380D02*
X51066628Y-80988380D01*
X51352342Y-81988380D02*
X51352342Y-80988380D01*
X50733295Y-81988380D02*
X50733295Y-80988380D01*
X50495200Y-80988380D01*
X50352342Y-81036000D01*
X50257104Y-81131238D01*
X50209485Y-81226476D01*
X50161866Y-81416952D01*
X50161866Y-81559809D01*
X50209485Y-81750285D01*
X50257104Y-81845523D01*
X50352342Y-81940761D01*
X50495200Y-81988380D01*
X50733295Y-81988380D01*
X49209485Y-81036000D02*
X49304723Y-80988380D01*
X49447580Y-80988380D01*
X49590438Y-81036000D01*
X49685676Y-81131238D01*
X49733295Y-81226476D01*
X49780914Y-81416952D01*
X49780914Y-81559809D01*
X49733295Y-81750285D01*
X49685676Y-81845523D01*
X49590438Y-81940761D01*
X49447580Y-81988380D01*
X49352342Y-81988380D01*
X49209485Y-81940761D01*
X49161866Y-81893142D01*
X49161866Y-81559809D01*
X49352342Y-81559809D01*
X53590438Y-83114571D02*
X53923771Y-83114571D01*
X53923771Y-83638380D02*
X53923771Y-82638380D01*
X53447580Y-82638380D01*
X53066628Y-83638380D02*
X53066628Y-82971714D01*
X53066628Y-82638380D02*
X53114247Y-82686000D01*
X53066628Y-82733619D01*
X53019009Y-82686000D01*
X53066628Y-82638380D01*
X53066628Y-82733619D01*
X52590438Y-82971714D02*
X52590438Y-83638380D01*
X52590438Y-83066952D02*
X52542819Y-83019333D01*
X52447580Y-82971714D01*
X52304723Y-82971714D01*
X52209485Y-83019333D01*
X52161866Y-83114571D01*
X52161866Y-83638380D01*
X51257104Y-82971714D02*
X51257104Y-83781238D01*
X51304723Y-83876476D01*
X51352342Y-83924095D01*
X51447580Y-83971714D01*
X51590438Y-83971714D01*
X51685676Y-83924095D01*
X51257104Y-83590761D02*
X51352342Y-83638380D01*
X51542819Y-83638380D01*
X51638057Y-83590761D01*
X51685676Y-83543142D01*
X51733295Y-83447904D01*
X51733295Y-83162190D01*
X51685676Y-83066952D01*
X51638057Y-83019333D01*
X51542819Y-82971714D01*
X51352342Y-82971714D01*
X51257104Y-83019333D01*
X50399961Y-83590761D02*
X50495200Y-83638380D01*
X50685676Y-83638380D01*
X50780914Y-83590761D01*
X50828533Y-83495523D01*
X50828533Y-83114571D01*
X50780914Y-83019333D01*
X50685676Y-82971714D01*
X50495200Y-82971714D01*
X50399961Y-83019333D01*
X50352342Y-83114571D01*
X50352342Y-83209809D01*
X50828533Y-83305047D01*
X49923771Y-83638380D02*
X49923771Y-82971714D01*
X49923771Y-83162190D02*
X49876152Y-83066952D01*
X49828533Y-83019333D01*
X49733295Y-82971714D01*
X49638057Y-82971714D01*
X49304723Y-82971714D02*
X49304723Y-83971714D01*
X49304723Y-83019333D02*
X49209485Y-82971714D01*
X49019009Y-82971714D01*
X48923771Y-83019333D01*
X48876152Y-83066952D01*
X48828533Y-83162190D01*
X48828533Y-83447904D01*
X48876152Y-83543142D01*
X48923771Y-83590761D01*
X49019009Y-83638380D01*
X49209485Y-83638380D01*
X49304723Y-83590761D01*
X47971390Y-83638380D02*
X47971390Y-83114571D01*
X48019009Y-83019333D01*
X48114247Y-82971714D01*
X48304723Y-82971714D01*
X48399961Y-83019333D01*
X47971390Y-83590761D02*
X48066628Y-83638380D01*
X48304723Y-83638380D01*
X48399961Y-83590761D01*
X48447580Y-83495523D01*
X48447580Y-83400285D01*
X48399961Y-83305047D01*
X48304723Y-83257428D01*
X48066628Y-83257428D01*
X47971390Y-83209809D01*
X47066628Y-83638380D02*
X47066628Y-82638380D01*
X47066628Y-83590761D02*
X47161866Y-83638380D01*
X47352342Y-83638380D01*
X47447580Y-83590761D01*
X47495200Y-83543142D01*
X47542819Y-83447904D01*
X47542819Y-83162190D01*
X47495200Y-83066952D01*
X47447580Y-83019333D01*
X47352342Y-82971714D01*
X47161866Y-82971714D01*
X47066628Y-83019333D01*
X53757104Y-86938380D02*
X53757104Y-85938380D01*
X53423771Y-86652666D01*
X53090438Y-85938380D01*
X53090438Y-86938380D01*
X52185676Y-86938380D02*
X52185676Y-86414571D01*
X52233295Y-86319333D01*
X52328533Y-86271714D01*
X52519009Y-86271714D01*
X52614247Y-86319333D01*
X52185676Y-86890761D02*
X52280914Y-86938380D01*
X52519009Y-86938380D01*
X52614247Y-86890761D01*
X52661866Y-86795523D01*
X52661866Y-86700285D01*
X52614247Y-86605047D01*
X52519009Y-86557428D01*
X52280914Y-86557428D01*
X52185676Y-86509809D01*
X51280914Y-86938380D02*
X51280914Y-85938380D01*
X51280914Y-86890761D02*
X51376152Y-86938380D01*
X51566628Y-86938380D01*
X51661866Y-86890761D01*
X51709485Y-86843142D01*
X51757104Y-86747904D01*
X51757104Y-86462190D01*
X51709485Y-86366952D01*
X51661866Y-86319333D01*
X51566628Y-86271714D01*
X51376152Y-86271714D01*
X51280914Y-86319333D01*
X50423771Y-86890761D02*
X50519009Y-86938380D01*
X50709485Y-86938380D01*
X50804723Y-86890761D01*
X50852342Y-86795523D01*
X50852342Y-86414571D01*
X50804723Y-86319333D01*
X50709485Y-86271714D01*
X50519009Y-86271714D01*
X50423771Y-86319333D01*
X50376152Y-86414571D01*
X50376152Y-86509809D01*
X50852342Y-86605047D01*
X49185676Y-86938380D02*
X49185676Y-85938380D01*
X49185676Y-86319333D02*
X49090438Y-86271714D01*
X48899961Y-86271714D01*
X48804723Y-86319333D01*
X48757104Y-86366952D01*
X48709485Y-86462190D01*
X48709485Y-86747904D01*
X48757104Y-86843142D01*
X48804723Y-86890761D01*
X48899961Y-86938380D01*
X49090438Y-86938380D01*
X49185676Y-86890761D01*
X48376152Y-86271714D02*
X48138057Y-86938380D01*
X47899961Y-86271714D02*
X48138057Y-86938380D01*
X48233295Y-87176476D01*
X48280914Y-87224095D01*
X48376152Y-87271714D01*
X53590438Y-88588380D02*
X53590438Y-87588380D01*
X53590438Y-88064571D02*
X53019009Y-88064571D01*
X53019009Y-88588380D02*
X53019009Y-87588380D01*
X52161866Y-88540761D02*
X52257104Y-88588380D01*
X52447580Y-88588380D01*
X52542819Y-88540761D01*
X52590438Y-88445523D01*
X52590438Y-88064571D01*
X52542819Y-87969333D01*
X52447580Y-87921714D01*
X52257104Y-87921714D01*
X52161866Y-87969333D01*
X52114247Y-88064571D01*
X52114247Y-88159809D01*
X52590438Y-88255047D01*
X51685676Y-87921714D02*
X51685676Y-88588380D01*
X51685676Y-88016952D02*
X51638057Y-87969333D01*
X51542819Y-87921714D01*
X51399961Y-87921714D01*
X51304723Y-87969333D01*
X51257104Y-88064571D01*
X51257104Y-88588380D01*
X50780914Y-88588380D02*
X50780914Y-87921714D01*
X50780914Y-88112190D02*
X50733295Y-88016952D01*
X50685676Y-87969333D01*
X50590438Y-87921714D01*
X50495200Y-87921714D01*
X50257104Y-87921714D02*
X50019009Y-88588380D01*
X49780914Y-87921714D02*
X50019009Y-88588380D01*
X50114247Y-88826476D01*
X50161866Y-88874095D01*
X50257104Y-88921714D01*
X48161866Y-88588380D02*
X48638057Y-88588380D01*
X48638057Y-87588380D01*
X47685676Y-88588380D02*
X47780914Y-88540761D01*
X47828533Y-88493142D01*
X47876152Y-88397904D01*
X47876152Y-88112190D01*
X47828533Y-88016952D01*
X47780914Y-87969333D01*
X47685676Y-87921714D01*
X47542819Y-87921714D01*
X47447580Y-87969333D01*
X47399961Y-88016952D01*
X47352342Y-88112190D01*
X47352342Y-88397904D01*
X47399961Y-88493142D01*
X47447580Y-88540761D01*
X47542819Y-88588380D01*
X47685676Y-88588380D01*
X43157542Y-80988380D02*
X42967066Y-80988380D01*
X42871828Y-81036000D01*
X42776590Y-81131238D01*
X42728971Y-81321714D01*
X42728971Y-81655047D01*
X42776590Y-81845523D01*
X42871828Y-81940761D01*
X42967066Y-81988380D01*
X43157542Y-81988380D01*
X43252780Y-81940761D01*
X43348019Y-81845523D01*
X43395638Y-81655047D01*
X43395638Y-81321714D01*
X43348019Y-81131238D01*
X43252780Y-81036000D01*
X43157542Y-80988380D01*
X42443257Y-80988380D02*
X41871828Y-80988380D01*
X42157542Y-81988380D02*
X42157542Y-80988380D01*
X41538495Y-81988380D02*
X41538495Y-80988380D01*
X41300400Y-80988380D01*
X41157542Y-81036000D01*
X41062304Y-81131238D01*
X41014685Y-81226476D01*
X40967066Y-81416952D01*
X40967066Y-81559809D01*
X41014685Y-81750285D01*
X41062304Y-81845523D01*
X41157542Y-81940761D01*
X41300400Y-81988380D01*
X41538495Y-81988380D01*
X40014685Y-81036000D02*
X40109923Y-80988380D01*
X40252780Y-80988380D01*
X40395638Y-81036000D01*
X40490876Y-81131238D01*
X40538495Y-81226476D01*
X40586114Y-81416952D01*
X40586114Y-81559809D01*
X40538495Y-81750285D01*
X40490876Y-81845523D01*
X40395638Y-81940761D01*
X40252780Y-81988380D01*
X40157542Y-81988380D01*
X40014685Y-81940761D01*
X39967066Y-81893142D01*
X39967066Y-81559809D01*
X40157542Y-81559809D01*
X44395638Y-83114571D02*
X44728971Y-83114571D01*
X44728971Y-83638380D02*
X44728971Y-82638380D01*
X44252780Y-82638380D01*
X43871828Y-83638380D02*
X43871828Y-82971714D01*
X43871828Y-82638380D02*
X43919447Y-82686000D01*
X43871828Y-82733619D01*
X43824209Y-82686000D01*
X43871828Y-82638380D01*
X43871828Y-82733619D01*
X43395638Y-82971714D02*
X43395638Y-83638380D01*
X43395638Y-83066952D02*
X43348019Y-83019333D01*
X43252780Y-82971714D01*
X43109923Y-82971714D01*
X43014685Y-83019333D01*
X42967066Y-83114571D01*
X42967066Y-83638380D01*
X42062304Y-82971714D02*
X42062304Y-83781238D01*
X42109923Y-83876476D01*
X42157542Y-83924095D01*
X42252780Y-83971714D01*
X42395638Y-83971714D01*
X42490876Y-83924095D01*
X42062304Y-83590761D02*
X42157542Y-83638380D01*
X42348019Y-83638380D01*
X42443257Y-83590761D01*
X42490876Y-83543142D01*
X42538495Y-83447904D01*
X42538495Y-83162190D01*
X42490876Y-83066952D01*
X42443257Y-83019333D01*
X42348019Y-82971714D01*
X42157542Y-82971714D01*
X42062304Y-83019333D01*
X41205161Y-83590761D02*
X41300400Y-83638380D01*
X41490876Y-83638380D01*
X41586114Y-83590761D01*
X41633733Y-83495523D01*
X41633733Y-83114571D01*
X41586114Y-83019333D01*
X41490876Y-82971714D01*
X41300400Y-82971714D01*
X41205161Y-83019333D01*
X41157542Y-83114571D01*
X41157542Y-83209809D01*
X41633733Y-83305047D01*
X40728971Y-83638380D02*
X40728971Y-82971714D01*
X40728971Y-83162190D02*
X40681352Y-83066952D01*
X40633733Y-83019333D01*
X40538495Y-82971714D01*
X40443257Y-82971714D01*
X40109923Y-82971714D02*
X40109923Y-83971714D01*
X40109923Y-83019333D02*
X40014685Y-82971714D01*
X39824209Y-82971714D01*
X39728971Y-83019333D01*
X39681352Y-83066952D01*
X39633733Y-83162190D01*
X39633733Y-83447904D01*
X39681352Y-83543142D01*
X39728971Y-83590761D01*
X39824209Y-83638380D01*
X40014685Y-83638380D01*
X40109923Y-83590761D01*
X38776590Y-83638380D02*
X38776590Y-83114571D01*
X38824209Y-83019333D01*
X38919447Y-82971714D01*
X39109923Y-82971714D01*
X39205161Y-83019333D01*
X38776590Y-83590761D02*
X38871828Y-83638380D01*
X39109923Y-83638380D01*
X39205161Y-83590761D01*
X39252780Y-83495523D01*
X39252780Y-83400285D01*
X39205161Y-83305047D01*
X39109923Y-83257428D01*
X38871828Y-83257428D01*
X38776590Y-83209809D01*
X37871828Y-83638380D02*
X37871828Y-82638380D01*
X37871828Y-83590761D02*
X37967066Y-83638380D01*
X38157542Y-83638380D01*
X38252780Y-83590761D01*
X38300400Y-83543142D01*
X38348019Y-83447904D01*
X38348019Y-83162190D01*
X38300400Y-83066952D01*
X38252780Y-83019333D01*
X38157542Y-82971714D01*
X37967066Y-82971714D01*
X37871828Y-83019333D01*
X44562304Y-86938380D02*
X44562304Y-85938380D01*
X44228971Y-86652666D01*
X43895638Y-85938380D01*
X43895638Y-86938380D01*
X42990876Y-86938380D02*
X42990876Y-86414571D01*
X43038495Y-86319333D01*
X43133733Y-86271714D01*
X43324209Y-86271714D01*
X43419447Y-86319333D01*
X42990876Y-86890761D02*
X43086114Y-86938380D01*
X43324209Y-86938380D01*
X43419447Y-86890761D01*
X43467066Y-86795523D01*
X43467066Y-86700285D01*
X43419447Y-86605047D01*
X43324209Y-86557428D01*
X43086114Y-86557428D01*
X42990876Y-86509809D01*
X42086114Y-86938380D02*
X42086114Y-85938380D01*
X42086114Y-86890761D02*
X42181352Y-86938380D01*
X42371828Y-86938380D01*
X42467066Y-86890761D01*
X42514685Y-86843142D01*
X42562304Y-86747904D01*
X42562304Y-86462190D01*
X42514685Y-86366952D01*
X42467066Y-86319333D01*
X42371828Y-86271714D01*
X42181352Y-86271714D01*
X42086114Y-86319333D01*
X41228971Y-86890761D02*
X41324209Y-86938380D01*
X41514685Y-86938380D01*
X41609923Y-86890761D01*
X41657542Y-86795523D01*
X41657542Y-86414571D01*
X41609923Y-86319333D01*
X41514685Y-86271714D01*
X41324209Y-86271714D01*
X41228971Y-86319333D01*
X41181352Y-86414571D01*
X41181352Y-86509809D01*
X41657542Y-86605047D01*
X39990876Y-86938380D02*
X39990876Y-85938380D01*
X39990876Y-86319333D02*
X39895638Y-86271714D01*
X39705161Y-86271714D01*
X39609923Y-86319333D01*
X39562304Y-86366952D01*
X39514685Y-86462190D01*
X39514685Y-86747904D01*
X39562304Y-86843142D01*
X39609923Y-86890761D01*
X39705161Y-86938380D01*
X39895638Y-86938380D01*
X39990876Y-86890761D01*
X39181352Y-86271714D02*
X38943257Y-86938380D01*
X38705161Y-86271714D02*
X38943257Y-86938380D01*
X39038495Y-87176476D01*
X39086114Y-87224095D01*
X39181352Y-87271714D01*
X44395638Y-88588380D02*
X44395638Y-87588380D01*
X44395638Y-88064571D02*
X43824209Y-88064571D01*
X43824209Y-88588380D02*
X43824209Y-87588380D01*
X42967066Y-88540761D02*
X43062304Y-88588380D01*
X43252780Y-88588380D01*
X43348019Y-88540761D01*
X43395638Y-88445523D01*
X43395638Y-88064571D01*
X43348019Y-87969333D01*
X43252780Y-87921714D01*
X43062304Y-87921714D01*
X42967066Y-87969333D01*
X42919447Y-88064571D01*
X42919447Y-88159809D01*
X43395638Y-88255047D01*
X42490876Y-87921714D02*
X42490876Y-88588380D01*
X42490876Y-88016952D02*
X42443257Y-87969333D01*
X42348019Y-87921714D01*
X42205161Y-87921714D01*
X42109923Y-87969333D01*
X42062304Y-88064571D01*
X42062304Y-88588380D01*
X41586114Y-88588380D02*
X41586114Y-87921714D01*
X41586114Y-88112190D02*
X41538495Y-88016952D01*
X41490876Y-87969333D01*
X41395638Y-87921714D01*
X41300400Y-87921714D01*
X41062304Y-87921714D02*
X40824209Y-88588380D01*
X40586114Y-87921714D02*
X40824209Y-88588380D01*
X40919447Y-88826476D01*
X40967066Y-88874095D01*
X41062304Y-88921714D01*
X38967066Y-88588380D02*
X39443257Y-88588380D01*
X39443257Y-87588380D01*
X38490876Y-88588380D02*
X38586114Y-88540761D01*
X38633733Y-88493142D01*
X38681352Y-88397904D01*
X38681352Y-88112190D01*
X38633733Y-88016952D01*
X38586114Y-87969333D01*
X38490876Y-87921714D01*
X38348019Y-87921714D01*
X38252780Y-87969333D01*
X38205161Y-88016952D01*
X38157542Y-88112190D01*
X38157542Y-88397904D01*
X38205161Y-88493142D01*
X38252780Y-88540761D01*
X38348019Y-88588380D01*
X38490876Y-88588380D01*
X33759542Y-80988380D02*
X33569066Y-80988380D01*
X33473828Y-81036000D01*
X33378590Y-81131238D01*
X33330971Y-81321714D01*
X33330971Y-81655047D01*
X33378590Y-81845523D01*
X33473828Y-81940761D01*
X33569066Y-81988380D01*
X33759542Y-81988380D01*
X33854780Y-81940761D01*
X33950019Y-81845523D01*
X33997638Y-81655047D01*
X33997638Y-81321714D01*
X33950019Y-81131238D01*
X33854780Y-81036000D01*
X33759542Y-80988380D01*
X33045257Y-80988380D02*
X32473828Y-80988380D01*
X32759542Y-81988380D02*
X32759542Y-80988380D01*
X32140495Y-81988380D02*
X32140495Y-80988380D01*
X31902400Y-80988380D01*
X31759542Y-81036000D01*
X31664304Y-81131238D01*
X31616685Y-81226476D01*
X31569066Y-81416952D01*
X31569066Y-81559809D01*
X31616685Y-81750285D01*
X31664304Y-81845523D01*
X31759542Y-81940761D01*
X31902400Y-81988380D01*
X32140495Y-81988380D01*
X30616685Y-81036000D02*
X30711923Y-80988380D01*
X30854780Y-80988380D01*
X30997638Y-81036000D01*
X31092876Y-81131238D01*
X31140495Y-81226476D01*
X31188114Y-81416952D01*
X31188114Y-81559809D01*
X31140495Y-81750285D01*
X31092876Y-81845523D01*
X30997638Y-81940761D01*
X30854780Y-81988380D01*
X30759542Y-81988380D01*
X30616685Y-81940761D01*
X30569066Y-81893142D01*
X30569066Y-81559809D01*
X30759542Y-81559809D01*
X34997638Y-83114571D02*
X35330971Y-83114571D01*
X35330971Y-83638380D02*
X35330971Y-82638380D01*
X34854780Y-82638380D01*
X34473828Y-83638380D02*
X34473828Y-82971714D01*
X34473828Y-82638380D02*
X34521447Y-82686000D01*
X34473828Y-82733619D01*
X34426209Y-82686000D01*
X34473828Y-82638380D01*
X34473828Y-82733619D01*
X33997638Y-82971714D02*
X33997638Y-83638380D01*
X33997638Y-83066952D02*
X33950019Y-83019333D01*
X33854780Y-82971714D01*
X33711923Y-82971714D01*
X33616685Y-83019333D01*
X33569066Y-83114571D01*
X33569066Y-83638380D01*
X32664304Y-82971714D02*
X32664304Y-83781238D01*
X32711923Y-83876476D01*
X32759542Y-83924095D01*
X32854780Y-83971714D01*
X32997638Y-83971714D01*
X33092876Y-83924095D01*
X32664304Y-83590761D02*
X32759542Y-83638380D01*
X32950019Y-83638380D01*
X33045257Y-83590761D01*
X33092876Y-83543142D01*
X33140495Y-83447904D01*
X33140495Y-83162190D01*
X33092876Y-83066952D01*
X33045257Y-83019333D01*
X32950019Y-82971714D01*
X32759542Y-82971714D01*
X32664304Y-83019333D01*
X31807161Y-83590761D02*
X31902400Y-83638380D01*
X32092876Y-83638380D01*
X32188114Y-83590761D01*
X32235733Y-83495523D01*
X32235733Y-83114571D01*
X32188114Y-83019333D01*
X32092876Y-82971714D01*
X31902400Y-82971714D01*
X31807161Y-83019333D01*
X31759542Y-83114571D01*
X31759542Y-83209809D01*
X32235733Y-83305047D01*
X31330971Y-83638380D02*
X31330971Y-82971714D01*
X31330971Y-83162190D02*
X31283352Y-83066952D01*
X31235733Y-83019333D01*
X31140495Y-82971714D01*
X31045257Y-82971714D01*
X30711923Y-82971714D02*
X30711923Y-83971714D01*
X30711923Y-83019333D02*
X30616685Y-82971714D01*
X30426209Y-82971714D01*
X30330971Y-83019333D01*
X30283352Y-83066952D01*
X30235733Y-83162190D01*
X30235733Y-83447904D01*
X30283352Y-83543142D01*
X30330971Y-83590761D01*
X30426209Y-83638380D01*
X30616685Y-83638380D01*
X30711923Y-83590761D01*
X29378590Y-83638380D02*
X29378590Y-83114571D01*
X29426209Y-83019333D01*
X29521447Y-82971714D01*
X29711923Y-82971714D01*
X29807161Y-83019333D01*
X29378590Y-83590761D02*
X29473828Y-83638380D01*
X29711923Y-83638380D01*
X29807161Y-83590761D01*
X29854780Y-83495523D01*
X29854780Y-83400285D01*
X29807161Y-83305047D01*
X29711923Y-83257428D01*
X29473828Y-83257428D01*
X29378590Y-83209809D01*
X28473828Y-83638380D02*
X28473828Y-82638380D01*
X28473828Y-83590761D02*
X28569066Y-83638380D01*
X28759542Y-83638380D01*
X28854780Y-83590761D01*
X28902400Y-83543142D01*
X28950019Y-83447904D01*
X28950019Y-83162190D01*
X28902400Y-83066952D01*
X28854780Y-83019333D01*
X28759542Y-82971714D01*
X28569066Y-82971714D01*
X28473828Y-83019333D01*
X35164304Y-86938380D02*
X35164304Y-85938380D01*
X34830971Y-86652666D01*
X34497638Y-85938380D01*
X34497638Y-86938380D01*
X33592876Y-86938380D02*
X33592876Y-86414571D01*
X33640495Y-86319333D01*
X33735733Y-86271714D01*
X33926209Y-86271714D01*
X34021447Y-86319333D01*
X33592876Y-86890761D02*
X33688114Y-86938380D01*
X33926209Y-86938380D01*
X34021447Y-86890761D01*
X34069066Y-86795523D01*
X34069066Y-86700285D01*
X34021447Y-86605047D01*
X33926209Y-86557428D01*
X33688114Y-86557428D01*
X33592876Y-86509809D01*
X32688114Y-86938380D02*
X32688114Y-85938380D01*
X32688114Y-86890761D02*
X32783352Y-86938380D01*
X32973828Y-86938380D01*
X33069066Y-86890761D01*
X33116685Y-86843142D01*
X33164304Y-86747904D01*
X33164304Y-86462190D01*
X33116685Y-86366952D01*
X33069066Y-86319333D01*
X32973828Y-86271714D01*
X32783352Y-86271714D01*
X32688114Y-86319333D01*
X31830971Y-86890761D02*
X31926209Y-86938380D01*
X32116685Y-86938380D01*
X32211923Y-86890761D01*
X32259542Y-86795523D01*
X32259542Y-86414571D01*
X32211923Y-86319333D01*
X32116685Y-86271714D01*
X31926209Y-86271714D01*
X31830971Y-86319333D01*
X31783352Y-86414571D01*
X31783352Y-86509809D01*
X32259542Y-86605047D01*
X30592876Y-86938380D02*
X30592876Y-85938380D01*
X30592876Y-86319333D02*
X30497638Y-86271714D01*
X30307161Y-86271714D01*
X30211923Y-86319333D01*
X30164304Y-86366952D01*
X30116685Y-86462190D01*
X30116685Y-86747904D01*
X30164304Y-86843142D01*
X30211923Y-86890761D01*
X30307161Y-86938380D01*
X30497638Y-86938380D01*
X30592876Y-86890761D01*
X29783352Y-86271714D02*
X29545257Y-86938380D01*
X29307161Y-86271714D02*
X29545257Y-86938380D01*
X29640495Y-87176476D01*
X29688114Y-87224095D01*
X29783352Y-87271714D01*
X34997638Y-88588380D02*
X34997638Y-87588380D01*
X34997638Y-88064571D02*
X34426209Y-88064571D01*
X34426209Y-88588380D02*
X34426209Y-87588380D01*
X33569066Y-88540761D02*
X33664304Y-88588380D01*
X33854780Y-88588380D01*
X33950019Y-88540761D01*
X33997638Y-88445523D01*
X33997638Y-88064571D01*
X33950019Y-87969333D01*
X33854780Y-87921714D01*
X33664304Y-87921714D01*
X33569066Y-87969333D01*
X33521447Y-88064571D01*
X33521447Y-88159809D01*
X33997638Y-88255047D01*
X33092876Y-87921714D02*
X33092876Y-88588380D01*
X33092876Y-88016952D02*
X33045257Y-87969333D01*
X32950019Y-87921714D01*
X32807161Y-87921714D01*
X32711923Y-87969333D01*
X32664304Y-88064571D01*
X32664304Y-88588380D01*
X32188114Y-88588380D02*
X32188114Y-87921714D01*
X32188114Y-88112190D02*
X32140495Y-88016952D01*
X32092876Y-87969333D01*
X31997638Y-87921714D01*
X31902400Y-87921714D01*
X31664304Y-87921714D02*
X31426209Y-88588380D01*
X31188114Y-87921714D02*
X31426209Y-88588380D01*
X31521447Y-88826476D01*
X31569066Y-88874095D01*
X31664304Y-88921714D01*
X29569066Y-88588380D02*
X30045257Y-88588380D01*
X30045257Y-87588380D01*
X29092876Y-88588380D02*
X29188114Y-88540761D01*
X29235733Y-88493142D01*
X29283352Y-88397904D01*
X29283352Y-88112190D01*
X29235733Y-88016952D01*
X29188114Y-87969333D01*
X29092876Y-87921714D01*
X28950019Y-87921714D01*
X28854780Y-87969333D01*
X28807161Y-88016952D01*
X28759542Y-88112190D01*
X28759542Y-88397904D01*
X28807161Y-88493142D01*
X28854780Y-88540761D01*
X28950019Y-88588380D01*
X29092876Y-88588380D01*
X24183742Y-80988380D02*
X23993266Y-80988380D01*
X23898028Y-81036000D01*
X23802790Y-81131238D01*
X23755171Y-81321714D01*
X23755171Y-81655047D01*
X23802790Y-81845523D01*
X23898028Y-81940761D01*
X23993266Y-81988380D01*
X24183742Y-81988380D01*
X24278980Y-81940761D01*
X24374219Y-81845523D01*
X24421838Y-81655047D01*
X24421838Y-81321714D01*
X24374219Y-81131238D01*
X24278980Y-81036000D01*
X24183742Y-80988380D01*
X23469457Y-80988380D02*
X22898028Y-80988380D01*
X23183742Y-81988380D02*
X23183742Y-80988380D01*
X22564695Y-81988380D02*
X22564695Y-80988380D01*
X22326600Y-80988380D01*
X22183742Y-81036000D01*
X22088504Y-81131238D01*
X22040885Y-81226476D01*
X21993266Y-81416952D01*
X21993266Y-81559809D01*
X22040885Y-81750285D01*
X22088504Y-81845523D01*
X22183742Y-81940761D01*
X22326600Y-81988380D01*
X22564695Y-81988380D01*
X21040885Y-81036000D02*
X21136123Y-80988380D01*
X21278980Y-80988380D01*
X21421838Y-81036000D01*
X21517076Y-81131238D01*
X21564695Y-81226476D01*
X21612314Y-81416952D01*
X21612314Y-81559809D01*
X21564695Y-81750285D01*
X21517076Y-81845523D01*
X21421838Y-81940761D01*
X21278980Y-81988380D01*
X21183742Y-81988380D01*
X21040885Y-81940761D01*
X20993266Y-81893142D01*
X20993266Y-81559809D01*
X21183742Y-81559809D01*
X25421838Y-83114571D02*
X25755171Y-83114571D01*
X25755171Y-83638380D02*
X25755171Y-82638380D01*
X25278980Y-82638380D01*
X24898028Y-83638380D02*
X24898028Y-82971714D01*
X24898028Y-82638380D02*
X24945647Y-82686000D01*
X24898028Y-82733619D01*
X24850409Y-82686000D01*
X24898028Y-82638380D01*
X24898028Y-82733619D01*
X24421838Y-82971714D02*
X24421838Y-83638380D01*
X24421838Y-83066952D02*
X24374219Y-83019333D01*
X24278980Y-82971714D01*
X24136123Y-82971714D01*
X24040885Y-83019333D01*
X23993266Y-83114571D01*
X23993266Y-83638380D01*
X23088504Y-82971714D02*
X23088504Y-83781238D01*
X23136123Y-83876476D01*
X23183742Y-83924095D01*
X23278980Y-83971714D01*
X23421838Y-83971714D01*
X23517076Y-83924095D01*
X23088504Y-83590761D02*
X23183742Y-83638380D01*
X23374219Y-83638380D01*
X23469457Y-83590761D01*
X23517076Y-83543142D01*
X23564695Y-83447904D01*
X23564695Y-83162190D01*
X23517076Y-83066952D01*
X23469457Y-83019333D01*
X23374219Y-82971714D01*
X23183742Y-82971714D01*
X23088504Y-83019333D01*
X22231361Y-83590761D02*
X22326600Y-83638380D01*
X22517076Y-83638380D01*
X22612314Y-83590761D01*
X22659933Y-83495523D01*
X22659933Y-83114571D01*
X22612314Y-83019333D01*
X22517076Y-82971714D01*
X22326600Y-82971714D01*
X22231361Y-83019333D01*
X22183742Y-83114571D01*
X22183742Y-83209809D01*
X22659933Y-83305047D01*
X21755171Y-83638380D02*
X21755171Y-82971714D01*
X21755171Y-83162190D02*
X21707552Y-83066952D01*
X21659933Y-83019333D01*
X21564695Y-82971714D01*
X21469457Y-82971714D01*
X21136123Y-82971714D02*
X21136123Y-83971714D01*
X21136123Y-83019333D02*
X21040885Y-82971714D01*
X20850409Y-82971714D01*
X20755171Y-83019333D01*
X20707552Y-83066952D01*
X20659933Y-83162190D01*
X20659933Y-83447904D01*
X20707552Y-83543142D01*
X20755171Y-83590761D01*
X20850409Y-83638380D01*
X21040885Y-83638380D01*
X21136123Y-83590761D01*
X19802790Y-83638380D02*
X19802790Y-83114571D01*
X19850409Y-83019333D01*
X19945647Y-82971714D01*
X20136123Y-82971714D01*
X20231361Y-83019333D01*
X19802790Y-83590761D02*
X19898028Y-83638380D01*
X20136123Y-83638380D01*
X20231361Y-83590761D01*
X20278980Y-83495523D01*
X20278980Y-83400285D01*
X20231361Y-83305047D01*
X20136123Y-83257428D01*
X19898028Y-83257428D01*
X19802790Y-83209809D01*
X18898028Y-83638380D02*
X18898028Y-82638380D01*
X18898028Y-83590761D02*
X18993266Y-83638380D01*
X19183742Y-83638380D01*
X19278980Y-83590761D01*
X19326600Y-83543142D01*
X19374219Y-83447904D01*
X19374219Y-83162190D01*
X19326600Y-83066952D01*
X19278980Y-83019333D01*
X19183742Y-82971714D01*
X18993266Y-82971714D01*
X18898028Y-83019333D01*
X25588504Y-86938380D02*
X25588504Y-85938380D01*
X25255171Y-86652666D01*
X24921838Y-85938380D01*
X24921838Y-86938380D01*
X24017076Y-86938380D02*
X24017076Y-86414571D01*
X24064695Y-86319333D01*
X24159933Y-86271714D01*
X24350409Y-86271714D01*
X24445647Y-86319333D01*
X24017076Y-86890761D02*
X24112314Y-86938380D01*
X24350409Y-86938380D01*
X24445647Y-86890761D01*
X24493266Y-86795523D01*
X24493266Y-86700285D01*
X24445647Y-86605047D01*
X24350409Y-86557428D01*
X24112314Y-86557428D01*
X24017076Y-86509809D01*
X23112314Y-86938380D02*
X23112314Y-85938380D01*
X23112314Y-86890761D02*
X23207552Y-86938380D01*
X23398028Y-86938380D01*
X23493266Y-86890761D01*
X23540885Y-86843142D01*
X23588504Y-86747904D01*
X23588504Y-86462190D01*
X23540885Y-86366952D01*
X23493266Y-86319333D01*
X23398028Y-86271714D01*
X23207552Y-86271714D01*
X23112314Y-86319333D01*
X22255171Y-86890761D02*
X22350409Y-86938380D01*
X22540885Y-86938380D01*
X22636123Y-86890761D01*
X22683742Y-86795523D01*
X22683742Y-86414571D01*
X22636123Y-86319333D01*
X22540885Y-86271714D01*
X22350409Y-86271714D01*
X22255171Y-86319333D01*
X22207552Y-86414571D01*
X22207552Y-86509809D01*
X22683742Y-86605047D01*
X21017076Y-86938380D02*
X21017076Y-85938380D01*
X21017076Y-86319333D02*
X20921838Y-86271714D01*
X20731361Y-86271714D01*
X20636123Y-86319333D01*
X20588504Y-86366952D01*
X20540885Y-86462190D01*
X20540885Y-86747904D01*
X20588504Y-86843142D01*
X20636123Y-86890761D01*
X20731361Y-86938380D01*
X20921838Y-86938380D01*
X21017076Y-86890761D01*
X20207552Y-86271714D02*
X19969457Y-86938380D01*
X19731361Y-86271714D02*
X19969457Y-86938380D01*
X20064695Y-87176476D01*
X20112314Y-87224095D01*
X20207552Y-87271714D01*
X25421838Y-88588380D02*
X25421838Y-87588380D01*
X25421838Y-88064571D02*
X24850409Y-88064571D01*
X24850409Y-88588380D02*
X24850409Y-87588380D01*
X23993266Y-88540761D02*
X24088504Y-88588380D01*
X24278980Y-88588380D01*
X24374219Y-88540761D01*
X24421838Y-88445523D01*
X24421838Y-88064571D01*
X24374219Y-87969333D01*
X24278980Y-87921714D01*
X24088504Y-87921714D01*
X23993266Y-87969333D01*
X23945647Y-88064571D01*
X23945647Y-88159809D01*
X24421838Y-88255047D01*
X23517076Y-87921714D02*
X23517076Y-88588380D01*
X23517076Y-88016952D02*
X23469457Y-87969333D01*
X23374219Y-87921714D01*
X23231361Y-87921714D01*
X23136123Y-87969333D01*
X23088504Y-88064571D01*
X23088504Y-88588380D01*
X22612314Y-88588380D02*
X22612314Y-87921714D01*
X22612314Y-88112190D02*
X22564695Y-88016952D01*
X22517076Y-87969333D01*
X22421838Y-87921714D01*
X22326600Y-87921714D01*
X22088504Y-87921714D02*
X21850409Y-88588380D01*
X21612314Y-87921714D02*
X21850409Y-88588380D01*
X21945647Y-88826476D01*
X21993266Y-88874095D01*
X22088504Y-88921714D01*
X19993266Y-88588380D02*
X20469457Y-88588380D01*
X20469457Y-87588380D01*
X19517076Y-88588380D02*
X19612314Y-88540761D01*
X19659933Y-88493142D01*
X19707552Y-88397904D01*
X19707552Y-88112190D01*
X19659933Y-88016952D01*
X19612314Y-87969333D01*
X19517076Y-87921714D01*
X19374219Y-87921714D01*
X19278980Y-87969333D01*
X19231361Y-88016952D01*
X19183742Y-88112190D01*
X19183742Y-88397904D01*
X19231361Y-88493142D01*
X19278980Y-88540761D01*
X19374219Y-88588380D01*
X19517076Y-88588380D01*
D10*
X87376000Y-79552800D02*
X87376000Y-54762400D01*
X17170400Y-79552800D02*
X103251000Y-79552800D01*
M02*
